/* XPM */
static char *result[] = {
/* columns rows colors chars-per-pixel */
"64 64 105 2 ",
"   c #9F2E19",
".  c #A12F19",
"X  c #A5311A",
"o  c #AD351B",
"O  c #AC391B",
"+  c #B1371B",
"@  c #B5391C",
"#  c #BB3C1D",
"$  c #C13F1E",
"%  c #BB441D",
"&  c #BA4B1C",
"*  c #C4401E",
"=  c #CC441F",
"-  c #C34D1D",
";  c #CC4C1F",
":  c #D2471F",
">  c #D3491F",
",  c #C6501E",
"<  c #CC541E",
"1  c #CF5B1F",
"2  c #D1541F",
"3  c #D25D1F",
"4  c #DB5A1E",
"5  c #E45D1E",
"6  c #CE611E",
"7  c #D3621F",
"8  c #D66A1F",
"9  c #F0671F",
"0  c #D44720",
"q  c #D64920",
"w  c #DA4A20",
"e  c #D55520",
"r  c #DA5520",
"t  c #D65820",
"y  c #DC5A20",
"u  c #E04D21",
"i  c #E55122",
"p  c #EC5323",
"a  c #E45D21",
"s  c #EC5C22",
"d  c #F05523",
"f  c #F15B23",
"g  c #DA6220",
"h  c #DC6C20",
"j  c #E56222",
"k  c #EC6322",
"l  c #E26C21",
"z  c #EE6B23",
"x  c #F26623",
"c  c #F36B23",
"v  c #F26D2E",
"b  c #E37321",
"n  c #EB7222",
"m  c #E67A21",
"M  c #ED7C22",
"N  c #F47323",
"B  c #F47B23",
"V  c #F4763A",
"C  c #F57F46",
"Z  c #F68A1F",
"A  c #EC8222",
"S  c #F58423",
"D  c #F68C23",
"F  c #F88E23",
"G  c #F68E29",
"H  c #F58935",
"J  c #F5843A",
"K  c #F68D3A",
"L  c #F58A4A",
"P  c #F79D44",
"I  c #F7984A",
"U  c #F68B58",
"Y  c #F79B52",
"T  c #F79E5A",
"R  c #F8A552",
"E  c #F7A25E",
"W  c #F79F61",
"Q  c #F8AC65",
"!  c #F8AB69",
"~  c #F9B26C",
"^  c #F8A47C",
"/  c #F9B673",
"(  c #F9B07D",
")  c #FABB7C",
"_  c #F9B28B",
"`  c #F9B696",
"'  c #F9BA98",
"]  c #FAC592",
"[  c #FBCB9D",
"{  c #FBCFA3",
"}  c #FBD1A7",
"|  c #FBD1AB",
" . c #FCD6B3",
".. c #FCDDBD",
"X. c #FCDACB",
"o. c #FDE4CD",
"O. c #FDE5D3",
"+. c #FEEBD7",
"@. c #FDE7DD",
"#. c #FEEDDB",
"$. c #FEF2E6",
"%. c #FEF6ED",
"&. c #FEF8F2",
"*. c #FFFBF8",
"=. c None",
/* pixels */
"=.=.=.=.=.=.=.=.=.=.=.=.=.=.=.=.=.=.=.=.=.=.=.=.=.=.r y a a j k a a i w w q =.=.=.=.=.=.=.=.=.=.=.=.=.=.=.=.=.=.=.=.=.=.=.=.=.=.",
"=.=.=.=.=.=.=.=.=.=.=.=.=.=.=.=.=.=.=.=.=.=.r 5 k k x c x x x x c x x f d p p i w 0 =.=.=.=.=.=.=.=.=.=.=.=.=.=.=.=.=.=.=.=.=.=.",
"=.=.=.=.=.=.=.=.=.=.=.=.=.=.=.=.=.=.=.=.a k x x x x x 9 x x c x x x x f d d d d d p p u =.=.=.=.=.=.=.=.=.=.=.=.=.=.=.=.=.=.=.=.",
"=.=.=.=.=.=.=.=.=.=.=.=.=.=.=.=.=.r j x x x x c N H W ( K S S S B B N N f f d d d d d d p u 0 =.=.=.=.=.=.=.=.=.=.=.=.=.=.=.=.=.",
"=.=.=.=.=.=.=.=.=.=.=.=.=.=.=.=.a x x x 9 N H ! } #.o./ G S S S S S S S S B N x f d d d d d p q =.=.=.=.=.=.=.=.=.=.=.=.=.=.=.=.",
"=.=.=.=.=.=.=.=.=.=.=.=.=.=.r k x x x N I ] +.&.@._ J N c c c c x x x c x f x c c c f d d d d u w 0 =.=.=.=.=.=.=.=.=.=.=.=.=.=.",
"=.=.=.=.=.=.=.=.=.=.=.=.=.y k c x N Y | %.&.X.^ V x s a 4 t 2 2 e e t r a i p d d f x f d d d p u w q =.=.=.=.=.=.=.=.=.=.=.=.=.",
"=.=.=.=.=.=.=.=.=.=.=.< a k x c N ! O.X.` U v 5 2 < & & & & & & & & & & & + @ * w p d d d d d p u u u w = =.=.=.=.=.=.=.=.=.=.=.",
"=.=.=.=.=.=.=.=.=.=.e y k x c S D J C v k 4 < & & & , 2 t a a e < a y t e % X . X + 0 i d d d p u u u u w = =.=.=.=.=.=.=.=.=.=.",
"=.=.=.=.=.=.=.=.=.e a j k N S S c x k 4 - & & < 4 j 9 c B B S < - S S S B c r = @ X . o = p d d u u u u u u = =.=.=.=.=.=.=.=.=.",
"=.=.=.=.=.=.=.=.e a a k N D B c x a , & & 2 5 x N K ! ~ G D A < 0 b S B N c x d d w $ X   @ 0 u u u u u u u w = =.=.=.=.=.=.=.=.",
"=.=.=.=.=.=.=.* r y j N S N x x 4 & & < j 9 B Y [ #.#.! D F h y w ; x c x d d d d d d w # . . $ = 0 w w u u u w $ =.=.=.=.=.=.=.",
"=.=.=.=.=.=.=.0 r a c S N x k e & - 4 x N E  .&.&.} P D S n t k p * a x x d d d d d d f p 0 X . @ * 0 0 w u u u 0 =.=.=.=.=.=.=.",
"=.=.=.=.=.=.= w w z S N c k < & - 5 x L | &.$.} R F S N c t h x p 0 ; c f d d d d d d d d d u @   o = = = w u u w = =.=.=.=.=.=.",
"=.=.=.=.=.= q q w B N x k < & , k L ' o...) K F Z N c x k < B d p w * j f d d d d d d d d d d u +   o * = 0 q u w = $ =.=.=.=.=.",
"=.=.=.=.=.0 w 0 a N c k < & < k c E ~ P G F S B c x x x r h N d f u = 0 f d d d d d d d d d d p w + . @ = = = w u q * =.=.=.=.=.",
"=.=.=.=.: w q w k f x t & , k c S D D D D S N x x x x k < A c d d u u $ p d d d d d d d d d d p u w o   # = = = w q = $ =.=.=.=.",
"=.=.=.* q q w w p d q & - a c B D D D F B z x x x x x a g D x d d u u $ : d d d d d d d d d d p u u * X . # : = : 0 = = $ =.=.=.",
"=.=.=.= w q q i p u o O r c B D D F S N x x x x x c x < m S f d d p u u $ d d d d d d d d d d u u u w $ . o $ = = : = = * =.=.=.",
"=.=.=.: q 0 q a p #   # s B F F D S N x x x x x x x s 1 D B p d d u w p $ u d d d d d d d d p u w u u 0 o   o = = = = = = =.=.=.",
"=.=.$ : q = q p = X X u x S D F S c x x x x x x x x e b F c d d d p : u u $ d d d d d d d d p u u u w w * X . @ * = = = = # =.=.",
"=.=.= = = = w i +   $ f S F F D c x x x c x x c x k < S D x d p d u : u d $ p d d d d d d d u u u u u u 0 @   o $ 0 = = * $ =.=.",
"=.# = = $ = u = X X r n F D S k p s a a i r r e e ; h F S f d d d u w w p u $ : : w : u p w w w w w u u w * X X @ * = = * * # =.",
"=.* = = # = w @   # w 3 g 3 < ; ; < 1 g g h l b m M S S B f d d d p : w u d u : : : $ $ $ $ $ $ * * * * * # o   o # 0 * * * # =.",
"=.= = * @ = * o   $ a - h M B S S S S S B N N N c x f f d d d d d u $ u u p p p p p u u u w u : q : $ # + * #   o @ * = $ * # =.",
"=.= = $ @ = # X X 5 B M 6 m D c x f f d d d d d d d d d d d d d d u u : w w w w u : : u u : : u : $ # # 0 w * X X + # * * * * =.",
"# = = $ @ = +   @ s F F n ; h B f p p d d d d d d d d d d d d d p u u u w w : u w w u : : u : $ $ # # q u u = o   o o * * * * @ ",
"$ = = # @ * o   $ c D F x p > 7 B s u u i d d d d d d d d d d d p $ w : $ u u $ w w : u w $ $ $ # # w u u u q +   o o # * * * # ",
"$ = = @ @ # o   * n D B s d d w 3 M k w w w u i p p d d d d d p u w u $ u w w w u : w : $ # # @ $ u u u u u w # X X o # * * * # ",
"= = = @ @ # X . = l A c p d d d w < n x w w q q w w w u u u u w $ w u w u w u $ : : $ $ @ # @ = w u u u u u w $   X o + $ * * # ",
"* : = @ @ # X . * l b i p d d d d u < b c u q w q q w q q q q w u u w w w w u w : $ @ + # @ : u u w u u i w q #   X o + * * * # ",
"* = * + + @ X . $ l l u w u p p d d p ; h c u q q w q w q q w q w w u u $ w u $ $ o + # # > u u u u u u w w 0 # . X o o # * * # ",
"* = = + o @ X   * g j u u u u u u p p p ; g z i w w w q q w q w $ u u u w u $ $ X + $ $ : u u u u u u w w : : $ . . o o $ $ $ $ ",
"* = = + @ @ X   * t y u u u u u u u w u w = < k u w w w w q w q w u $ w w $ $ o X $ $ w u u u u u u u w : : $ $ . o o o $ $ $ $ ",
"* 0 = @ o + o   $ ; r u u u w u u u u u u u * h s w w q q w q w w $ u w w w $ + o $ u u u u u u u u : : : : $ + . X o o $ $ $ $ ",
"$ = = @ + + X   # ; q w u u u u u u u u u u ; m d p w q w q w q w w u w $ w $ $ X $ w u u u u w w : : : : w $ $ . . o + + $ $ $ ",
"@ * = @ + + o   + = = q i u u u u u u u u q 6 N d d u q q q w w w u w u u w $ $ X $ $ u u u w w : : : : : $ $ + . o o o $ $ $ $ ",
"# * * # + + o X o = = 0 w u u u u w u u u = m c d d p q w q q q $ w $ u u w $ $ X $ $ w u w : : : : : w w : $ X . o o o + $ $ $ ",
"=.* * # + + + X . * = = q w u u u u u u w < S f d d i w w q 0 = $ $ $ $ $ u u $ + o $ $ : : : : : : : w $ : $ . . o o o $ $ $ =.",
"=.$ * $ o o + X   $ = = = q u u u u u u = h B d d d u q q q = $ $ $ $ $ $ $ $ $ $ o $ $ : : w : : : w $ $ $ $ . X o o + $ $ $ =.",
"=.$ * $ + o o o   o = = = = w u u u i w ; A n d d i w q w = # + + $ $ $ $ $ $ $ $ o $ o $ w w : q 0 q * $ $ o   o o o @ $ $ $ =.",
"=.@ * * @ o o o X . $ = = 0 = w u w w 0 g D x d d w q w = # o o o o o + $ $ $ $ $ o o $ $ w : : 0 0 = * * #     o o o # $ $ # =.",
"=.=.$ * $ o o o X . o * = = = = w u u = m S f d u w q = # + # = $ $ o X o $ $ $ $ $ o $ $ $ : w 0 = * * * o . o o o o $ * $ =.=.",
"=.=.$ $ * @ o o o . . $ $ * * = = 0 w < F B p p w q = @ @ = 0 w u $ $ $ + X o $ $ $ X $ $ $ : w = * * $ $ . . o o o @ $ * # =.=.",
"=.=.=.$ * # o o o X   o $ * $ * * * % h F c p w 0 * @ $ ; 0 0 0 0 0 w $ $ $ + + o $ + $ $ + $ $ * $ * $ o   X o o o # * $ =.=.=.",
"=.=.=.$ * * O o o o . . @ * * * * $ & A D k u = # $ 0 0 0 0 0 0 $ 0 u $ u $ $ $ o . o o $ o $ $ * * * @   . o o o + $ * $ =.=.=.",
"=.=.=.@ $ * # o o o o X X # $ * * # g F B w # # 0 0 0 0 0 0 0 0 u : : w w $ u $ $ $ o o $ o $ $ * * # X . o o o o # * * =.=.=.=.",
"=.=.=.=.$ * $ + o o o X . X $ * * $ m b ; @ $ * * * * = 0 0 0 0 0 0 $ u $ u $ w $ $ $ o $ $ o $ * # X   o o o o + * * # =.=.=.=.",
"=.=.=.=.=.$ * # o o o o X . o $ $ & , # # * * * * * * $ * * * * * = * * * * * * * * $ $ @ + o # $ o   X o o o + $ * $ =.=.=.=.=.",
"=.=.=.=.=.# * * @ o o o o X   X @ + # * * * * * * * * * $ * * * * * * * * * * $ * * * * * $ @ @ o   X o o o o @ $ * # =.=.=.=.=.",
"=.=.=.=.=.=.$ * $ o o o o o . . X # * * * * * * * * * * * * * * * * * * * * * * * * * * * * # .   X o o o o O $ * $ =.=.=.=.=.=.",
"=.=.=.=.=.=.=.$ * $ o o o o o X   X @ * * * * * $ * * * * * * * * * * * * * * * $ * * * $ @ .   X o o o o o $ * $ =.=.=.=.=.=.=.",
"=.=.=.=.=.=.=.@ * * # o o o o o X X   X # $ * * * * * * * * * * * * * * * * * * * * * # o     X o o o o o # * $ @ =.=.=.=.=.=.=.",
"=.=.=.=.=.=.=.=.@ $ * @ O o o o + X X   X o # * * * * * * * * * * * * * * * * * $ # o     . o o o o o o + * $ # =.=.=.=.=.=.=.=.",
"=.=.=.=.=.=.=.=.=.# $ * @ o o + o o o X X   X X @ # * * * * * * * * * * * * # + o .   . o o o o o o o + * * @ =.=.=.=.=.=.=.=.=.",
"=.=.=.=.=.=.=.=.=.=.# $ * # + o + o o + X X X X     X o + @ # # # # @ + o X .     . o o o o o o o o @ * * @ =.=.=.=.=.=.=.=.=.=.",
"=.=.=.=.=.=.=.=.=.=.=.@ $ $ $ + o o o o o o o X X X X                       . X o o o o o o o o o @ * $ =.=.=.=.=.=.=.=.=.=.=.=.",
"=.=.=.=.=.=.=.=.=.=.=.=.=.$ $ $ @ o o + o o o o o o o X o X X X X X X o o o o o o o o o o o o @ $ $ $ =.=.=.=.=.=.=.=.=.=.=.=.=.",
"=.=.=.=.=.=.=.=.=.=.=.=.=.=.# $ * $ @ o o o o o o o o o o o o o o o o + o o o o o o o o O + # $ * @ =.=.=.=.=.=.=.=.=.=.=.=.=.=.",
"=.=.=.=.=.=.=.=.=.=.=.=.=.=.=.=.# * * $ # + o o o o o + o o o o o o o o o o o o o o o @ $ $ $ # =.=.=.=.=.=.=.=.=.=.=.=.=.=.=.=.",
"=.=.=.=.=.=.=.=.=.=.=.=.=.=.=.=.=.=.$ * $ $ # # + o o o + o o o o o o o + o o + @ @ $ * * $ =.=.=.=.=.=.=.=.=.=.=.=.=.=.=.=.=.=.",
"=.=.=.=.=.=.=.=.=.=.=.=.=.=.=.=.=.=.=.=.# $ * * * $ # # @ @ @ + + @ @ @ @ # # * * * $ # =.=.=.=.=.=.=.=.=.=.=.=.=.=.=.=.=.=.=.=.",
"=.=.=.=.=.=.=.=.=.=.=.=.=.=.=.=.=.=.=.=.=.=.=.# $ $ $ * * * * * * * * * * * * # # =.=.=.=.=.=.=.=.=.=.=.=.=.=.=.=.=.=.=.=.=.=.=.",
"=.=.=.=.=.=.=.=.=.=.=.=.=.=.=.=.=.=.=.=.=.=.=.=.=.=.@ # # # # # # # # # # @ =.=.=.=.=.=.=.=.=.=.=.=.=.=.=.=.=.=.=.=.=.=.=.=.=.=."
};
