/* XPM */
static char *result[] = {
/* columns rows colors chars-per-pixel */
"64 64 160 2 ",
"   c #9F2E19",
".  c #A12F19",
"X  c #A5311A",
"o  c #AD351B",
"O  c #B1371B",
"+  c #B5391C",
"@  c #BB3B1C",
"#  c #C23E1D",
"$  c #B6451C",
"%  c #BC461C",
"&  c #BB4B1C",
"*  c #C4401E",
"=  c #CC431F",
"-  c #C34C1D",
";  c #CB4B1F",
":  c #D2471F",
">  c #D4491F",
",  c #D94A1F",
"<  c #C6501E",
"1  c #CC521E",
"2  c #CF5A1F",
"3  c #D3551F",
"4  c #D35C1F",
"5  c #E65E1F",
"6  c #F0521E",
"7  c #D3631F",
"8  c #D4681F",
"9  c #DA6B1F",
"0  c #F2651F",
"q  c #F0681F",
"w  c #E8781E",
"e  c #F47A1D",
"r  c #D44720",
"t  c #D64920",
"y  c #D94A20",
"u  c #CF5E2D",
"i  c #D65620",
"p  c #DC5320",
"a  c #D75920",
"s  c #DB5A20",
"d  c #DA512A",
"f  c #DD5F2A",
"g  c #DA5630",
"h  c #DB5933",
"j  c #E14D21",
"k  c #E55222",
"l  c #EC5322",
"z  c #E35D21",
"x  c #ED5C23",
"c  c #F05523",
"v  c #F15C23",
"b  c #F05B2B",
"n  c #E35F37",
"m  c #F15F30",
"M  c #D76120",
"N  c #DB6520",
"B  c #D76A20",
"V  c #DA6B20",
"C  c #DD7220",
"Z  c #DD782E",
"A  c #DF6A3B",
"S  c #D47136",
"D  c #DF7F39",
"F  c #E66121",
"G  c #EB6222",
"H  c #E26D21",
"J  c #ED6D22",
"K  c #E2612B",
"L  c #EC6629",
"P  c #F26523",
"I  c #F36B23",
"U  c #F36B2A",
"Y  c #E37122",
"T  c #EE7322",
"R  c #E57921",
"E  c #EC7D22",
"W  c #E77B2B",
"Q  c #F37423",
"!  c #F47C23",
"~  c #F57F2C",
"^  c #F36F30",
"/  c #F26A3E",
"(  c #F57E35",
")  c #F3763A",
"_  c #F47A3F",
"`  c #DE6542",
"'  c #DD7C59",
"]  c #F26C41",
"[  c #F47A41",
"{  c #F3734A",
"}  c #F37948",
"|  c #E17353",
" . c #F47D56",
".. c #F47E59",
"X. c #F68A1F",
"o. c #EE8322",
"O. c #F58323",
"+. c #F68B23",
"@. c #F88A23",
"#. c #F58629",
"$. c #F68F28",
"%. c #F68931",
"&. c #F5843A",
"*. c #F68A3A",
"=. c #F69535",
"-. c #F79739",
";. c #F5844E",
":. c #EF9748",
">. c #F59243",
",. c #F89F47",
"<. c #E7925F",
"1. c #F6995D",
"2. c #F8A14A",
"3. c #F8A455",
"4. c #F6A75B",
"5. c #F8A759",
"6. c #F8AA5B",
"7. c #E78467",
"8. c #F58967",
"9. c #F79261",
"0. c #F69D7E",
"q. c #F8A562",
"w. c #F9AF65",
"e. c #F7A269",
"r. c #F9AC6D",
"t. c #F9B26C",
"y. c #F8A177",
"u. c #F6A179",
"i. c #F69D80",
"p. c #E6A081",
"a. c #E6A188",
"s. c #F9B18A",
"d. c #F8AD95",
"f. c #F0B097",
"g. c #F9B594",
"h. c #FAC492",
"j. c #FBC898",
"k. c #FAC4A4",
"l. c #FBCEA0",
"z. c #FAC1AF",
"x. c #FBD0A5",
"c. c #E5C0B4",
"v. c #F7CEBB",
"b. c #FCD9B6",
"n. c #FBD1BD",
"m. c #FCDBBF",
"M. c #F8D6C7",
"N. c #FBD6CB",
"B. c #FDE1C4",
"V. c #FDE5CD",
"C. c #FBE6D3",
"Z. c #FDE9D4",
"A. c #FDE7D8",
"S. c #FEECDC",
"D. c #FDEBE2",
"F. c #FDEEE8",
"G. c #FEF3E6",
"H. c #FFFAF4",
"J. c #FFFEFE",
"K. c None",
/* pixels */
"K.K.K.K.K.K.K.K.K.K.K.K.K.K.K.K.K.K.K.K.K.K.K.s z F F F x z p : = = = = = = = = * K.K.K.K.K.K.K.K.K.K.K.K.K.K.K.K.K.K.K.K.K.K.K.",
"K.K.K.K.K.K.K.K.K.K.K.K.K.K.K.K.K.K.K.K.z G G G P P P P P I P c c l k j , : r r y t r = K.K.K.K.K.K.K.K.K.K.K.K.K.K.K.K.K.K.K.K.",
"K.K.K.K.K.K.K.K.K.K.K.K.K.K.K.K.K.s G P P P P 0 P P P P P P P x c c c c c k y j j l l l k j r K.K.K.K.K.K.K.K.K.K.K.K.K.K.K.K.K.",
"K.K.K.K.K.K.K.K.K.K.K.K.K.K.K.s G P P P P Q &.e.r.#.O.O.! ! ! I v c c c c c c l j j l l c c l j K.K.K.K.K.K.K.K.K.K.K.K.K.K.K.K.",
"K.K.K.K.K.K.K.K.K.K.K.K.K.K.z P P P q O.3.l.S.B.5.+.O.O.O.O.O.O.! ! I v c c c c c j y l l c c c l j K.K.K.K.K.K.K.K.K.K.K.K.K.K.",
"K.K.K.K.K.K.K.K.K.K.K.K.3 G P P P ( t.m.H.S.s.( I I I G I P P P P v I I P c c c c l j y j c c c c c j K.K.K.K.K.K.K.K.K.K.K.K.K.",
"K.K.K.K.K.K.K.K.K.K.K.i G P P Q q.B.H.S.g.[ P G z s 3 2 i 3 i s k l c c c P v c c l j j y z Q Q Q Q e I 9 K.K.K.K.K.K.K.K.K.K.K.",
"K.K.K.K.K.K.K.K.K.K.i F P I Q t.A.n.y.) 5 3 < - & & & & & & & & $ o % y l c c c c c j j j y H =.-.-.=.=.=.D K.K.K.K.K.K.K.K.K.K.",
"K.K.K.K.K.K.K.K.K.i z L P ! @.&._ I 5 1 % & & < i s s i i F s s < o . . O r l c c c j j j j y p.Z.Z.Z.Z.Z.C.c.K.K.K.K.K.K.K.K.K.",
"K.K.K.K.K.K.K.K.i s G I O.O.Q P G 3 & & < 4 G P Q ! O.2 - O.O.O.! G y @ .   O y c c k j j j j g <.w.w.w.w.w.4.Z K.K.K.K.K.K.K.K.",
"K.K.K.K.K.K.K.i z F I O.O.I P z < & 1 4 0 Q *.r.3.+.o.i ; R O.! Q P v l j # . . # y j j j j j j , w X.X.@.X.+.+.B K.K.K.K.K.K.K.",
"K.K.K.K.K.K.K.s z G ! O.I P s & & 3 P q >.h.S.V.2.+.Y s y ; P P P c c c c c y O . O = r t j j j j 4 E +.O.+.O.@.o.K.K.K.K.K.K.K.",
"K.K.K.K.K.K.: p G Q O.I P a & - z q &.h.G.H.x.2.+.! 4 G k * G I v c c c c c v k @ . o * = r y j j , > x v v v v P k K.K.K.K.K.K.",
"K.K.K.K.K.= t y J O.I P s & < 5 U e.Z.H.b.4.$.%.Q z 4 P l = i P v c c c c c c c l *   o * = r y j j = y c 6 c c c l y K.K.K.K.K.",
"K.K.K.K.K.r t p Q I P s & < F ;.k.V.j.3.$.X.Q [ I 3 Y v l t ; P c c c c c c c c c l # . O * r r y j t = l c c c c c l K.K.K.K.K.",
"K.K.K.K.= y t z I I F & - F I q.w.-.$.X.O.P P ;.L 2 ! c l y * k c c c c c c c l c c j @ . + = = t y y = > k j j j j j : K.K.K.K.",
"K.K.K.K.t y t x v G < & z I O.+.X.@.+.Q P P I 9.f 9 Q c l j r = c c c c c c c c c c j t O . # : = t y = * r y y t y y r K.K.K.K.",
"K.K.K.= y y y l l ; & 3 P ! +.+.+.O.Q P P P I u.u O.I c l j y = l c c c c c c c c c j j = . X = = r t = = = y t t y y r = K.K.K.",
"K.K.K.r y t p c , X % G Q +.$.+.+.Q P P P P U f.S @.v c c j k = y c c c c c c c c k j j y @ . O = r = = = * t y y y y y : K.K.K.",
"K.K.* t t > k l + X > I +.+.+.O.I P P P P P ^ v.:.O.v c c j y y * c c c c c c c c k j j j = X . @ = = = = = = t r y r y t = K.K.",
"K.K.* r = > l ; . O l ! +.$.+.I P P P P P P [ D.w.e c c c j y k = j c c c c c c c j j j j y @ . o * = = = = * y t y y t y : K.K.",
"K.K.= r = > j +   : I +.+.+.I I U P I U U [ g.J.B.1./ L b j y k t r c c c c c c l j j j j j = X X + = = = * # r t t t > t r K.K.",
"K.# = = # y : X o l O.$.+.J l k x K A ' a.M.J.J.J.D.z.i...n y j l * r r y y j j y y y j j j y O   o # = = * # = y y y y y y * K.",
"K.* = # * y @   + 3 7 2 a ; ; i a M V C W >.j.J.M.{ m b c j t y l j r r = = * # # # # # # # # @ X X @ = = * # = t , t y t y = K.",
"K.= = @ @ = o X r < 2 E o.O.O.O.O.! ! Q I P [ F.i.6 c c c j t y j l c l k k j j y y r r # O @ = X . O # # # # # t y y , y y # K.",
"@ = = @ * * X o k O.8 C +.I G v x c c c c c b N.8.c c c c y t t t y y y y y y y y y = # + # y y O . O @ = : # # t y y t y y y K.",
"@ = = + * + X + P +.O.2 B Q x l c c c c c c c z. .6 c c 6 y t , t t y y r y y y y = # + # y j y # . o O # * # # : t t y t y y # ",
"* = * + * +   @ Q $.! l t M Q k j k l c c c c d.{ c c c j y y y t y y t y y y : * # + # y j j j # . X O # * # # : t y t y y j # ",
"* = * + @ +   * T +.P c c t M E k y y y j l c 0.] c c l y t y t y y y j , y # # # + # y j j j j : . X O @ # # # # , j # y : y # ",
"* = # O @ o   * Y o.x 6 c c t M Q k y t y y y 7.n j j y t y y t y y , j r # @ # + # j j j j j j = X . o + # # # # # # # # # # @ ",
"= = * O @ o   * Y H 5 l c c c y a R k y y t t | d > t t y y t y r y j # # O + + * j y j j j j y = o . o O # # # # # @ @ @ @ @ + ",
"* = # O + o   * H F y j j l c c t a T k y y t ` d , y t , t y t # y # # O O @ # j j j j j j j y * X . o O # # # + @ @ @ @ @ @ + ",
"= = % O + X X * N z y j j j j l l y i Y j y y h y y y y y y y y j # @ X O @ # j j j j j j j j # # O X O O @ * * + @ @ @ @ @ @ O ",
"# = # O O o   @ a k j j j y j j y p = r G j y y r y r y y , y y j # o O + # j j j j , j k # j # # + . O o @ * # @ @ @ @ @ @ @ + ",
"# r * O O o   @ i p j j j j j j j j j = N x y y t t y r r y y t j # # o # j j j j j j j , , # j # X . o o @ * # + @ @ @ @ @ @ + ",
"# = * O O o   @ ; t j j j j j j j j j ; Y v k t y t , y r y t t j # # o # j j j j j j , # j j # # . . O O @ * # @ @ @ @ @ @ # O ",
"@ * = O + o   o = r y j y j j j j j y < Q c c y y y y y , , , t j , # o + # 6 j j j # j # , 6 # @ . X O o @ * # @ @ @ @ @ @ @ O ",
"@ # * O + o X o = = t j j j j j j j r V I c c j t y y y : : r r # # # O O # j j j # j # j j # # + . X O o # # # + @ @ @ @ @ @ O ",
"K.# # + o + X X = = = y j j j y j y ; E v c c y y y r = # # # # j # # @ O @ y # j , # j , # # # O . o o O # # @ + @ @ @ @ @ + K.",
"K.# * + o o o . @ = = r j j j j j t 2 O.c c l y y r : # # # # # # # # @ O # # j # , j # , j # # X . o o O # # @ @ @ @ @ @ # + K.",
"K.# * @ o o o . + = r = r j j j j = C ! c c j y r r # O o @ # # # # # # O + # , # # j # j # # # . X o o + # # @ @ @ @ @ @ @ O K.",
"K.@ * # o o o X X * = = = r j j y ; o.I c l y y r # o o o . O @ # # # # + + + # j , , j # # # # . X o o @ # # + @ @ @ @ @ @ + K.",
"K.K.# * + o o X . + = = = = y j t 2 +.P c j t r * + + = : + o o + # # # + O O # , , # , # # # X . o O O # # @ @ @ @ @ @ @ @ K.K.",
"K.K.# * @ o o o . X % * = * = r = R O.x k y t # + # r y r : # O o + # # # o # # # j # # # # O . X O O + # # + @ @ + @ @ @ + K.K.",
"K.K.@ * # o o o X   + * * * * * & +.! l j r # @ * r r r r r = = # o o o # o # O # , # # # # X . o o o @ # # + O O o O O O o K.K.",
"K.K.K.# * + O O o X X @ * * * @ 7 +.Q j = @ # : r r r r r r r = # # @ + o o + + # # # # # # . X o o O # # + o o o o o o o K.K.K.",
"K.K.K.# * @ o o o X   o * * * @ R @.k * @ : : : r r r r r r = d j , # # O o + # # # # # # . . o o O + # # O o o o o o o o K.K.K.",
"K.K.K.K.* * + o o o X X + * # < E 3 @ @ # # # = = = r = r r = d # , # j # O + # + # # # X . o o o O # # + o o o o o o o K.K.K.K.",
"K.K.K.K.# # # O o o o   X @ @ - & @ # * * * * * * * * * * g @ * * * * * * * @ + O + * o X X o o o + # # O o o o o o O o K.K.K.K.",
"K.K.K.K.K.# # + o o O X   X o + # * * * * # # * * * * * # * # # * * * # * * * * + O o   X o o o O # # @ o o o o o X O K.K.K.K.K.",
"K.K.K.K.K.@ * # O o o o o   X @ * * * * * * * * * * * * * * * * * * * * # * * * * o   . o o o o @ # # o o o o o o o X K.K.K.K.K.",
"K.K.K.K.K.K.# * + O o o o X   X + * * * * * * * * * * * * * * * * * * * * * * # o   X o o o o + # # O o o o O o o o K.K.K.K.K.K.",
"K.K.K.K.K.K.K.* * + o o o o o   X O # * * * * * * * * * * * * * * * * * * * + X   X o o o o O @ # + o o o o o o o K.K.K.K.K.K.K.",
"K.K.K.K.K.K.K.@ # % + o o o o o     X + # * * * * * * * * * * * * * * * @ o .   X o o o o o @ * @ O o o o O o o o K.K.K.K.K.K.K.",
"K.K.K.K.K.K.K.K.@ * @ O o o o o o X     X + # * * * * * * # * * * # + o     X o o o o o o + # @ O o o o o o o o K.K.K.K.K.K.K.K.",
"K.K.K.K.K.K.K.K.K.@ * * O o o o o o o X       X o + + @ @ @ + O o .     X X o o o o o o + # # O o o o o o o X K.K.K.K.K.K.K.K.K.",
"K.K.K.K.K.K.K.K.K.K.@ * # + o o o o o o o X                         X o o o o o o o O + * # O o o o o o o o K.K.K.K.K.K.K.K.K.K.",
"K.K.K.K.K.K.K.K.K.K.K.@ # * @ o o o o o o O o o o X X X X X o X o o o o o o o o o o @ * @ o o o o o o o X K.K.K.K.K.K.K.K.K.K.K.",
"K.K.K.K.K.K.K.K.K.K.K.K.@ # * @ o o o o o o o O o o o o o o o o o o o o o o o o @ # # + o o o o o o o K.K.K.K.K.K.K.K.K.K.K.K.K.",
"K.K.K.K.K.K.K.K.K.K.K.K.K.K.@ * * # + o o o o O o o o o o o o o o o o o o O + % * @ o X X X X X X X K.K.K.K.K.K.K.K.K.K.K.K.K.K.",
"K.K.K.K.K.K.K.K.K.K.K.K.K.K.K.@ * * * @ @ o o o o o o o o o o o o o o + @ # * # O X         . . K.K.K.K.K.K.K.K.K.K.K.K.K.K.K.K.",
"K.K.K.K.K.K.K.K.K.K.K.K.K.K.K.K.K.@ @ * * * # @ @ + + + + + + + $ @ # * * @ O X           . K.K.K.K.K.K.K.K.K.K.K.K.K.K.K.K.K.K.",
"K.K.K.K.K.K.K.K.K.K.K.K.K.K.K.K.K.K.K.K.@ # * * * * * * * * * * * # @ + o X             K.K.K.K.K.K.K.K.K.K.K.K.K.K.K.K.K.K.K.K.",
"K.K.K.K.K.K.K.K.K.K.K.K.K.K.K.K.K.K.K.K.K.K.K.+ @ @ # $ @ @ @ + o o               K.K.K.K.K.K.K.K.K.K.K.K.K.K.K.K.K.K.K.K.K.K.K."
};
