/* XPM */
static char *result[] = {
/* columns rows colors chars-per-pixel */
"54 64 179 2 ",
"   c #9F2E19",
".  c #A12F19",
"X  c #A5311A",
"o  c #AD341B",
"O  c #B1371B",
"+  c #B5391C",
"@  c #BB3B1C",
"#  c #C13E1E",
"$  c #B3401B",
"%  c #BD441D",
"&  c #BB4B1C",
"*  c #BC5124",
"=  c #C4401E",
"-  c #CC441F",
";  c #C24D1D",
":  c #CB4B1E",
">  c #D3471F",
",  c #D8471E",
"<  c #D44A1F",
"1  c #DA491F",
"2  c #CB531E",
"3  c #CD5A1E",
"4  c #D3551F",
"5  c #D25C1E",
"6  c #DC5A1E",
"7  c #E64E1F",
"8  c #EE521F",
"9  c #E35D1F",
"0  c #F0521F",
"q  c #D5631F",
"w  c #D5691F",
"e  c #D86B1D",
"r  c #E16A1E",
"t  c #EB621F",
"y  c #F2631F",
"u  c #F36D1F",
"i  c #ED711F",
"p  c #E77C1F",
"a  c #F3741F",
"s  c #CE4F20",
"d  c #D44720",
"f  c #D64920",
"g  c #D94A20",
"h  c #D04C29",
"j  c #D35722",
"k  c #DC5420",
"l  c #D75A20",
"z  c #DC5A21",
"x  c #D7542F",
"c  c #DB542D",
"v  c #D05E2C",
"b  c #DB5C36",
"n  c #E14D21",
"m  c #E55222",
"M  c #EC5323",
"N  c #E35D21",
"B  c #EB5C22",
"V  c #E75A2B",
"C  c #F05523",
"Z  c #F15C23",
"A  c #E15D36",
"S  c #DC6620",
"D  c #DD6921",
"F  c #D9642D",
"G  c #DF7320",
"H  c #DD633F",
"J  c #E56222",
"K  c #EC6322",
"L  c #E26C21",
"P  c #EC6D22",
"I  c #F26523",
"U  c #F36B23",
"Y  c #F36E2D",
"T  c #E47421",
"R  c #EB7422",
"E  c #E77D21",
"W  c #EA7C22",
"Q  c #F37323",
"!  c #F47C23",
"~  c #F3722B",
"^  c #E9673E",
"/  c #EC673A",
"(  c #F16234",
")  c #F37437",
"_  c #F4793A",
"`  c #DF6A49",
"'  c #DC7A5F",
"]  c #E16A47",
"[  c #F3744B",
"{  c #F47843",
"}  c #E17353",
"|  c #E47F63",
" . c #F4861F",
".. c #F68A1F",
"X. c #EC8222",
"o. c #F58323",
"O. c #F68A22",
"+. c #F68D29",
"@. c #F6922E",
"#. c #E18038",
"$. c #F68536",
"%. c #F68D37",
"&. c #F58539",
"*. c #F69635",
"=. c #E38244",
"-. c #F68D40",
";. c #F5834D",
":. c #F68F49",
">. c #F69043",
",. c #F89F44",
"<. c #F7974C",
"1. c #F4835E",
"2. c #F49C53",
"3. c #F79D59",
"4. c #F9A24A",
"5. c #F8A755",
"6. c #F8AB5E",
"7. c #DD9377",
"8. c #E48265",
"9. c #EA8C66",
"0. c #E6886E",
"q. c #F58561",
"w. c #ED9E62",
"e. c #F69566",
"r. c #F79D68",
"t. c #F6936B",
"y. c #E78D74",
"u. c #E8937B",
"i. c #F79D72",
"p. c #F69B7E",
"a. c #F59272",
"s. c #F9AE64",
"d. c #F8AC6C",
"f. c #F9AB73",
"g. c #F7B174",
"h. c #F9B373",
"j. c #FABA7B",
"k. c #EA9E88",
"l. c #E7A688",
"z. c #E2AB8E",
"x. c #F9AC87",
"c. c #F7A489",
"v. c #FABF87",
"b. c #EDAB98",
"n. c #ECA591",
"m. c #F1B69E",
"M. c #FABA9D",
"N. c #DFB5A9",
"B. c #F0B5A4",
"V. c #F5B8A4",
"C. c #F8BEA9",
"Z. c #FAC087",
"A. c #FAC198",
"S. c #FBCB9E",
"D. c #FBCDA8",
"F. c #FAD2AA",
"G. c #FBCCBA",
"H. c #F3C8BC",
"J. c #FCDCBB",
"K. c #FCD6C4",
"L. c #FCDEC0",
"P. c #FCDACF",
"I. c #F7D9D0",
"U. c #FADAD0",
"Y. c #FDE0C2",
"T. c #FDE3C9",
"R. c #FCE2D5",
"E. c #FDE9D4",
"W. c #FEEEDD",
"Q. c #FDE4D8",
"!. c #FBE7E2",
"~. c #FDEBE5",
"^. c #FDEEE8",
"/. c #FEF1E4",
"(. c #FEF3ED",
"). c #FEF4F0",
"_. c #FEF9F4",
"`. c #FFFFFE",
"'. c None",
/* pixels */
"'.'.'.'.'.'.'.'.'.'.'.'.'.'.'.'.'.'.'.z N J K N k f d = d d - - - - = '.'.'.'.'.'.'.'.'.'.'.'.'.'.'.'.'.'.'.",
"'.'.'.'.'.'.'.'.'.'.'.'.'.'.'.'.z B I I I I I I I C M M n g > f g g f , > - '.'.'.'.'.'.'.'.'.'.'.'.'.'.'.'.",
"'.'.'.'.'.'.'.'.'.'.'.'.'.'.N K I I I I I U I I I Z C C C C n g n M M M M M m g '.'.'.'.'.'.'.'.'.'.'.'.'.'.",
"'.'.'.'.'.'.'.'.'.'.'.'.l K I I u Q :.f.%.o.o.! Q U Z C C C C M n n C C C C C M m '.'.'.'.'.'.'.'.'.'.'.'.'.",
"'.'.'.'.'.'.'.'.'.'.'.6 I I I Q 2.F.W.v.+.O.o.o.o.o.! Q I C C C C n g C C C C C C M g '.'.'.'.'.'.'.'.'.'.'.",
"'.'.'.'.'.'.'.'.'.'.N I I U %.D.).Q.r.Q U I U I I I I I U I Z C C C g g M C C M C M M n '.'.'.'.'.'.'.'.'.'.",
"'.'.'.'.'.'.'.'.'.l I I ~ g./.(.M._ K J z j 4 4 l z m M C B Z Z C C m g 1 U Q Q Q Q Q Q L '.'.'.'.'.'.'.'.'.",
"'.'.'.'.'.'.'.'.4 K I Q d.U.D.;.J 3 s * * & & & & & $ + d M C C C C n g k L *.*.*.*.*.*.*.#.'.'.'.'.'.'.'.'.",
"'.'.'.'.'.'.'.4 N I Q o.&._ K 4 & & & v F 9 : l N l ; X . O f C C M n n n g l.E.E.E.E.E.E.R.N.'.'.'.'.'.'.'.",
"'.'.'.'.'.'.'.N K U o.! I K 2 & s z K _ $.! ; D o.o.Q m # X . # M C M n n n b w.s.s.s.s.s.s.4.'.'.'.'.'.'.'.",
"'.'.'.'.'.'.l N U o.! I N ; & 4 K Q <.v.,.p : 5 o.! U I C n @ . + g g n n n n 6  .O.O...O...O.W '.'.'.'.'.'.",
"'.'.'.'.'.- z B ! ! I N ; & 9 U %.S.W.F.4.e 6 - K I Z C C C M # . O - f g n n g L O.O.O.o.O.O.o.D '.'.'.'.'.",
"'.'.'.'.'.< N R ! U K ; ; J U f.W.(.j.s.2.4 B - z I Z C M C C C - . o d - g n n > B I Z Z Z Z I B '.'.'.'.'.",
"'.'.'.'.- f N ! U K 2 & 9 ~ A._.J.5.O.f.9.5 Z g s I C C C C C C M - . @ - d g n d , C C C C C C M g '.'.'.'.",
"'.'.'.'.< 1 J Q I j & 6 ;.D.Y.h.@. .u x.7.r Z n = K C C C C C C C M @ . # - d g f d m C C C C C C M '.'.'.'.",
"'.'.'.- g 1 P I J & 4 U 3.6.@...o.U I M.z.i Z m = m C C C C C C C C g o X - d d g - d g n n n n n n > '.'.'.",
"'.'.'.> g g B K 2 ; K Q O.O.O.o.U I I G.F.Q C n g > C C C C C C C C n d . @ # d g > # d g f g , g g > '.'.'.",
"'.'.= f g m C g & z U O.O.O.! U I I Y U.T.~ C M n # M C C C C C C M n g O X # d d g # d g g f g g g f # '.'.",
"'.'.- f f m M O % K o.O.O.o.U I I I { ^.^.{ C m n # n C C C C C C M n n -   @ d - - # > f g g f g g g - '.'.",
"'.'.> f f B - X s Q O.O.O.U I I I y f.`.`.a.0 m n g d C C C C C C m g n f o X # > - > # d f f g f f g > '.'.",
"'.'.- > f m + o B ! O.O.Q I I I 8 ) K.`.`.P.[ m 1 7 # C C C C C M n n n n # . + - d - # - g g g g f f f '.'.",
"'.= - = g < X @ U O.O.! I I U ) r.K.`.`.`.`.~.V.| ] h m C C C C M n n n g d . X # - d # - g g f g g g f - '.",
"'.= - = 1 = X g ! O.o.K ] 9.m.Q.`.`.`.`.`.`.`.`._.U.b.' c g n n n g g n n g O . + d - # # g g f , f g g - '.",
"'.- - = f O X : q v 2 < j F =.h.J._.`.`.`.`.).C.0.] / n f - - # # # # # # # @ . o = - # # f f g f g g f , '.",
"'.- = @ - X @ < 3 W o.o.O.! ! a Q t.!.`.`.^.q.M , , n M M m n n g g , - @ + # . o # = = # d f g , g g f g '.",
"@ d = @ @ . = ! w G ! K Z C C C C C c.`.`.C.C n g f g 1 g g 1 g g g - # + f f o X + = = @ d g f f g f g g # ",
"@ d @ @ @ . g o.o.2 T I M M C C C C [ ).`.p.0 n f g g g g f f g f - @ + > n g O X O # = d d d f g f f g g - ",
"= d @ @ + . z O.! M 2 R B g M C C C ( Q._.| 0 g g 1 g g f g g g - # + - n n g + X o @ = @ = f f g g f f , - ",
"= - @ @ o X z O.U C m 2 R m g g n M M G.).[ n g g f g , f g , - @ @ d g n n n @ . o @ = # # , , f f f d f - ",
"= d + @ o X l W B C C n 5 P n g g g , m.!.A g g f g g f f f # + + @ g n n g n # . o + # # @ # # # # # # @ @ ",
"= - + + o X l T m M M C 1 q P n , g , k.I.c f g 1 g f g f # + + @ g n n n n g # . o @ # # # + @ @ @ + @ @ @ ",
"= - + + o X l L m n M M C < q B g f , y.H.g g f f g g > # o + + g n n n n g g @ . X O # # @ @ @ @ @ @ @ @ + ",
"# - + O X o : L n n n n m M : S M , , | B.g f g g f , # o O + , n n n n n f > @ . o O # # @ @ @ @ @ @ @ @ + ",
"# - @ O o . s k n n n n n n g : J 7 , } n., g f f g f @ X + - n n n n n g d d @ . X O @ # @ + @ @ @ @ @ # + ",
"- - @ o o . d j n n n n n n n > 3 B # ] u.f g g g g g # o # n n n n n g , < d + . o o # # @ @ @ @ @ @ @ @ O ",
"# - @ + o . @ s g n g n n n n > e C 7 ` | d f g g f g # o @ g n g n g f d > - + . o O # # # @ @ @ @ @ @ # + ",
"@ d @ o o . d d g n n n n n n : P C M b ] f g g f g g # O O , n g g d > > < - O . o O # # @ @ @ @ @ + # + + ",
"@ # @ O O . + d g n n n n n g 2 Q M M c ` , f - > f g - + O - n g > > > d - = o . o o # # + @ @ @ @ @ + # + ",
"+ = @ o O . O = d g g n n n d S U C M g c g # # # - , - + O @ , < < > > < - # X X o o # # @ @ @ @ @ @ @ + + ",
"'.= # o o X o d d f n n n g : T Z C m g g , # # # # # # # O + > d , d , > - @ X o o O # # @ @ @ @ @ @ @ + '.",
"'.# + o o X X d @ d d g g n 2 W Z M g f f # o + # # # # # O + # > > > > d @ + . o o + d # + @ @ @ @ @ @ @ '.",
"'.@ d + o o   + d d d f n g j ! C M f d = o X X o @ # # # + + # > d > > d # o   o o + @ + @ @ @ @ @ @ @ + '.",
"'.@ d + o o   o d d d d n d G Q M g g d + + d # O o @ # # + + + > > > - % @ X X o O @ d @ @ @ @ @ + @ @ + '.",
"'.'.@ @ o o X X @ @ @ d d s X.P M g f @ @ , g f # O X O # @ + + - > - = d +   o o O % + + @ @ @ @ @ @ @ '.'.",
"'.'.# # + o o   + d @ @ @ 2 O.K n > @ % d > > > > - + o o @ O @ @ - = = = X X o o + = @ O O O o o O O o '.'.",
"'.'.@ # + o o X X % @ d @ S O.M - @ = > d > d > > > > @ O o o @ + = = = @ X X o O @ # O o o o o o o O X '.'.",
"'.'.+ # @ O o X . + d @ @ E ! - @ - > > > > > > > > - d = O o @ + = = = o . o o O @ @ o o o o o o o o '.'.'.",
"'.'.'.@ h $ o o   . + d ; T : @ # # - d - > > > > > d d - # O @ + @ = +   X o o + h + o o o o o o o o '.'.'.",
"'.'.'.@ d o o o X X o % % % # # = = = = = = = d # = d @ = = # + o + # X X o o o # # O o o o o o o o o '.'.'.",
"'.'.'.'.@ + O o o X . o O # @ h = = # = = = = = # = # # = = = = # o o . o o o + # # o o o o o o o o '.'.'.'.",
"'.'.'.'.@ d + o o o X . @ = # # = = = = = = = = # @ d @ = = h # # o . X o o o # # o o o o o o o O X '.'.'.'.",
"'.'.'.'.'.+ d O o o o . . @ = = = # = = = = = = d d # # # # @ # O . X o o o + # # o o o o o o o o '.'.'.'.'.",
"'.'.'.'.'.@ # + o o O X . X + # h @ # = # % @ @ @ @ = = = = # O . X o o o O # # o o o o o O o o X '.'.'.'.'.",
"'.'.'.'.'.'.+ d O o o o o   . O # # # = # @ d d @ d = = = @ o . X o o o o + # O X o o o o o o o '.'.'.'.'.'.",
"'.'.'.'.'.'.'.@ h X o o o o X   X + # # = = h @ d % # @ O . . . o o o o o # # o o o o o o o o '.'.'.'.'.'.'.",
"'.'.'.'.'.'.'.@ # @ O o o o O X     X o O @ @ @ o o X . . . o o o o o O # # o o o o o o o O X '.'.'.'.'.'.'.",
"'.'.'.'.'.'.'.'.@ # @ o o o o O o X . . . . . .     X X o o o o o o O @ # O o o o O o o o X '.'.'.'.'.'.'.'.",
"'.'.'.'.'.'.'.'.'.@ @ + o o o o o o o X X X X X X X o o o o o o o O # # O o o o o o o o o '.'.'.'.'.'.'.'.'.",
"'.'.'.'.'.'.'.'.'.'.@ h @ O o o O o o o o o o o o o o o o o o o O # # O o o o o O o O X '.'.'.'.'.'.'.'.'.'.",
"'.'.'.'.'.'.'.'.'.'.'.@ d # @ O o o o o o o O o o o o o o o O @ # # o . X X X X X X X '.'.'.'.'.'.'.'.'.'.'.",
"'.'.'.'.'.'.'.'.'.'.'.'.'.@ d @ O o o O o o O o o O o O O @ # # + X     .       . '.'.'.'.'.'.'.'.'.'.'.'.'.",
"'.'.'.'.'.'.'.'.'.'.'.'.'.'.@ @ d = @ @ + O O O $ + @ @ # = @ o .               '.'.'.'.'.'.'.'.'.'.'.'.'.'.",
"'.'.'.'.'.'.'.'.'.'.'.'.'.'.'.'.@ @ # # h @ d @ = # h + @ X .       .   . . '.'.'.'.'.'.'.'.'.'.'.'.'.'.'.'.",
"'.'.'.'.'.'.'.'.'.'.'.'.'.'.'.'.'.'.'.+ @ @ @ @ @ + o .     .       . '.'.'.'.'.'.'.'.'.'.'.'.'.'.'.'.'.'.'."
};
