/* XPM */
static char *result[] = {
/* columns rows colors chars-per-pixel */
"46 64 123 2 ",
"   c #9F2E19",
".  c #A12F19",
"X  c #A5311A",
"o  c #AC341A",
"O  c #B1371B",
"+  c #B5391C",
"@  c #BB3B1C",
"#  c #C23E1E",
"$  c #B6461C",
"%  c #BB411D",
"&  c #BB4B1C",
"*  c #C5401E",
"=  c #CC431F",
"-  c #C24E1D",
";  c #CC4B1F",
":  c #D2471F",
">  c #D24B1F",
",  c #DB4B1F",
"<  c #C6511E",
"1  c #CC541E",
"2  c #CA591E",
"3  c #D2551F",
"4  c #D15A1F",
"5  c #DB5A1F",
"6  c #F0541F",
"7  c #D4611F",
"8  c #E0691F",
"9  c #E5721E",
"0  c #E97E1F",
"q  c #D44720",
"w  c #D64820",
"e  c #D94A20",
"r  c #CE5C24",
"t  c #D55520",
"y  c #DC5421",
"u  c #D65920",
"i  c #DC5B21",
"p  c #DA5329",
"a  c #E14D21",
"s  c #E55122",
"d  c #EB5322",
"f  c #E45D21",
"g  c #EA5A22",
"h  c #E8572A",
"j  c #F05523",
"k  c #F15D23",
"l  c #D76020",
"z  c #DB6520",
"x  c #DC6B21",
"c  c #DE7020",
"v  c #D87839",
"b  c #E66322",
"n  c #EC6322",
"m  c #E26B21",
"M  c #EC6C22",
"N  c #F26523",
"B  c #F36B23",
"V  c #F1622E",
"C  c #F36E2E",
"Z  c #E27121",
"A  c #EC7122",
"S  c #EA7923",
"D  c #F37323",
"F  c #F47D23",
"G  c #F4752B",
"H  c #EC6D31",
"J  c #F26233",
"K  c #F36F31",
"L  c #F37031",
"P  c #F1763B",
"I  c #F47A3C",
"U  c #DC6C42",
"Y  c #E27946",
"T  c #F3754C",
"R  c #F37A4F",
"E  c #EC7956",
"W  c #EF8421",
"Q  c #F58423",
"!  c #F68B22",
"~  c #F5872B",
"^  c #F6912C",
"/  c #E1813A",
"(  c #F58331",
")  c #F5843B",
"_  c #F68C3D",
"`  c #F69636",
"'  c #F68D46",
"]  c #F7964D",
"[  c #F68F5D",
"{  c #F8A552",
"}  c #F8AA5E",
"|  c #F8A363",
" . c #F5A962",
".. c #F9AD62",
"X. c #F8A669",
"o. c #FAB36C",
"O. c #F8A676",
"+. c #F9B674",
"@. c #F9B57B",
"#. c #FABA7A",
"$. c #E8A184",
"%. c #F8AE8A",
"&. c #FABF88",
"*. c #FABC9C",
"=. c #EDBCA2",
"-. c #F9BAA6",
";. c #FAC28A",
":. c #FAC49D",
">. c #FACBA6",
",. c #FAC6AC",
"<. c #FBCABA",
"1. c #FCD9B6",
"2. c #F2D7C6",
"3. c #FCDAC1",
"4. c #FDE0C2",
"5. c #FDE1D4",
"6. c #FDE9D5",
"7. c #FEECD9",
"8. c #FEF1E4",
"9. c #FEF0E9",
"0. c #FEF9F4",
"q. c #FFFEFE",
"w. c None",
/* pixels */
"w.w.w.w.w.w.w.w.w.w.w.w.w.w.w.i f f b e q = # q q : = = q = # # w.w.w.w.w.w.w.w.w.w.w.w.w.w.",
"w.w.w.w.w.w.w.w.w.w.w.w.w.b n N N N N N d d a w e a a a s a s s d e w.w.w.w.w.w.w.w.w.w.w.w.",
"w.w.w.w.w.w.w.w.w.w.w.f N B N N N N N N k j j d a d j j j j j j j j a w.w.w.w.w.w.w.w.w.w.w.",
"w.w.w.w.w.w.w.w.w.w.f N N B ' X.~ Q F D N j j j j a a j k d j j j j d a w.w.w.w.w.w.w.w.w.w.",
"w.w.w.w.w.w.w.w.w.n N N ( &.6.+.! Q Q Q Q D k j j j e a j j j j j j j j a w.w.w.w.w.w.w.w.w.",
"w.w.w.w.w.w.w.w.f N B ] 4.9.O.D B B N N N k B N j j d e d j j j j j j j j a w.w.w.w.w.w.w.w.",
"w.w.w.w.w.w.w.u N B | 8.5.[ n f u 1 t t f d j k k j d a e M D D D D D D D D m w.w.w.w.w.w.w.",
"w.w.w.w.w.w.1 n N _ 1.*.P 5 - & & & $ & $ O q j j j d a e m ` ` ` ` ` ` ` ` ` v w.w.w.w.w.w.",
"w.w.w.w.w.w.i N F ~ I k 3 & - 3 i t u z 1 o . @ d j d a a p =.6.6.6.6.6.6.6.6.2.w.w.w.w.w.w.",
"w.w.w.w.w.t f D Q B 8 < & 3 8 B F 2 7 Q F f # . + a j a a e U  ...........} ..} / w.w.w.w.w.",
"w.w.w.w.w.i M F D n - & f B ] } W < 2 F D N j q X + e a e a e M ! ! ! ! ! ! ! ! Q w.w.w.w.w.",
"w.w.w.w.q f D F N r - f D @.6.o.W q ; n N j j j e . + q e a a y Q Q ! Q Q ! Q ! ! Z w.w.w.w.",
"w.w.w.w.w b F B 5 & i G :.0.;.! x y q f N j j j j q . @ : e a q y 6 k k k k k k g g w.w.w.w.",
"w.w.w.= , M D n < 3 C >.8.#.! D t f w t k j j j j d # X * : a e > j j j j j j d j j e w.w.w.",
"w.w.w.: e A B 3 - H *.1.{ ! D N u n e ; k j j j j j a o + : e e : s j j j j j j j j s w.w.w.",
"w.w.w.q y B n - 5 ) } ^ Q D N f i N a * d j j j j j j # X * : e : : s a a a s a a a a w.w.w.",
"w.w.= e s N 3 - n Q ! ! F N N i m k a = a j j j j j j e o + : q e # : e e q e q e w w = w.w.",
"w.w.= w s s & 5 F ! ! F N N N Y S j d : w j j j j j d a @ o * : , # : e : e e e : e e = w.w.",
"w.w.q w s q + M Q ! Q B N N K >.) j d e = d j j j j a a : X # = # q : e e e q e e e w w w.w.",
"w.* w w g + @ B ! ! D N B K %.0.,.T h e = d j j j j a a e o o = : = # e e e , e e e e e * w.",
"w.* : w e o q F ! Q N N L %.0.q.q.<.E a : a j j j j a a a # . # = = * e e e e w e e e e = w.",
"w.* = w ; o f ! Q B N N N L $.0.-.J d e e w j j j d a a a # X + = = # q : e e e e : e e : w.",
"w.= * : @ + D ! A d f y t t r >.R d s e a = : w a a e a a e X O * = # : e e : e e e w e : w.",
"w.= * : o + 1 r 1 t u x x S F ] V j d e a a : = # # # # # # O o * * # = e e e w e e e : e w.",
"@ = @ * X * 2 S Q Q Q F D B N k j j s e a d d d a e e # # + + X @ * # * e e e e e e e e q # ",
"# = @ @ X f c x D k j j j j j j j j a e e : e e , e a # + e # X + * * * e e q e e e : e e # ",
"* = @ @ o b ! 2 M g d j j j j j j j a e e e e : e , # # # a # X O # * * e e e e : e e , e : ",
"* = @ + o M Q d 1 M a d j j j j j j a e e e e e e # @ # a a e X o @ * * q q e e e e e , e # ",
"* * @ + o Z F j e z g e e d d j d s e e w e e e # # @ # d a e X o @ # # q q e q : : : : : = ",
"* * + o + m M d d 1 m y w e e e a e w e e : a # @ @ # a a a e o X + # # @ # # # # # # # # @ ",
"* * + o o m f d j a t n e e w e e e e e e e : @ O # a a a a , o X + # # @ @ + @ @ @ @ @ @ + ",
"* * + o o x s a d j e l s e e w e e e w e q @ O + # a a a a # O X + # # + @ @ @ @ @ @ @ @ + ",
"* * o o o l s e a a d ; b e e e e e : e , # o O * a a a p w q o X + * # + @ @ @ + @ @ @ @ + ",
"* * + o o u s s a a a : 2 s e e e e e e e # o @ e a a a e q = o X + * @ @ @ @ + @ @ @ @ @ + ",
"* * + o o q s e a a a a * b e e e : e e e # o = a a a e w w = X X O # @ @ @ @ @ @ @ @ @ @ O ",
"* * o o o ; e a e a a e ; n a w e e e e : = o # a a e w q q * X o + # @ + @ @ @ @ @ @ @ @ O ",
"% * + o X = w a a a a e 1 N d w e e w e e = O @ a e e w q q # X o O # @ @ @ @ @ @ @ @ @ @ + ",
"@ * + o X * q e a a a w i k d , e w : : e = + O e e q w q q % X o O # @ @ @ @ @ @ @ @ @ @ + ",
"+ * + o X * = e s e a = m k s e , # # # = : + o = : q q q = + X o O # @ @ + @ @ @ @ @ + @ + ",
"+ * + o X @ = w a a a ; M j s e : # @ # # = @ O # : : q q = + X O + # @ @ @ @ @ @ @ @ @ @ O ",
"w.* + O X + = ; e a e 2 M j a e # @ O # # # @ O + q q q q * o X o + # @ @ @ + @ @ # + # @ w.",
"w.* @ o X o = = w a e l B d e w @ o X O # # # O + q q q * # X X o @ # @ @ @ @ @ @ + # + + w.",
"w.@ # o o . # = ; , > 7 N a e # O # # O o # # O + * q q * % X o o # @ + @ @ @ # # + + # @ w.",
"w.@ * o o X + # * = ; S N a q + # , , # o o # @ + # q * * + X o O # @ @ @ @ + @ O # + + # w.",
"w.w.* + o . o * # # - F 6 : # # : : : : # o o @ + @ = * * X X o + # O O o O o o o o o o w.w.",
"w.w.# + o o X % = # 2 F a # # : : : : : : # o o + + # * % X o o @ # O o o o o o o o o o w.w.",
"w.w.# # o o X o # @ 7 9 @ # : : : , : : : : # o + + # * O X o o # @ o o o o o o o o o o w.w.",
"w.w.+ * + o X X # - 8 * # # : # : : : : : : # # O + @ # X X o + # + o o o o o o o o o o w.w.",
"w.w.w.* + o o X + + % % # * * # * * * * * * * * + o + O X o o + # O O o o o o o o o O w.w.w.",
"w.w.w.# # o o X X o % * * * * * * # * * * * * * * @ o X X O o # @ o o o o o o o o o o w.w.w.",
"w.w.w.@ # O o o   o # * * * * * * * * * * * * # * * o   o o + # O o o o O o o o o o o w.w.w.",
"w.w.w.w.# @ o o o   O * # * * # * * * * * * * * * o   o o o + # o o o o o o o o o o w.w.w.w.",
"w.w.w.w.@ * o o o X   + * * * * * * * * * * * * +   X o o O # + o o o o o o o o o o w.w.w.w.",
"w.w.w.w.w.# @ o o o X   O # * * * * * * * * % O   X o O O + # o o o o o o o o o o w.w.w.w.w.",
"w.w.w.w.w.@ * O o o o X   o @ # * * * * * % o   X o o o O # + o o o o o o o o o o w.w.w.w.w.",
"w.w.w.w.w.w.# % o o o o X   X o O + + O o .   X o o o o + % o o o o o o o o o o w.w.w.w.w.w.",
"w.w.w.w.w.w.w.# @ o o o o o X   X       X X o o o o o + # O o o o o o o o o o o w.w.w.w.w.w.",
"w.w.w.w.w.w.w.# # @ o o o o o o X X X X o o o o o o O # + o o o o o o o O O o w.w.w.w.w.w.w.",
"w.w.w.w.w.w.w.w.@ # @ o O o o o o o O o o o o o o + # @ o o o o o o o o o o w.w.w.w.w.w.w.w.",
"w.w.w.w.w.w.w.w.w.# # @ O o o o O o o o o o o O @ # @ o o o o o o o o o O O w.w.w.w.w.w.w.w.",
"w.w.w.w.w.w.w.w.w.w.@ * % + O O o o o o o o + @ # + o o o o o o o o o o X w.w.w.w.w.w.w.w.w.",
"w.w.w.w.w.w.w.w.w.w.w.@ # # # + + O + + @ # # # o .   . . . X X o . o o w.w.w.w.w.w.w.w.w.w.",
"w.w.w.w.w.w.w.w.w.w.w.w.w.% # # * * * # # # O X                     . w.w.w.w.w.w.w.w.w.w.w.",
"w.w.w.w.w.w.w.w.w.w.w.w.w.w.w.+ @ @ @ @ o X                     w.w.w.w.w.w.w.w.w.w.w.w.w.w."
};
