/* XPM */
static char *result[] = {
/* columns rows colors chars-per-pixel */
"10 64 84 1 ",
"  c #9F2E19",
". c #A43019",
"X c #A53119",
"o c #A6311A",
"O c #A7311A",
"+ c #A7321A",
"@ c #A8321A",
"# c #A9321A",
"$ c #AA331A",
"% c #AB331A",
"& c #AC341A",
"* c #AD341A",
"= c #AE341A",
"- c #B0361A",
"; c #B0361B",
": c #B6391B",
"> c #B7391C",
", c #BA3B1C",
"< c #BB3B1C",
"1 c #BD3C1C",
"2 c #BE3C1C",
"3 c #C23E1D",
"4 c #C23F1D",
"5 c #CA421E",
"6 c #CC431F",
"7 c #CD441F",
"8 c #CE441F",
"9 c #CE451F",
"0 c #CF451F",
"q c #D0451F",
"w c #D4471F",
"e c #DE711E",
"r c #DF721E",
"t c #D44720",
"y c #D44820",
"u c #D54820",
"i c #D74820",
"p c #D74920",
"a c #D84920",
"s c #D94920",
"d c #DD4B21",
"f c #DD4C21",
"g c #DE4C21",
"h c #DF4D21",
"j c #DD5321",
"k c #E34F21",
"l c #E44F21",
"z c #E95122",
"x c #E95222",
"c c #EB5322",
"v c #EC5322",
"b c #EC5323",
"n c #ED5323",
"m c #EF5423",
"M c #F05423",
"N c #F05523",
"B c #F15523",
"V c #F05F23",
"C c #F15F23",
"Z c #DF7020",
"A c #F06E22",
"S c #F06F22",
"D c #E07120",
"F c #F37022",
"G c #F37122",
"H c #F37222",
"J c #F5891F",
"K c #F68A1F",
"L c #F58723",
"P c #F68823",
"I c #F49232",
"U c #F79532",
"Y c #DF8A50",
"T c #DF8B51",
"R c #F7AE68",
"E c #F7AF68",
"W c #F9B16A",
"Q c #E0AF9A",
"! c #E1B19C",
"~ c #FBE3CD",
"^ c #FBE3CE",
"/ c #FDE7D2",
"( c #FDE8D2",
") c None",
/* pixels */
")58888885)",
")wsssssst)",
")kxzzzzxl)",
")cBNNNNBv)",
")vNNNNNNb)",
")bMMMMMMn)",
")AFFFGHHS)",
")IUUUUUUI)",
"Q~(/////^!",
"YRWWWWWWET",
"eJKKKKKKJr",
"ZLPPPPPPLD",
"jVCCCCCCCj",
"dmMMMMMMMf",
"gNNNNNNNNh",
"ykkkkkkkku",
"6aaaaaaaa7",
"7aaaaaaaa7",
"7aaaaaaaa8",
"8aaaaaaaa8",
"8aaaaaaaa0",
"9aaaaaaaa0",
"0aaaaaaaa0",
"0aaaaaaaaq",
"0aaaaaaaaq",
"qaaaaaaaaq",
"qaaaaaaaaq",
"qaaaaaaaaq",
"0piiiiiip0",
"1433333342",
"><<<<<<<<>",
"><<<<<<<<>",
"><<<<<<<<>",
"><<<<<<<<>",
"><<<<<<<<>",
"><<<<<<<<>",
"><<<<<<<<>",
"><<<<<<<<>",
"><<<<<<<<>",
"><<<<<<<<>",
"><<<<<<<<>",
"><<<<<<<<>",
"><<<<<<<<>",
":,,,,,,,,:",
"*;------;=",
"$********%",
"$********%",
"$********%",
"$********$",
"$********$",
"$********$",
"$********$",
"$********$",
"#********$",
"#********#",
"#********#",
"#********#",
")********)",
")&*******)",
").XXoO+@@)",
")        )",
")        )",
")        )",
")        )"
};
