/* XPM */
static char *result[] = {
/* columns rows colors chars-per-pixel */
"46 64 169 2 ",
"   c #9F2E19",
".  c #A12F19",
"X  c #A5311A",
"o  c #AC341A",
"O  c #B1371B",
"+  c #B5391C",
"@  c #BB3B1C",
"#  c #C13E1E",
"$  c #B6461C",
"%  c #BC441D",
"&  c #BC4B1C",
"*  c #BB4E20",
"=  c #BC5227",
"-  c #C4401E",
";  c #CC431F",
":  c #C24E1D",
">  c #CB4A1E",
",  c #D2461F",
"<  c #D9471D",
"1  c #D24B1F",
"2  c #D9481E",
"3  c #C5511D",
"4  c #CC531E",
"5  c #CD591F",
"6  c #D2551F",
"7  c #D25B1F",
"8  c #DC5A1F",
"9  c #D9551E",
"0  c #E04B1E",
"q  c #EA4F1F",
"w  c #EC511F",
"e  c #F0511E",
"r  c #D4631F",
"t  c #D56A1F",
"y  c #EA621F",
"u  c #E16A1F",
"i  c #F36F1F",
"p  c #F2631F",
"a  c #E6741E",
"s  c #C84320",
"d  c #CF4A27",
"f  c #D44720",
"g  c #D64820",
"h  c #D94A20",
"j  c #CE5421",
"k  c #D55520",
"l  c #DD5222",
"z  c #D35B24",
"x  c #DD5C20",
"c  c #DA532C",
"v  c #DB5731",
"b  c #DD5A34",
"n  c #DD5F3A",
"m  c #E14D21",
"M  c #E55222",
"N  c #EB5322",
"B  c #E45D21",
"V  c #EB5C23",
"C  c #E85B2F",
"Z  c #F05523",
"A  c #F15D23",
"S  c #F15A28",
"D  c #DD6322",
"F  c #D86E38",
"G  c #DD613D",
"H  c #DA7938",
"J  c #E76322",
"K  c #EB6322",
"L  c #E26C21",
"P  c #EC6C22",
"I  c #F26523",
"U  c #F36B23",
"Y  c #F36C2B",
"T  c #E47521",
"R  c #EC7222",
"E  c #EE7C22",
"W  c #F37323",
"Q  c #F47C23",
"!  c #F4752B",
"~  c #E76C33",
"^  c #F26332",
"/  c #F37639",
"(  c #DE6744",
")  c #DE6846",
"_  c #DD6A49",
"`  c #DF7540",
"'  c #F36E43",
"]  c #EE724A",
"[  c #E2785A",
"{  c #E37656",
"}  c #F58423",
"|  c #F68A22",
" . c #F5872B",
".. c #F6912C",
"X. c #E2833C",
"o. c #F58331",
"O. c #F3813A",
"+. c #F68D3E",
"@. c #F79636",
"#. c #F68E47",
"$. c #F88F40",
"%. c #F4824E",
"&. c #F89F47",
"*. c #F7954D",
"=. c #EC825D",
"-. c #F4805B",
";. c #F68E5D",
":. c #EE9B5E",
">. c #F6A24D",
",. c #F8A552",
"<. c #F0A15A",
"1. c #F8AA5E",
"2. c #E0866D",
"3. c #E98B6F",
"4. c #F58865",
"5. c #F08B6B",
"6. c #E69A6E",
"7. c #E68B71",
"8. c #ED9074",
"9. c #E89279",
"0. c #F79C72",
"q. c #F0977B",
"w. c #F5A962",
"e. c #F9AD62",
"r. c #F8A669",
"t. c #F8A364",
"y. c #F9B26E",
"u. c #F8A575",
"i. c #F9B778",
"p. c #DE9D83",
"a. c #EA9E89",
"s. c #F7A58B",
"d. c #F8AE8A",
"f. c #FABF83",
"g. c #FABF88",
"h. c #EEAB92",
"j. c #EDBB9E",
"k. c #FABC9C",
"l. c #EFB5A4",
"z. c #F9B7A2",
"x. c #FABEA6",
"c. c #FAC187",
"v. c #FBC79B",
"b. c #FBCBA3",
"n. c #FAC2AB",
"m. c #F3C6B9",
"M. c #F5C8BB",
"N. c #F6C7B4",
"B. c #FCD9B6",
"V. c #FBD8BA",
"C. c #FBD3C7",
"Z. c #F3D8C8",
"A. c #FBDBCC",
"S. c #FCDBC1",
"D. c #F7D8D0",
"F. c #FCDDD3",
"G. c #FDE0C2",
"H. c #FDE3D4",
"J. c #FDE9D5",
"K. c #FEEBD8",
"L. c #F9E2DB",
"P. c #FEEFEB",
"I. c #FAE9E4",
"U. c #FEF1E4",
"Y. c #FEF2EB",
"T. c #FDF7F4",
"R. c #FFF9F4",
"E. c #FFFFFE",
"W. c None",
/* pixels */
"W.W.W.W.W.W.W.W.W.W.W.W.W.W.- - s s f f ; , , ; > k x B J h h W.W.W.W.W.W.W.W.W.W.W.W.W.W.W.",
"W.W.W.W.W.W.W.W.W.W.W.W.h M N M N m m m m h h B I I I I I A Z N m W.W.W.W.W.W.W.W.W.W.W.W.W.",
"W.W.W.W.W.W.W.W.W.W.W.m N Z Z Z Z Z Z N N B K I I I U I U I Z Z Z N h W.W.W.W.W.W.W.W.W.W.W.",
"W.W.W.W.W.W.W.W.W.W.m Z Z Z Z Z Z Z Z N B I I W #.r. .} Q W I Z Z Z Z m W.W.W.W.W.W.W.W.W.W.",
"W.W.W.W.W.W.W.W.W.q Z Z Z Z Z Z Z Z M J I U o.c.J.y.| } } Q Q W I Z Z Z m W.W.W.W.W.W.W.W.W.",
"W.W.W.W.W.W.W.W.m Z Z Z Z Z Z Z N N J I i *.G.Y.u.W U U I U I I U I Z Z M g W.W.W.W.W.W.W.W.",
"W.W.W.W.W.W.W.u W W W W W W W W P x I I t.U.H.;.I B z k k z B M Z A A Z M m , W.W.W.W.W.W.W.",
"W.W.W.W.W.W.H @.@.@.@.@.@.@.@.@.L J I +.V.k./ 9 : * = * * $ $ O g N Z Z N m m - W.W.W.W.W.W.",
"W.W.W.W.W.W.Z.J.J.J.J.J.J.J.J.j.D I W  ./ K 4 & * z ~ 6 6 J > o . @ M Z N m m h W.W.W.W.W.W.",
"W.W.W.W.W.X.1.e.e.e.e.e.e.e.w.` J U } U J j & 6 y ! +.7 5 } Q B # . + N N m m m , W.W.W.W.W.",
"W.W.W.W.W.} | | | | | | | | a 8 K } W K j & x U *.y.&.4 : Q W I N g . + h m m m h W.W.W.W.W.",
"W.W.W.W.T | } } | | | } } } x B W Q I 6 & x ! i.K.c.<.6 d J I Z Z Z h . + , h m m s W.W.W.W.",
"W.W.W.W.V A A A A A A A V B 1 J Q U 8 & x ! v.R.c.&.6.9 g x I Z Z Z Z f . @ , h m h W.W.W.W.",
"W.W.W.h Z Z Z Z Z Z Z Z N 2 2 P W J : 6 Y b.U.i.| *.p.w h 1 A Z Z Z Z N # X ; , h h # W.W.W.",
"W.W.W.M Z Z Z Z Z Z Z Z M , h R U 6 : / v.V.,.| i 4.v.J m ; V Z Z Z Z Z m o @ s h h ; W.W.W.",
"W.W.W.m m m m m m m m m h 1 l U J 3 9 / 1...| W y 0.V.J N - M Z Z Z Z Z Z # . s , h , W.W.W.",
"W.W.- h h h h h g h h h ; h M A 7 : P } | | W I I d.H.^ w ; h Z Z Z Z Z N h o @ ; g g # W.W.",
"W.W.; h 2 h h g h g , , , h M M : x ! | | Q U I U n.P.' M 1 , Z Z Z Z Z N h @ o - ; , - W.W.",
"W.W.g h g h 2 g h h h , f g M , O K | | | U I I Y A.E.4.q h ; N Z Z Z Z N m , . # f s ; W.W.",
"W.- g h h g h h g 2 h ; f g M @ @ W | | U I I I %.Y.E.z.N 0 ; N Z Z Z Z m m h O o - , s @ W.",
"W.# h h h h h h 1 h g ; , g h X f Q | } I p p Y z.E.E.Y.5.m , g Z Z Z Z m m m # . # f - @ W.",
"W., h h , h h , h h , - ; h ; o B | | P Y / ;.n.E.E.E.E.T.m.9._ ^ S Z N m m m - X @ , s # W.",
"W., h , g h h h h g ; ; - g @ + ! ..O.=.h.A.R.E.E.E.E.E.E.E.E.F.l.2.n h h m h h o O - ; # W.",
"W.h g h h g h 2 h h ; ; - ; o @ 7 z j z F :.b.Y.E.E.E.E.T.m.8.] b d s - # # # @ o o # - * W.",
"- h h h h h f h < f ; ; @ ; X > 3 T | } Q Q W ] A.E.E.R.q.h h N N N m h h , # @ + X @ - - W.",
"- h h 2 f h h h h h # ; @ @ X 8 T t W A A Z Z e -.R.E.F.C < h h h h h h h # @ ; - X + - - @ ",
"; , g h h h f h h h # f @ @ X J | 7 L V N Z Z Z ^ F.E.x.N g h h h h h h # @ # h s X o s - @ ",
"; h g h h < h f h h # # @ + o R } N 4 P m M Z Z Z n.E.s.< h 2 h h h g s # @ h m f X o @ - @ ",
"; h , , < g , < h , , # # + O R W Z h D B h h M N s.E.5.2 h h , h h ; @ @ ; m m g o X @ - @ ",
"@ # # @ # # # # # # # # + O O L U Z Z , L M g h 2 3.T.{ , h h g h , @ + # m m m h X X @ - @ ",
"+ @ @ @ @ @ @ + @ + # # + o O J B N N N 4 K h h , [ I.) 2 h h h , @ + @ 2 m m m f o X + - @ ",
"@ @ @ @ @ @ @ @ @ @ # # + o o r B m N Z h 7 V g 2 ) D.n 2 2 h f # O + ; m m m h f o X + - # ",
"+ @ @ @ @ @ @ @ @ @ - - O o o 8 M m m M N > D h f G m.v 2 h h , o O # m m m m 2 s o X O - @ ",
"+ + @ @ @ @ + + @ + - - O o o z M m m h M 2 > B h v l.v , h 2 # X @ h m m m h , d o X + - # ",
"+ # @ @ @ @ @ @ @ + - - O o o > h M m m h m ; B h v a.h h h h # o # m m m m , , s X X O - @ ",
"+ @ @ @ @ @ @ @ @ @ - - O o o f h h m m m m > J m c 7.h h h h ; O @ m m m h , , s X o O # @ ",
"+ @ @ @ @ @ @ @ @ + # - + o X - h M m m h m 4 K e c { h 2 2 h ; O + h m h , , , - X X O - @ ",
"O # @ @ @ @ @ @ @ @ @ # + o X - g h m h m h 7 A Z h ) h , , g , @ O h h , , , , @ X o + - @ ",
"O + @ + @ @ @ @ @ @ + # O O . # ; h m m m f D Z N h v f # # ; , @ o # 2 g 2 , ; @ X o O - + ",
"O @ @ @ @ @ @ @ @ @ @ - + O . @ , g m m m > T S N h f # # # # # @ O @ , , , , - O X o + - W.",
"W.@ @ @ @ @ @ @ + @ @ # + o o O ; ; h m h > R A m 2 ; + O # # # # O @ , , , , # O . o @ - W.",
"W.@ @ @ @ @ @ @ @ @ + # @ o . o ; s g m h z U N m h # X X o # # # + + - , , ; # o X o @ - W.",
"W.+ @ @ @ @ @ @ @ @ @ @ # o o . - ; ; h 2 t U M h # + # # o O @ # + + - 1 , - @ X o O # @ W.",
"W.+ @ @ + @ + @ @ @ @ @ # O o . + - - , - T I m , @ # 2 2 # o o @ @ + # , - - + X o O # @ W.",
"W.o O o o O o o o O O + s + o X o # # # - } V 1 # # , , f f - o O @ + + ; # # o X o + # W.W.",
"W.W.o o o o o o o O o o @ @ o X X # - # 3 } M @ # g , , f f f - o o O + # # @ . X o @ # W.W.",
"W.W.o o o o o o o o o o @ - o o . O # # r E - @ , , , f f f f f # O + + # # O . o O * @ W.W.",
"W.W.o o o o o o o o o X + - O o o X % @ r > @ - ; # f < h # d ; ; @ + + @ # X o o O # @ W.W.",
"W.W.W.O o o o o o o o o o # + o o   + + = @ # - - - - - - - - - - - # o O O . o o @ - W.W.W.",
"W.W.W.o o o o o o o o o o # # o o X X o @ # s # # - - - - - - - - - - @ o X X O o @ @ W.W.W.",
"W.W.W.o o o o o o o o o o o # + o o   o # # s # s # - - - - - - - - * - o . o o + s @ W.W.W.",
"W.W.W.W.o o o o o o o o o o # # o o o   O s # s # - - - - - - - # - s O . X o o @ @ W.W.W.W.",
"W.W.W.W.o o o o o o o o o o + # O o o X . + # s - - # - - - - - - - O X X O o O - @ W.W.W.W.",
"W.W.W.W.W.o o o o o o o o o o # @ o o o X   O # - # - - - - - - # O   X o o o + @ W.W.W.W.W.",
"W.W.W.W.W.o o o o o o o o o o + s O o o o X   o @ - - s - s # @ X X X X O o o - @ W.W.W.W.W.",
"W.W.W.W.W.W.o o o o o o o o o o @ @ O o o o X     o O + + O X   X X o o o o @ @ W.W.W.W.W.W.",
"W.W.W.W.W.W.o O o o o o o o o o + # + O o o O o X             X X o o O o + # W.W.W.W.W.W.W.",
"W.W.W.W.W.W.W.o o o o o o o o o o + - + o o o o O o X X X X o o o O o o O # @ W.W.W.W.W.W.W.",
"W.W.W.W.W.W.W.W.o o o o o o o o o o + # + o O o o o o o O o o o o o o O # # W.W.W.W.W.W.W.W.",
"W.W.W.W.W.W.W.W.o o o o o o O o o o o # s + o o o o o o O o o o O O + - @ W.W.W.W.W.W.W.W.W.",
"W.W.W.W.W.W.W.W.W.o o O o o o o o o o X O s @ + O o o o O o o o + @ s @ W.W.W.W.W.W.W.W.W.W.",
"W.W.W.W.W.W.W.W.W.W.X o o X X X X         o s # = @ + O O O @ # s # + W.W.W.W.W.W.W.W.W.W.W.",
"W.W.W.W.W.W.W.W.W.W.W.. . . . .             X + @ s s # s # # s + W.W.W.W.W.W.W.W.W.W.W.W.W.",
"W.W.W.W.W.W.W.W.W.W.W.W.W.W.. .                 X O + @ # + O W.W.W.W.W.W.W.W.W.W.W.W.W.W.W."
};
