/* XPM */
static char *result[] = {
/* columns rows colors chars-per-pixel */
"60 64 132 2 ",
"   c #9F2E19",
".  c #A12F19",
"X  c #A5311A",
"o  c #AC341B",
"O  c #A9381A",
"+  c #B1371B",
"@  c #B5391C",
"#  c #BB3B1C",
"$  c #C13E1E",
"%  c #B6461C",
"&  c #BC431D",
"*  c #BB4B1C",
"=  c #C4401E",
"-  c #CC431F",
";  c #C24E1D",
":  c #CB4B1E",
">  c #D2471F",
",  c #D3491F",
"<  c #C5501D",
"1  c #CC531E",
"2  c #CF591F",
"3  c #D2541F",
"4  c #D35B1F",
"5  c #DC5D1D",
"6  c #E35D1F",
"7  c #CE611E",
"8  c #D4631F",
"9  c #D7691F",
"0  c #EB7D1E",
"q  c #D44720",
"w  c #D64820",
"e  c #D94A20",
"r  c #D65520",
"t  c #DA5420",
"y  c #D65821",
"u  c #DD5B20",
"i  c #E14D21",
"p  c #E55222",
"a  c #EC5322",
"s  c #E35D21",
"d  c #EC5C22",
"f  c #F05523",
"g  c #F15C23",
"h  c #F15B29",
"j  c #D66020",
"k  c #DB6420",
"l  c #D76820",
"z  c #DD6C20",
"x  c #DD642F",
"c  c #DD7120",
"v  c #DE6837",
"b  c #E66122",
"n  c #EC6322",
"m  c #E46C21",
"M  c #EB6B22",
"N  c #F26623",
"B  c #F36B23",
"V  c #F26928",
"C  c #E47321",
"Z  c #EC7322",
"A  c #E77921",
"S  c #E97B22",
"D  c #F37323",
"F  c #F57B23",
"G  c #E36A37",
"H  c #F16032",
"J  c #F36F30",
"K  c #F27235",
"L  c #DD7B43",
"P  c #F26E41",
"I  c #F57D44",
"U  c #F3754D",
"Y  c #F68A1F",
"T  c #EC8022",
"R  c #F58423",
"E  c #F68B23",
"W  c #F88D23",
"Q  c #F5832F",
"!  c #F68F29",
"~  c #F6902A",
"^  c #F18E34",
"/  c #F58538",
"(  c #F5883F",
")  c #F79534",
"_  c #F79739",
"`  c #F68F47",
"'  c #EE974B",
"]  c #F89F47",
"[  c #F7974C",
"{  c #E9975E",
"}  c #F69653",
"|  c #F79C53",
" . c #F79C58",
".. c #F8A24D",
"X. c #F8A25E",
"o. c #F79D67",
"O. c #F79D72",
"+. c #F8A760",
"@. c #F9AE65",
"#. c #F7A26B",
"$. c #F9B067",
"%. c #E7A079",
"&. c #F8A57D",
"*. c #F8AC78",
"=. c #F9B272",
"-. c #FABC7D",
";. c #F0AF94",
":. c #F8AF97",
">. c #EEBD9B",
",. c #F9BC97",
"<. c #F8B99B",
"1. c #FBC997",
"2. c #FBCB9B",
"3. c #FAC1A0",
"4. c #FBCFA3",
"5. c #FAC1AF",
"6. c #FCD3AC",
"7. c #FCD3B2",
"8. c #FCD8B4",
"9. c #FBD0BC",
"0. c #F6DECE",
"q. c #FCDDCE",
"w. c #FDE2C6",
"e. c #FDE4CB",
"r. c #FDE4D4",
"t. c #FDE9D4",
"y. c #FEEDDC",
"u. c #FEF2E6",
"i. c #FEF6ED",
"p. c #FEFAF5",
"a. c #FFFCFB",
"s. c None",
/* pixels */
"s.s.s.s.s.s.s.s.s.s.s.s.s.s.s.s.s.s.s.s.s.s.= - - - - - : , 5 6 6 s d p e , s.s.s.s.s.s.s.s.s.s.s.s.s.s.s.s.s.s.s.s.s.s.",
"s.s.s.s.s.s.s.s.s.s.s.s.s.s.s.s.s.s.s.- q e e e e r s n N N N N N N N N h a a a p s.s.s.s.s.s.s.s.s.s.s.s.s.s.s.s.s.s.s.",
"s.s.s.s.s.s.s.s.s.s.s.s.s.s.s.s.w i p a a p p t s N N N N N N B N N N N f f f f f a p e s.s.s.s.s.s.s.s.s.s.s.s.s.s.s.s.",
"s.s.s.s.s.s.s.s.s.s.s.s.s.s.s.i f f f f a p d n N N B D ` *.[ R R F F F B N f f f f f f p > s.s.s.s.s.s.s.s.s.s.s.s.s.s.",
"s.s.s.s.s.s.s.s.s.s.s.s.s.e a f f f f p s n N N B Q @.8.y.2.) R R R R R R F D B g f f f f a > s.s.s.s.s.s.s.s.s.s.s.s.s.",
"s.s.s.s.s.s.s.s.s.s.s.s.p f f f f a p s N N N Q =.e.p.q.o.D B B N N N N B N N N B N f f f f i e s.s.s.s.s.s.s.s.s.s.s.s.",
"s.s.s.s.s.s.s.s.s.s.s.Z D D D D Z s s N N D X.w.p.r.&.K n n u y y 3 3 4 u s a f f f N f f f p i e s.s.s.s.s.s.s.s.s.s.s.",
"s.s.s.s.s.s.s.s.s.s.^ ) ) ) ) ) C s N N D +.r.9.O.K s 3 ; * * % * * * * % % o $ e f f f f f p i i e - s.s.s.s.s.s.s.s.s.",
"s.s.s.s.s.s.s.s.s.0.t.t.t.t.t.%.u n N F E / I N 6 1 * * < 1 4 u s 1 s u 4 : + . . # , f f f a i i i e s.s.s.s.s.s.s.s.s.",
"s.s.s.s.s.s.s.s.' @.@.$.@.$.{ x s N F R D N n y * * 1 5 n B D F Z % C R R F n , @ . . $ p f a i i i i e s.s.s.s.s.s.s.s.",
"s.s.s.s.s.s.s.S W Y Y Y E 0 5 6 n F R D N s < * < s B D [ =.) Y c : y R F D N g f , @ . + > i e i i i i w s.s.s.s.s.s.s.",
"s.s.s.s.s.s.C R E R E R R 5 u 6 B R D N s ; * y n D | 6.u.1.~ W 8 p : n N N f f f f a - X . $ > e e i i e - s.s.s.s.s.s.",
"s.s.s.s.s.s.d g g g g g 3 e s n R D N u * < 5 N ( 2.i.u.-.! R M 4 g - t N N f f f f f f e o . $ - q e i i e # s.s.s.s.s.",
"s.s.s.s.s.p f f f f f i > > s F F N s ; * s N #.y.i.4.] R F N 4 m f e : N h f f f f f f f e o . = - q e p e - s.s.s.s.s.",
"s.s.s.s.i f f f f f f e e e s F N n < * b I 3.e.2...W R D N n 2 Z f i = s f f f f f f f f f i X X = - q e i > # s.s.s.s.",
"s.s.s.s., i p i p i > > e e M B N 1 * u N  .@._ W E F N N N s l B f a - , f f f f f f f f f a - . o - - > e w - s.s.s.s.",
"s.s.s.= e e w e e w - w e e g g u * 4 N F E E E W D N N N N y S g f p e $ f f f f f f f f f a i #   @ - - w e - $ s.s.s.",
"s.s.s.> e w w e e > > w w p f p * < n D E E W R D N N N N V L R f f p i $ i f f f f f f f f i i w o X = - - w - = s.s.s.",
"s.s.s.w e e e w w - w w w p a # O u B R W W R D N N N N N G >.Q f f a e i > f f f f f f f f i i e $ X o - - - - - $ s.s.",
"s.s.- e e e > e w - w w w d e X @ d R W E R B N N V N N K ;.p.,.P h a e p $ a f f f f f f a i i i w o X $ - - q - = s.s.",
"s.s.> > e > e e - - w - e a @ . w B W W E D N N N N N K <.a.a.a.5.U a e i q e f f f f f f a i i i e $   o = - - - = s.s.",
"s.s.e e w e e e - - - - i e . + d R E W D n B N N N N N v >.a.:.H f a e i i - f f f f f f i i e i p q o . @ - - - = @ s.",
"s.- e w e > e w - - = = i # . - D E E Z a a s s u t r r : ^ 7.K f f a e e a - - q w e i i e e e e i e #   o = - - = # s.",
"s.> e e e e w > - - $ - w + X > 2 j y 1 1 1 4 u k z m S T E } h f f p e e p p e - - - - = $ = $ = = = # X X # - - = $ s.",
"s.> e e i > e > $ > $ $ $ X + s < z S R R R R R F D D B N g h f f f a > > i a a a a i i e e w q - # + - o X + - $ = = s.",
"s.w e w > e e $ > $ $ $ # . $ B T 7 S F N g f f f f f f f f f f f f a > i > > i e e e e e e w - # @ > e @   o # = = = @ ",
"= > w e , e i > > $ # $ + . q F W M 1 S N a f f f f f f f f f f f f i i e e e e q e e e e q = $ @ q i e &   o @ = = = @ ",
"- e e w > i > $ $ $ # $ o . t R E N i 1 Z d i p p f f f f f f f f f , , e > i > e e e e q $ # @ q e i e - . X o $ = = # ",
"- > > > , , > $ > $ + $ o . 5 R F h f p 1 S d > e i i a a f f f f i > e e > e e e e q - # # @ q i i i i - X X o # = = # ",
"# $ $ $ $ $ $ $ > $ + # o X 4 S M f f f i 1 Z d e e e e e e i e i e e e e e e e e q = @ # @ - p e i i i > X X o @ = = # ",
"@ # # # $ # @ $ $ $ # # X X , A s a f f f p 3 Z a e , e e e e w e q e e e e e e q = + @ @ q i e i i i e - X X o @ = = $ ",
"@ # # # $ # # $ > $ @ @ . o , Z p e i a f f i 1 M p e e e e e e e e e e > e i $ # o @ @ q e i i i i i e - X X o + = = $ ",
"@ # # # # # @ = - # + @ X X : m i i i i i a a e 1 M i e e e e > > e q e > i $ $ X + $ $ i i i i i i e $ $ o X + o $ $ $ ",
"@ @ # # # # # = > $ + + X o : u e i i i i i i i q 1 n i w e e e e e e e i $ $ # X $ $ i i i i i e e e e $ X X + + $ $ $ ",
"@ # # # # # @ = - $ o @ X X = y p i i i i i i i e - 9 d e > e e e e > e e e e $ o $ i i i i i i e i e $ $ o X o + $ $ $ ",
"@ # # # # # # $ - = @ o o X - : e i i i e i p e i : M f i e e e e q e e e e $ $ o $ i i i i i e $ $ e e $ . X o o $ $ $ ",
"@ # # # # # # # = = + + o . $ > e i e p i i i i e 1 D a a e e e e e e e e i $ $ o + e i i i e i i e e $ $ o X o + $ $ # ",
"+ # # # # # # @ = = @ + o . @ q q e i i i i i i w 9 B f f i e > e i $ e $ i i $ + + $ i i i $ $ i $ i $ $ . o o + $ $ # ",
"s.# # # # # $ @ $ & + + + . o > - w i e i i i i : A N f a e e e $ $ $ $ $ e i $ + + $ i $ e i e $ $ e $ o . o o + $ $ @ ",
"s.@ # # # # @ @ $ = @ o o . o - - q e i i e i e 1 F f f a e e > $ $ $ $ $ $ $ $ $ + $ $ $ e $ i i e $ $ X . o o # = $ s.",
"s.@ # # # # # @ $ = @ o o o . = - - q e i i i q 9 F f a i e , - $ o + $ $ $ $ $ $ o @ $ i e $ $ q - = & X X o o # $ $ s.",
"s.# @ # # # # # @ = $ + o o . @ - q - w i i e : A D f a e w > @ $ o o o @ $ $ $ $ + + $ $ e i e - = = @   o o o $ $ # s.",
"s.s.# # # # # # # $ $ + o o   X = - - - w e e 1 E N a t , > $ + $ e $ o o + $ $ $ @ + $ $ e e i - = = X   o o @ $ $ # s.",
"s.s.# @ # # # # @ $ = @ o o X . @ = = = - q q z R h a e w $ @ - e i $ $ @ o o @ $ $ + + $ i $ $ = = #   X o o @ = $ s.s.",
"s.s.o o o o + + o # = $ o o o . o $ = = = = & S Q a e q # @ - q $ e $ i $ $ @ + o $ + $ + $ $ $ = = o X o o o # = # s.s.",
"s.s.s.o o o o o o o $ $ @ o o X   @ = = = $ < W K i - # = q q - $ e e i e i $ $ o o X $ $ $ $ $ = @   X o o @ = = @ s.s.",
"s.s.s.o o o o o o o $ = @ o o o . X $ = $ # l W P @ # - q q q q e i e $ $ i e i $ + + + $ + $ $ = X   o o o @ = $ s.s.s.",
"s.s.s.o o o o o o o @ = $ + o o o   o $ = & A k $ # = = - - q q e $ $ i i $ $ $ $ $ + $ $ o $ $ o   X o o o = = # s.s.s.",
"s.s.s.s.o + o o o o o $ $ # o o o X   @ $ % ; # $ = = = = = = = = - = = = = = = = = = @ @ o # @ X . o o o # = $ s.s.s.s.",
"s.s.s.s.X + o o o o o @ $ $ + o o o X X @ + $ = $ = = = = = = = = = = = = = = = = = = = $ @ o X X o o o o $ = @ s.s.s.s.",
"s.s.s.s.s.X o + o o o o $ $ # o o o O X   @ = = = $ = = = = = = = = = = = = = = = = = = = # X   X o o o # $ $ s.s.s.s.s.",
"s.s.s.s.s.s.o o o o o o o $ $ + o o o o   X @ = = = = = = = = = = = = = = = = = = = = = @ X   O + o o @ $ $ s.s.s.s.s.s.",
"s.s.s.s.s.s.X + o o o o o @ $ $ o o o o o     + $ = $ = = = = = = = = = = $ = = = = $ +     o o o o o # = # s.s.s.s.s.s.",
"s.s.s.s.s.s.s.+ o + o o o o $ $ # o o o o o X   X @ $ = = = = = = = = = = = = = = @ X   X o o o o + @ = $ s.s.s.s.s.s.s.",
"s.s.s.s.s.s.s.s.o o o o o o o $ = @ o o o o o X X X X @ $ = = = = = = = = = $ @ X     X o o o o o @ $ $ s.s.s.s.s.s.s.s.",
"s.s.s.s.s.s.s.s.s.o o o o o o o $ = @ o o o o o X X X   X X + @ # @ # @ + o X     X o + o o o o + & $ s.s.s.s.s.s.s.s.s.",
"s.s.s.s.s.s.s.s.s.s.o o o + o o + $ = @ o o o o o o o X           X           X o o o o o o o + $ = s.s.s.s.s.s.s.s.s.s.",
"s.s.s.s.s.s.s.s.s.s.s.+ o o o o o + $ $ $ + o o o o o o o o o X X X X X o o o o o o o o o o @ $ $ s.s.s.s.s.s.s.s.s.s.s.",
"s.s.s.s.s.s.s.s.s.s.s.s.o o o o o o o $ $ $ + o o o o + o o o o o o o o o o o o o o o + o & $ $ s.s.s.s.s.s.s.s.s.s.s.s.",
"s.s.s.s.s.s.s.s.s.s.s.s.s.X X X X X X o + $ = $ @ + o o o o o o o o + o o o o o o o + @ = = # s.s.s.s.s.s.s.s.s.s.s.s.s.",
"s.s.s.s.s.s.s.s.s.s.s.s.s.s.s..           X @ = = & @ o + o o o o o o o + o o + + @ = = $ s.s.s.s.s.s.s.s.s.s.s.s.s.s.s.",
"s.s.s.s.s.s.s.s.s.s.s.s.s.s.s.s.            X o # = = = # # @ @ @ + + @ @ @ & $ - $ $ @ s.s.s.s.s.s.s.s.s.s.s.s.s.s.s.s.",
"s.s.s.s.s.s.s.s.s.s.s.s.s.s.s.s.s.s.s.            o @ # = = = = $ = = = = = $ $ # s.s.s.s.s.s.s.s.s.s.s.s.s.s.s.s.s.s.s.",
"s.s.s.s.s.s.s.s.s.s.s.s.s.s.s.s.s.s.s.s.s.s.            X + @ # & # # # # # s.s.s.s.s.s.s.s.s.s.s.s.s.s.s.s.s.s.s.s.s.s."
};
