/* XPM */
static char *result[] = {
/* columns rows colors chars-per-pixel */
"64 64 103 2 ",
"   c gray20",
".  c #343333",
"X  c #353433",
"o  c #363533",
"O  c #373533",
"+  c #383633",
"@  c #393633",
"#  c #393733",
"$  c #383634",
"%  c #3A3734",
"&  c #3B3734",
"*  c #3E3833",
"=  c #3D3934",
"-  c #3F3B35",
";  c #3F3A36",
":  c #403B36",
">  c #433C35",
",  c #433D35",
"<  c #453D34",
"1  c #463D34",
"2  c #453D36",
"3  c #4A3F35",
"4  c #483F37",
"5  c #4C4035",
"6  c #504235",
"7  c #514235",
"8  c #544435",
"9  c #594737",
"0  c #5B4836",
"q  c #5A4837",
"w  c #5D4936",
"e  c #51453A",
"r  c #604E3D",
"t  c #684F38",
"y  c #6A5037",
"u  c #6D5138",
"i  c #6D5238",
"p  c #6F5339",
"a  c #6D533C",
"s  c #6A553F",
"d  c #755539",
"f  c #755638",
"g  c #77593C",
"h  c #7E5B39",
"j  c #79593C",
"k  c #7A5B3F",
"l  c #6C5641",
"z  c #705740",
"x  c #705840",
"c  c #805C39",
"v  c #825C39",
"b  c #825D3A",
"n  c #865F3A",
"m  c #875F3A",
"M  c #83603F",
"N  c #85613F",
"B  c #91643B",
"V  c #91653B",
"C  c #92653B",
"Z  c #94673B",
"A  c #93663C",
"S  c #95673C",
"D  c #96673C",
"F  c #96683C",
"G  c #98693C",
"H  c #99693C",
"J  c #99693D",
"K  c #9A6A3C",
"L  c #9B6A3C",
"P  c #9B6A3D",
"I  c #9B6B3E",
"U  c #9C6B3C",
"Y  c #9D6B3C",
"T  c #9C6B3D",
"R  c #9E6C3D",
"E  c #9F6C3D",
"W  c #9F6D3D",
"Q  c #9D6C3F",
"!  c #9F6D3E",
"~  c #A06D3D",
"^  c #A06D3E",
"/  c #A06E3E",
"(  c #A16E3E",
")  c #8A6846",
"_  c #936B44",
"`  c #906B47",
"'  c #976C44",
"]  c #A57242",
"[  c #A37345",
"{  c #A47344",
"}  c #A57446",
"|  c #A67547",
" . c #A87545",
".. c #A97646",
"X. c #A3784D",
"o. c #A4784D",
"O. c #A97A4D",
"+. c #AA7A4E",
"@. c #AA7B4E",
"#. c #AB7B4F",
"$. c #B1A083",
"%. c #B2A183",
"&. c #B4A78C",
/* pixels */
"&.&.&.&.&.&.&.&.$.X.^ ~ ~ ~ ~ ~ ~ ~ ~ ~ ~ ~ ~ ~ ~ ~ ~ ~ ~ ~ ~ ~ ~ ~ ~ ~ ~ ~ ~ ~ ~ ~ ~ ~ ~ ~ ~ ~ ~ ~ ~ ~ ~ ^ X.$.&.&.&.&.&.&.&.&.",
"&.&.&.&.&.&.&.&.$.X.^ ~ ~ ~ ~ ~ ~ ~ ~ ~ ~ ~ ~ ~ ~ ~ ~ ~ ~ ~ ~ ~ ~ ~ ~ ~ ~ ~ ~ ~ ~ ~ ~ ~ ~ ~ ~ ~ ~ ~ ~ ~ ~ ^ X.$.&.&.&.&.&.&.&.&.",
"&.&.&.&.&.&.&.&.$.X.^ ~ ~ ~ ~ ~ ~ ~ ~ ~ ~ ~ ~ ~ ~ ~ ~ ~ ~ ~ ~ ~ ~ ~ ~ ~ ~ ~ ~ ~ ~ ~ ~ ~ ~ ~ ~ ~ ~ ~ ~ ~ ~ ^ X.$.&.&.&.&.&.&.&.&.",
"&.&.&.&.&.&.&.&.$.X.^ ~ ~ ~ ~ ~ ~ ~ ~ ~ ~ ~ ~ ~ ~ ~ ~ ~ ~ ~ ~ ~ ~ ~ ~ ~ ~ ~ ~ ~ ~ ~ ~ ~ ~ ~ ~ ~ ~ ~ ~ ~ ~ ^ X.$.&.&.&.&.&.&.&.&.",
"&.&.&.&.&.&.&.&.$.X.^ ~ ~ ~ ~ ~ ~ ~ ~ ~ ~ ~ ~ ~ ~ ~ ~ ~ ~ ~ ~ ~ ~ ~ ~ ~ ~ ~ ~ ~ ~ ~ ~ ~ ~ ~ ~ ~ ~ ~ ~ ~ ~ ^ X.$.&.&.&.&.&.&.&.&.",
"&.&.&.&.&.&.&.&.$.X.^ ~ ~ ~ ~ ~ ~ ~ ~ ~ ~ ~ ~ ~ ~ ~ ~ ~ ~ ~ ~ ~ ~ ~ ~ ~ ~ ~ ~ ~ ~ ~ ~ ~ ~ ~ ~ ~ ~ ~ ~ ~ ~ ^ X.$.&.&.&.&.&.&.&.&.",
"&.&.&.&.&.&.&.&.$.X.^ ~ ~ ~ ~ ~ ~ ~ ~ ~ ~ ~ ~ ~ ~ ~ ~ ~ ~ ~ ~ ~ ~ ~ ~ ~ ~ ~ ~ ~ ~ ~ ~ ~ ~ ~ ~ ~ ~ ~ ~ ~ ~ ^ X.$.&.&.&.&.&.&.&.&.",
"&.&.&.&.&.&.&.&.$.X.^ ~ ~ ~ ~ ~ ~ ~ ~ ~ ~ ~ ~ ~ ~ ~ ~ ~ ~ ~ ~ ~ ~ ~ ~ ~ ~ ~ ~ ~ ~ ~ ~ ~ ~ ~ ~ ~ ~ ~ ~ ~ ~ ^ X.$.&.&.&.&.&.&.&.&.",
"&.&.&.&.&.&.&.&.$.X.^ ~ ~ ~ ~ ~ ~ ~ ~ ~ ~ ~ ~ ~ ~ ~ ~ ~ ~ ~ ~ ~ ~ ~ ~ ~ ~ ~ ~ ~ ~ ~ ~ ~ ~ ~ ~ ~ ~ ~ ~ ~ ~ ^ X.$.&.&.&.&.&.&.&.&.",
"&.&.&.&.&.&.&.&.$.X.^ ~ ~ ~ ~ ~ ~ ~ ~ ~ ~ ~ ~ ~ ~ ~ ~ ~ ~ ~ ~ ~ ~ ~ ~ ~ ~ ~ ~ ~ ~ ~ ~ ~ ~ ~ ~ ~ ~ ~ ~ ~ ~ ^ X.$.&.&.&.&.&.&.&.&.",
"&.&.&.&.&.&.&.&.$.X.^ ~ ~ ~ ~ ~ ~ ~ ~ ~ ~ ~ ~ ~ ~ ~ ~ ~ ~ ~ ~ ~ ~ ~ ~ ~ ~ ~ ~ ~ ~ ~ ~ ~ ~ ~ ~ ~ ~ ~ ~ ~ ~ ^ X.$.&.&.&.&.&.&.&.&.",
"&.&.&.&.&.&.&.&.$.X.^ ~ ~ ~ ~ ~ ~ ~ ~ ~ ~ ~ ~ ~ ~ ~ ~ ~ ~ ~ ~ ~ ~ ~ ~ ~ ~ ~ ~ ~ ~ ~ ~ ~ ~ ~ ~ ~ ~ ~ ~ ~ ~ ^ X.$.&.&.&.&.&.&.&.&.",
"&.&.&.&.&.&.&.&.$.X.^ ~ ~ ~ ~ ~ ~ ~ ~ ~ ~ ~ ~ ~ ~ ~ ~ ~ ~ ~ ~ ~ ~ ~ ~ ~ ~ ~ ~ ~ ~ ~ ~ ~ ~ ~ ~ ~ ~ ~ ~ ~ ~ ^ X.$.&.&.&.&.&.&.&.&.",
"&.&.&.&.&.&.&.&.$.X.^ ~ ~ ~ ~ ~ ~ ~ ~ ~ ~ ~ ~ ~ ~ ~ ~ ~ ~ ~ ~ ~ ~ ~ ~ ~ ~ ~ ~ ~ ~ ~ ~ ~ ~ ~ ~ ~ ~ ~ ~ ~ ~ ^ X.$.&.&.&.&.&.&.&.&.",
"&.&.&.&.&.&.&.&.$.X.^ ~ ~ ~ ~ ~ ~ ~ ~ ~ ~ ~ ~ ~ ~ ~ ~ ~ ~ ~ ~ ~ ~ ~ ~ ~ ~ ~ ~ ~ ~ ~ ~ ~ ~ ~ ~ ~ ~ ~ ~ ~ ~ ^ X.$.&.&.&.&.&.&.&.&.",
"&.&.&.&.&.&.&.&.$.X.^ ~ ~ ~ ~ ~ ~ ~ ~ ~ ~ ~ ~ ~ ~ ~ ~ ~ ~ ~ ~ ~ ~ ~ ~ ~ ~ ~ ~ ~ ~ ~ ~ ~ ~ ~ ~ ~ ~ ~ ~ ~ ~ ^ X.$.&.&.&.&.&.&.&.&.",
"&.&.&.&.&.&.&.&.$.X.^ ~ ~ ~ ~ ~ ~ ~ ~ ~ ~ ~ ~ ~ ~ ~ ~ ~ ~ ~ ~ ~ ~ ~ ~ ~ ~ ~ ~ ~ ~ ~ ~ ~ ~ ~ ~ ~ ~ ~ ~ ~ ~ ^ X.$.&.&.&.&.&.&.&.&.",
"&.&.&.&.&.&.&.&.$.X.^ ~ ~ ~ ~ ~ ~ ~ ~ ~ ~ ~ ~ ~ ~ ~ ~ ~ ~ ~ ~ ~ ~ ~ ~ ~ ~ ~ ~ ~ ~ ~ ~ ~ ~ ~ ~ ~ ~ ~ ~ ~ ~ ^ X.$.&.&.&.&.&.&.&.&.",
"&.&.&.&.&.&.&.&.$.X.^ ~ ~ ~ ~ ~ ~ ~ ~ ~ ~ ~ ~ ~ ~ ~ ~ ~ ~ ~ ~ ~ ~ ~ ~ ~ ~ ~ ~ ~ ~ ~ ~ ~ ~ ~ ~ ~ ~ ~ ~ ~ ~ ^ X.$.&.&.&.&.&.&.&.&.",
"&.&.&.&.&.&.&.&.$.X.^ ~ ~ ~ ~ ~ ~ ~ ~ ~ ~ ~ ~ ~ ~ ~ ~ ~ ~ ~ ~ ~ ~ ~ ~ ~ ~ ~ ~ ~ ~ ~ ~ ~ ~ ~ ~ ~ ~ ~ ~ ~ ~ ^ X.$.&.&.&.&.&.&.&.&.",
"&.&.&.&.&.&.&.&.$.X.^ ~ ~ ~ ~ ~ ~ ~ ~ ~ ~ ~ ~ ~ ~ ~ ~ ~ ~ ~ ~ ~ ~ ~ ~ ~ ~ ~ ~ ~ ~ ~ ~ ~ ~ ~ ~ ~ ~ ~ ~ ~ ~ ^ X.$.&.&.&.&.&.&.&.&.",
"&.&.&.&.&.&.&.&.$.X.^ ~ ~ ~ ~ ~ ~ ~ ~ ~ ~ ~ ~ ~ ~ ~ ~ ~ ~ ~ ~ ~ ~ ~ ~ ~ ~ ~ ~ ~ ~ ~ ~ ~ ~ ~ ~ ~ ~ ~ ~ ~ ~ ^ X.$.&.&.&.&.&.&.&.&.",
"&.&.&.&.&.&.&.&.$.X.^ ~ ~ ~ ~ ~ ~ ~ ~ ~ ~ ~ ~ ~ ~ ~ ~ ~ ~ ~ ~ ~ ~ ~ ~ ~ ~ ~ ~ ~ ~ ~ ~ ~ ~ ~ ~ ~ ~ ~ ~ ~ ~ ^ X.$.&.&.&.&.&.&.&.&.",
"&.&.&.&.&.&.&.&.$.X.^ ~ ~ ~ ~ ~ ~ ~ ~ ~ ~ ~ ~ ~ ~ ~ ~ ~ ~ ~ ~ ~ ~ ~ ~ ~ ~ ~ ~ ~ W R Y Y Y Y E W ~ ~ ~ ~ ~ ^ X.$.&.&.&.&.&.&.&.&.",
"&.&.&.&.&.&.&.&.$.X.^ ~ ~ ~ ~ ~ ~ ~ ~ ~ ~ ~ ~ ~ ~ ~ ~ ~ ~ ~ ~ ~ ~ ~ ~ ~ ~ ~ ~ W Y C n b b m Z R ~ ~ ~ ~ ~ ^ X.$.&.&.&.&.&.&.&.&.",
"&.&.&.&.&.&.&.&.$.X.^ ~ ~ ~ ~ ~ ~ ~ ~ ~ ~ ~ ~ ~ ~ ~ ~ ~ ~ ~ ~ ~ ~ ~ ~ ~ ~ ~ ~ R V y 6 3 3 8 d S E ~ ~ ~ ~ ^ X.$.&.&.&.&.&.&.&.&.",
"&.&.&.&.&.&.&.&.$.X.^ ~ ~ ~ ~ ~ ~ ~ ~ ~ ~ ~ ~ ~ ~ ~ ~ ~ ~ ~ ~ ~ ~ ~ ~ ~ ~ ~ ~ L f < O X X @ 7 c U ~ ~ ~ ~ ^ X.$.&.&.&.&.&.&.&.&.",
"&.&.&.&.&.&.&.&.$.X.^ ~ ~ ~ ~ ~ ~ ~ ~ ~ ~ ~ ~ ~ ~ ~ ~ ~ ~ ~ ~ ~ ~ ~ ~ ~ ~ ~ ~ F 0 +         * u H ~ ~ ~ ~ ^ X.$.&.&.&.&.&.&.&.&.",
"&.&.&.&.&.&.&.&.$.X.^ ~ ~ ~ ~ ~ ~ ~ ~ ~ ~ ~ ~ ~ ~ ~ ~ ~ ~ ~ ~ ~ ~ ~ ~ ~ ~ ~ ~ D 9 +         & t G ~ ~ ~ ~ ^ X.$.&.&.&.&.&.&.&.&.",
"&.&.&.&.&.&.&.&.$.X.^ ~ ~ ~ ~ ~ ~ ~ ~ ~ ~ ~ ~ ~ ~ ~ ~ ~ ~ ~ ~ ~ ~ ~ ~ ~ ~ ~ ~ J a - .     X 4 j P ~ ~ ~ ~ ^ X.$.&.&.&.&.&.&.&.&.",
"&.&.&.&.&.&.&.&.$.X.^ ~ ~ ~ ~ ~ ~ ~ ~ ~ ~ ~ ~ ~ ~ ~ ~ ~ ~ ~ ~ ~ ~ ~ ~ ~ ~ ~ ~ ! _ r $   . ; s ' ! ~ ~ ~ ~ ^ X.$.&.&.&.&.&.&.&.&.",
"&.&.&.&.&.&.&.&.$.X.^ ~ ~ ~ ~ ~ ~ ~ ~ ~ ~ ~ ~ ~ ~ ~ ~ ~ ~ ~ ~ ~ ~ ~ ~ ~ ~ ~ ~ ( [ ) :   o e ` { ( ~ ~ ~ ~ ^ X.$.&.&.&.&.&.&.&.&.",
"&.&.&.&.&.&.&.&.$.X.^ ~ ~ ~ ~ ~ ~ ~ ~ ~ ~ ~ ~ ~ ~ ~ ~ ~ ~ ~ ~ ~ ~ ~ ~ ~ ~ ~ ~ ~ Q k =   . 2 g I ~ ~ ~ ~ ~ ^ X.$.&.&.&.&.&.&.&.&.",
"&.&.&.&.&.&.&.&.$.X.^ ~ ~ ~ ~ ~ ~ ~ ~ ~ ~ ~ ~ ~ ~ ~ ~ ~ ~ ~ ~ ~ ~ ~ ~ ~ ~ ~ ~ E A q O     # w B E ~ ~ ~ ~ ^ X.$.&.&.&.&.&.&.&.&.",
"&.&.&.&.&.&.&.&.$.X.^ ~ ~ ~ ~ ~ ~ ~ ~ ~ ~ ~ ~ ~ ~ ~ ~ ~ ~ ~ ~ ~ ~ ~ ~ ~ ~ ~ ~ Y v 1 .     X 5 h U ~ ~ ~ ~ ^ X.$.&.&.&.&.&.&.&.&.",
"&.&.&.&.&.&.&.&.$.X.^ ~ ~ ~ ~ ~ ~ ~ ~ ~ ~ ~ ~ ~ ~ ~ ~ ~ ~ ~ ~ ~ ~ ~ ~ ~ ~ ~ ~ H i > % % % % , p K ~ ~ ~ ~ ^ X.$.&.&.&.&.&.&.&.&.",
"&.&.&.&.&.&.&.&.$.X.^ ~ ~ ~ ~ ~ ~ ~ ~ ~ ~ ~ ~ ~ ~ ~ ~ ~ ~ ~ ~ ~ ~ ~ ~ ~ ~ ~ ~ T M z l l l l x N T ~ ~ ~ ~ ^ X.$.&.&.&.&.&.&.&.&.",
"&.&.&.&.&.&.&.&.$.X.^ ~ ~ ~ ~ ~ ~ ~ ~ ~ ~ ~ ~ ~ ~ ~ ~ ~ ~ ~ ~ ~ ~ ~ ~ ~ ~ ~ ~ / | O.@.#.#.#.+.} / ~ ~ ~ ~ ^ X.$.&.&.&.&.&.&.&.&.",
"&.&.&.&.&.&.&.&.$.X.^ ~ ~ ~ ~ ~ ~ ~ ~ ~ ~ ~ ~ ~ ~ ~ ~ ~ ~ ~ ~ ~ ~ ~ ~ ~ ~ ~ ~ ~ ]  ...........] ~ ~ ~ ~ ~ ^ X.$.&.&.&.&.&.&.&.&.",
"&.&.&.&.&.&.&.&.$.X.^ ~ ~ ~ ~ ~ ~ ~ ~ ~ ~ ~ ~ ~ ~ ~ ~ ~ ~ ~ ~ ~ ~ ~ ~ ~ ~ ~ ~ ~ ~ ( ( ( ( ( ( ~ ~ ~ ~ ~ ~ ^ X.$.&.&.&.&.&.&.&.&.",
"&.&.&.&.&.&.&.&.$.X.^ ~ ~ ~ ~ ~ ~ ~ ~ ~ ~ ~ ~ ~ ~ ~ ~ ~ ~ ~ ~ ~ ~ ~ ~ ~ ~ ~ ~ ~ ~ ~ ~ ~ ~ ~ ~ ~ ~ ~ ~ ~ ~ ^ X.$.&.&.&.&.&.&.&.&.",
"&.&.&.&.&.&.&.&.$.X.^ ~ ~ ~ ~ ~ ~ ~ ~ ~ ~ ~ ~ ~ ~ ~ ~ ~ ~ ~ ~ ~ ~ ~ ~ ~ ~ ~ ~ ~ ~ ~ ~ ~ ~ ~ ~ ~ ~ ~ ~ ~ ~ ^ X.$.&.&.&.&.&.&.&.&.",
"&.&.&.&.&.&.&.&.$.X.^ ~ ~ ~ ~ ~ ~ ~ ~ ~ ~ ~ ~ ~ ~ ~ ~ ~ ~ ~ ~ ~ ~ ~ ~ ~ ~ ~ ~ ~ ~ ~ ~ ~ ~ ~ ~ ~ ~ ~ ~ ~ ~ ^ X.$.&.&.&.&.&.&.&.&.",
"&.&.&.&.&.&.&.&.$.X.^ ~ ~ ~ ~ ~ ~ ~ ~ ~ ~ ~ ~ ~ ~ ~ ~ ~ ~ ~ ~ ~ ~ ~ ~ ~ ~ ~ ~ ~ ~ ~ ~ ~ ~ ~ ~ ~ ~ ~ ~ ~ ~ ^ X.$.&.&.&.&.&.&.&.&.",
"&.&.&.&.&.&.&.&.$.X.^ ~ ~ ~ ~ ~ ~ ~ ~ ~ ~ ~ ~ ~ ~ ~ ~ ~ ~ ~ ~ ~ ~ ~ ~ ~ ~ ~ ~ ~ ~ ~ ~ ~ ~ ~ ~ ~ ~ ~ ~ ~ ~ ^ X.$.&.&.&.&.&.&.&.&.",
"&.&.&.&.&.&.&.&.$.X.^ ~ ~ ~ ~ ~ ~ ~ ~ ~ ~ ~ ~ ~ ~ ~ ~ ~ ~ ~ ~ ~ ~ ~ ~ ~ ~ ~ ~ ~ ~ ~ ~ ~ ~ ~ ~ ~ ~ ~ ~ ~ ~ ^ X.$.&.&.&.&.&.&.&.&.",
"&.&.&.&.&.&.&.&.$.X.^ ~ ~ ~ ~ ~ ~ ~ ~ ~ ~ ~ ~ ~ ~ ~ ~ ~ ~ ~ ~ ~ ~ ~ ~ ~ ~ ~ ~ ~ ~ ~ ~ ~ ~ ~ ~ ~ ~ ~ ~ ~ ~ ^ X.$.&.&.&.&.&.&.&.&.",
"&.&.&.&.&.&.&.&.$.X.^ ~ ~ ~ ~ ~ ~ ~ ~ ~ ~ ~ ~ ~ ~ ~ ~ ~ ~ ~ ~ ~ ~ ~ ~ ~ ~ ~ ~ ~ ~ ~ ~ ~ ~ ~ ~ ~ ~ ~ ~ ~ ~ ^ X.$.&.&.&.&.&.&.&.&.",
"&.&.&.&.&.&.&.&.$.X.^ ~ ~ ~ ~ ~ ~ ~ ~ ~ ~ ~ ~ ~ ~ ~ ~ ~ ~ ~ ~ ~ ~ ~ ~ ~ ~ ~ ~ ~ ~ ~ ~ ~ ~ ~ ~ ~ ~ ~ ~ ~ ~ ^ X.$.&.&.&.&.&.&.&.&.",
"&.&.&.&.&.&.&.&.$.X.^ ~ ~ ~ ~ ~ ~ ~ ~ ~ ~ ~ ~ ~ ~ ~ ~ ~ ~ ~ ~ ~ ~ ~ ~ ~ ~ ~ ~ ~ ~ ~ ~ ~ ~ ~ ~ ~ ~ ~ ~ ~ ~ ^ X.$.&.&.&.&.&.&.&.&.",
"&.&.&.&.&.&.&.&.$.X.^ ~ ~ ~ ~ ~ ~ ~ ~ ~ ~ ~ ~ ~ ~ ~ ~ ~ ~ ~ ~ ~ ~ ~ ~ ~ ~ ~ ~ ~ ~ ~ ~ ~ ~ ~ ~ ~ ~ ~ ~ ~ ~ ^ X.$.&.&.&.&.&.&.&.&.",
"&.&.&.&.&.&.&.&.$.X.^ ~ ~ ~ ~ ~ ~ ~ ~ ~ ~ ~ ~ ~ ~ ~ ~ ~ ~ ~ ~ ~ ~ ~ ~ ~ ~ ~ ~ ~ ~ ~ ~ ~ ~ ~ ~ ~ ~ ~ ~ ~ ~ ^ X.$.&.&.&.&.&.&.&.&.",
"&.&.&.&.&.&.&.&.$.X.^ ~ ~ ~ ~ ~ ~ ~ ~ ~ ~ ~ ~ ~ ~ ~ ~ ~ ~ ~ ~ ~ ~ ~ ~ ~ ~ ~ ~ ~ ~ ~ ~ ~ ~ ~ ~ ~ ~ ~ ~ ~ ~ ^ X.$.&.&.&.&.&.&.&.&.",
"&.&.&.&.&.&.&.&.$.X.^ ~ ~ ~ ~ ~ ~ ~ ~ ~ ~ ~ ~ ~ ~ ~ ~ ~ ~ ~ ~ ~ ~ ~ ~ ~ ~ ~ ~ ~ ~ ~ ~ ~ ~ ~ ~ ~ ~ ~ ~ ~ ~ ^ X.$.&.&.&.&.&.&.&.&.",
"&.&.&.&.&.&.&.&.$.X.^ ~ ~ ~ ~ ~ ~ ~ ~ ~ ~ ~ ~ ~ ~ ~ ~ ~ ~ ~ ~ ~ ~ ~ ~ ~ ~ ~ ~ ~ ~ ~ ~ ~ ~ ~ ~ ~ ~ ~ ~ ~ ~ ^ X.$.&.&.&.&.&.&.&.&.",
"&.&.&.&.&.&.&.&.$.X.^ ~ ~ ~ ~ ~ ~ ~ ~ ~ ~ ~ ~ ~ ~ ~ ~ ~ ~ ~ ~ ~ ~ ~ ~ ~ ~ ~ ~ ~ ~ ~ ~ ~ ~ ~ ~ ~ ~ ~ ~ ~ ~ ^ X.$.&.&.&.&.&.&.&.&.",
"&.&.&.&.&.&.&.&.$.X.^ ~ ~ ~ ~ ~ ~ ~ ~ ~ ~ ~ ~ ~ ~ ~ ~ ~ ~ ~ ~ ~ ~ ~ ~ ~ ~ ~ ~ ~ ~ ~ ~ ~ ~ ~ ~ ~ ~ ~ ~ ~ ~ ^ X.$.&.&.&.&.&.&.&.&.",
"&.&.&.&.&.&.&.&.$.X.^ ~ ~ ~ ~ ~ ~ ~ ~ ~ ~ ~ ~ ~ ~ ~ ~ ~ ~ ~ ~ ~ ~ ~ ~ ~ ~ ~ ~ ~ ~ ~ ~ ~ ~ ~ ~ ~ ~ ~ ~ ~ ~ ^ X.$.&.&.&.&.&.&.&.&.",
"&.&.&.&.&.&.&.&.$.X.^ ~ ~ ~ ~ ~ ~ ~ ~ ~ ~ ~ ~ ~ ~ ~ ~ ~ ~ ~ ~ ~ ~ ~ ~ ~ ~ ~ ~ ~ ~ ~ ~ ~ ~ ~ ~ ~ ~ ~ ~ ~ ~ ^ X.$.&.&.&.&.&.&.&.&.",
"&.&.&.&.&.&.&.&.$.X.^ ~ ~ ~ ~ ~ ~ ~ ~ ~ ~ ~ ~ ~ ~ ~ ~ ~ ~ ~ ~ ~ ~ ~ ~ ~ ~ ~ ~ ~ ~ ~ ~ ~ ~ ~ ~ ~ ~ ~ ~ ~ ~ ^ X.$.&.&.&.&.&.&.&.&.",
"&.&.&.&.&.&.&.&.$.X.^ ~ ~ ~ ~ ~ ~ ~ ~ ~ ~ ~ ~ ~ ~ ~ ~ ~ ~ ~ ~ ~ ~ ~ ~ ~ ~ ~ ~ ~ ~ ~ ~ ~ ~ ~ ~ ~ ~ ~ ~ ~ ~ ^ X.$.&.&.&.&.&.&.&.&.",
"&.&.&.&.&.&.&.&.$.X.^ ~ ~ ~ ~ ~ ~ ~ ~ ~ ~ ~ ~ ~ ~ ~ ~ ~ ~ ~ ~ ~ ~ ~ ~ ~ ~ ~ ~ ~ ~ ~ ~ ~ ~ ~ ~ ~ ~ ~ ~ ~ ~ ^ X.$.&.&.&.&.&.&.&.&.",
"&.&.&.&.&.&.&.&.$.X.^ ~ ~ ~ ~ ~ ~ ~ ~ ~ ~ ~ ~ ~ ~ ~ ~ ~ ~ ~ ~ ~ ~ ~ ~ ~ ~ ~ ~ ~ ~ ~ ~ ~ ~ ~ ~ ~ ~ ~ ~ ~ ~ ^ X.$.&.&.&.&.&.&.&.&.",
"&.&.&.&.&.&.&.&.%.o.^ ~ ~ ~ ~ ~ ~ ~ ~ ~ ~ ~ ~ ~ ~ ~ ~ ~ ~ ~ ~ ~ ~ ~ ~ ~ ~ ~ ~ ~ ~ ~ ~ ~ ~ ~ ~ ~ ~ ~ ~ ~ ~ ^ o.%.&.&.&.&.&.&.&.&."
};
