/* XPM */
static char *result[] = {
/* columns rows colors chars-per-pixel */
"30 64 114 2 ",
"   c #9F2E19",
".  c #A22F19",
"X  c #A5311A",
"o  c #AC341A",
"O  c #B1361B",
"+  c #B5391C",
"@  c #BB3B1C",
"#  c #C13E1D",
"$  c #B6461C",
"%  c #BE421D",
"&  c #BA491C",
"*  c #C4401E",
"=  c #CC431E",
"-  c #C44F1D",
";  c #CB4C1E",
":  c #D2461F",
">  c #D24C1F",
",  c #C6521E",
"<  c #CD521E",
"1  c #CF5A1F",
"2  c #D2541E",
"3  c #D45C1F",
"4  c #DA5B1F",
"5  c #E84E1E",
"6  c #D3621F",
"7  c #DF611F",
"8  c #E06E1F",
"9  c #D44720",
"0  c #D64920",
"q  c #D94A20",
"w  c #CD502E",
"e  c #D55520",
"r  c #DD5221",
"t  c #DD5B20",
"y  c #E24E21",
"u  c #E84F20",
"i  c #E55122",
"p  c #EC5323",
"a  c #E45B21",
"s  c #EA5C22",
"d  c #F05523",
"f  c #F15D23",
"g  c #E55E35",
"h  c #D76220",
"j  c #D86220",
"k  c #DA722D",
"l  c #DF7A2D",
"z  c #D86431",
"x  c #DD6932",
"c  c #E46221",
"v  c #EB6422",
"b  c #E56C21",
"n  c #ED6A22",
"m  c #EB6628",
"M  c #E36829",
"N  c #F26622",
"B  c #F26A22",
"V  c #F36D2D",
"C  c #E07121",
"Z  c #EC7722",
"A  c #ED7822",
"S  c #F37322",
"D  c #F47B23",
"F  c #F37129",
"G  c #E67335",
"H  c #EF7030",
"J  c #EA733C",
"K  c #E27C43",
"L  c #F47745",
"P  c #EE7A56",
"I  c #F0841F",
"U  c #F68A1F",
"Y  c #F48322",
"T  c #F68923",
"R  c #F5802B",
"E  c #F6892B",
"W  c #EF8E3F",
"Q  c #F48B33",
"!  c #F5843E",
"~  c #F79535",
"^  c #F58E4D",
"/  c #F89E47",
"(  c #F6914D",
")  c #F9974A",
"_  c #EF9D55",
"`  c #F79B57",
"'  c #F8A14D",
"]  c #EF8564",
"[  c #F69060",
"{  c #F29768",
"}  c #F59A6B",
"|  c #F9AE64",
" . c #F7A074",
".. c #F8A270",
"X. c #FABC7D",
"o. c #DE9C83",
"O. c #E19784",
"+. c #F6AB87",
"@. c #F8A88D",
"#. c #EBB191",
"$. c #FAC69F",
"%. c #FBC6A3",
"&. c #FAC4A9",
"*. c #FDD4AA",
"=. c #EAC6B5",
"-. c #FCD2B2",
";. c #FCDAB7",
":. c #FDE0C6",
">. c #FDE1D6",
",. c #FDE9D4",
"<. c #FDE7E0",
"1. c #FDEBE4",
"2. c white",
"3. c None",
/* pixels */
"3.3.3.3.3.3.3.3.= = = : : = : : : : ; a a q 3.3.3.3.3.3.3.3.",
"3.3.3.3.3.3.3.= q q q q q q q q : r N N N f y 3.3.3.3.3.3.3.",
"3.3.3.3.3.3.q p p p p p i p p u i v N B N f p y 3.3.3.3.3.3.",
"3.3.3.3.3.0 p d p d p d d d d i N B ( Q D N d p q 3.3.3.3.3.",
"3.3.3.3.3.i d d d d d d d d p a 8 ` *.Q T D B d i 3.3.3.3.3.",
"3.3.3.3.q p d d d d d p d d i s ! :...N N N N f p = 3.3.3.3.",
"3.3.3.3.n S B S S S S S S S c B $.&.m 4 2 a d f p q 3.3.3.3.",
"3.3.3.3.~ ~ ~ ~ ~ ~ ~ ~ ~ E 7 ^ %.J - $ $ $ = d d y 3.3.3.3.",
"3.3.3.=.,.,.,.,.,.,.,.,.,.#.v D H - - 4 = > X : p y 9 3.3.3.",
"3.3.3.` | | | | | | | | | K Z F 4 , 8 8 , D ; O i u 0 3.3.3.",
"3.3.3.I U U T T U U U U I c S n , 4 / G & S s # * r r 3.3.3.",
"3.3.C T T T T T U T T T Z t S t < ^ *.k @ s d > o 9 q : 3.3.",
"3.3.a f f f f f f f f N r c B e M -.X.3 * a d d @ @ q 9 3.3.",
"3.3.p d d d p d d d d d 0 b b , } ;.Q 2 = i d d 9 + 9 9 3.3.",
"3.3.p p d d d p d d p p 9 v 4 z $./ Z 0 0 w d d p + = q 3.3.",
"3.= y u y y u y u y i q : v 2 G / Y v 2 q : d p p @ * 9 # 3.",
"3.= q 0 q q q q q q q : 9 a e Z T S v e i = p d d = @ 9 * 3.",
"3.9 q 0 : q q q 9 q q = 0 i e Y T B J x i * p d p 9 + : * 3.",
"3.: q q q q q q 0 q q = q : 3 T S N +.{ 5 = p d p q O = * 3.",
"3.9 0 q q q q : q q q = q * j T F [ 1.>.] w i d p q O * = 3.",
"3.9 q q q q : q 0 q 0 = 0 @ b E  .1.2.2.<.o.g d p q @ # = 3.",
"# q : 9 9 q q q q q 0 * 9 @ Z D H { 1.<.P 9 q d p i # + = 3.",
"= q q q q : q q q 0 9 * = % A n r >  .#.u 9 = q q q = O * + ",
"= q q q q q q q q q = * * + 1 e 3 8 ^ L u y q * * # + o * @ ",
"= q q : : q q q q q # # @ + 6 Y Y S N d i q p i q = o o # @ ",
"= q q q q q q q 9 q q # + ; 6 n d d d d u q q q q * @ o # @ ",
"= q q q q q q : q q : # O 3 6 a d d d d u 9 q 9 9 @ 9 o @ @ ",
": 9 q q q q q 5 q q 9 # O h c 2 i d d d y q q q * @ q O + # ",
"= q : : : y : : 9 q # # O 4 N ; r y d d y q q 9 @ * y + + # ",
"@ # # # # # # # # # @ # o 4 f > e q q q q q q * O q q O O # ",
"+ @ @ @ @ @ @ @ @ @ @ # o 1 i i > q q 0 9 q 9 + @ y q + O @ ",
"+ @ @ @ @ @ @ @ @ @ @ @ o e i p > e q q q q = o = y q + O # ",
"+ @ @ @ @ @ @ @ @ @ @ @ o ; i i : > q q q q + O q y 9 O + @ ",
"+ @ @ @ @ @ @ @ @ @ @ @ o ; y y 0 = q q q q + # y y 9 o O @ ",
"+ # @ + @ @ @ @ @ @ @ % o * q y q ; q q q 9 + * y q 9 o O @ ",
"+ @ @ @ @ @ @ @ @ @ + % o * y y q = y 9 q q @ # y 9 w o O @ ",
"@ @ @ @ @ @ @ @ @ @ @ @ o % q y q ; i 0 q q @ # q 9 = o + @ ",
"O # @ @ @ @ @ @ @ @ @ @ o @ q y 0 e p 0 9 9 @ @ q 9 = o + @ ",
"O + @ @ @ @ @ @ @ @ @ @ o @ 0 y 9 e i 0 * = # O 9 9 * o + @ ",
"+ @ @ @ @ @ @ @ @ @ @ @ o + 9 u = t u : # # # O = 9 * X + @ ",
"+ # # @ @ @ @ @ @ @ + @ o O : q = a u = O @ @ O = 9 @ X + @ ",
"O + + # @ @ @ @ @ @ @ @ o o = q ; a q @ X @ # O * 9 @ o + @ ",
"O @ @ + @ @ @ @ @ @ @ @ O o * 9 ; a 0 @ + o # O * = + X @ 3.",
"3.# @ @ @ @ @ @ @ @ @ @ + X @ = , s = @ 9 o + O @ w O o @ 3.",
"3.o O O o o o o O o O + + o @ # < a @ = 9 @ o + + w X X @ 3.",
"3.o o o o o o o o o o O + X + @ 1 > # : 9 = O o + # X o @ 3.",
"3.O o o o o o o o o o O @ o o % 1 * = > : : * o + @ X + @ 3.",
"3.O o o o O o o o o o o @ o X @ & % = : : : = O O + X + @ 3.",
"3.o o o o o o o o o o o # o X o O * * * w # * @ X X o + @ 3.",
"3.3.o o o o o O o o o o + + X X @ * * * # # * * + . o @ 3.3.",
"3.3.o o o o o o o o o o + + o X # * * * * # * * @ X + @ 3.3.",
"3.3.o o o o o o o o o o O @ o X + * * * * * * * X X o @ 3.3.",
"3.3.o o o o o o o o o o o # o X o * * * * * * $ X o + @ 3.3.",
"3.3.3.o o o o o o o o o o + + o   @ * * * * % o X o + 3.3.3.",
"3.3.3.o o o o o o o o o o + + o X X @ * * * O   o O + 3.3.3.",
"3.3.3.o o o o o o o o o o o # o o X X + @ o X X O O @ 3.3.3.",
"3.3.3.3.o O o o o o o o o o # O o o         X o o + 3.3.3.3.",
"3.3.3.3.o o o o o o o o o o o # O o o X X X o o O @ 3.3.3.3.",
"3.3.3.3.X o O o o o o o o o o # O o o O O O O O @ @ 3.3.3.3.",
"3.3.3.3.3.. . . X X X X X X X o @ O o o o o o O # 3.3.3.3.3.",
"3.3.3.3.3.. .           .     . @ @ o O o o o @ + 3.3.3.3.3.",
"3.3.3.3.3.3.            . .     X * @ + + + # # 3.3.3.3.3.3.",
"3.3.3.3.3.3.3..                   o % * * * # 3.3.3.3.3.3.3.",
"3.3.3.3.3.3.3.3.                  . X @ @ @ 3.3.3.3.3.3.3.3."
};
