/* XPM */
static char *result[] = {
/* columns rows colors chars-per-pixel */
"64 63 247 2 ",
"   c #1B032F",
".  c #1D0432",
"X  c #1F0537",
"o  c #2C1C2B",
"O  c #281629",
"+  c #311E2D",
"@  c #210935",
"#  c #22043C",
"$  c #260E3B",
"%  c #230938",
"&  c #29133C",
"*  c #321536",
"=  c #37292B",
"-  c #2E2233",
";  c #342434",
":  c #362A3B",
">  c #3B2B3C",
",  c #372737",
"<  c #3D313D",
"1  c #3D3234",
"2  c #2E232F",
"3  c #432B3B",
"4  c #42333B",
"5  c #46383A",
"6  c #2B044B",
"7  c #280745",
"8  c #3A0C46",
"9  c #2D1444",
"0  c #2F1945",
"q  c #331749",
"w  c #2E0652",
"e  c #350758",
"r  c #371956",
"t  c #3C2C42",
"y  c #36214D",
"u  c #3C3244",
"i  c #3E354B",
"p  c #3D2656",
"a  c #3E3952",
"s  c #3D056A",
"d  c #3A0865",
"f  c #3D1469",
"g  c #431B48",
"h  c #4C0B5C",
"j  c #47075A",
"k  c #4B1656",
"l  c #450D4F",
"z  c #432D44",
"x  c #492947",
"c  c #433444",
"v  c #4B3B44",
"b  c #43344A",
"n  c #4B344C",
"m  c #443A4C",
"M  c #4A3C4B",
"N  c #473743",
"B  c #533B4B",
"V  c #462B5A",
"C  c #572759",
"Z  c #4B3553",
"A  c #4B3C53",
"S  c #473B55",
"D  c #573857",
"F  c #502F4C",
"G  c #623D5C",
"H  c #4B0664",
"J  c #4C096C",
"K  c #470868",
"L  c #520969",
"P  c #441969",
"I  c #561A67",
"U  c #430673",
"Y  c #4C0A7C",
"T  c #480878",
"R  c #540A76",
"E  c #461774",
"W  c #5B157C",
"Q  c #621F6F",
"!  c #46246B",
"~  c #582A67",
"^  c #4B3566",
"/  c #553A67",
"(  c #4A2576",
")  c #553A76",
"_  c #542C75",
"`  c #643768",
"'  c #642A77",
"]  c #663777",
"[  c #683473",
"{  c #4E4148",
"}  c #54454B",
"|  c #5B4B4C",
" . c #554648",
".. c #4C4255",
"X. c #4D465B",
"o. c #47435C",
"O. c #534452",
"+. c #5A4455",
"@. c #5C4B55",
"#. c #5D4C5B",
"$. c #554759",
"%. c #5D5159",
"&. c #5B504D",
"*. c #624D53",
"=. c #644C5C",
"-. c #674B57",
";. c #6B535C",
":. c #6B5C5B",
">. c #645457",
",. c #67574D",
"<. c #73645C",
"1. c #6E605F",
"2. c #4D4962",
"3. c #554867",
"4. c #5B5369",
"5. c #5B4473",
"6. c #5D4A75",
"7. c #5D477A",
"8. c #5C5774",
"9. c #684666",
"0. c #754A6E",
"q. c #655463",
"w. c #6A5868",
"e. c #745B64",
"r. c #735B6B",
"t. c #795869",
"y. c #64497A",
"u. c #774874",
"i. c #64537B",
"p. c #6C5A7B",
"a. c #655875",
"s. c #775976",
"d. c #7A6D6D",
"f. c #776669",
"g. c #6A637B",
"h. c #786876",
"j. c #786C6F",
"k. c #835777",
"l. c #855472",
"z. c #856678",
"x. c #837474",
"c. c #85757C",
"v. c #8C7C7C",
"b. c #897A77",
"n. c #896F74",
"m. c #8F817A",
"M. c #92827D",
"N. c #4C0983",
"B. c #4E0A8B",
"V. c #4B0683",
"C. c #520B8C",
"Z. c #520985",
"A. c #530B93",
"S. c #570C9A",
"D. c #590C9A",
"F. c #551389",
"G. c #65198D",
"H. c #552B88",
"J. c #5A3787",
"K. c #5B2A94",
"L. c #683689",
"P. c #643899",
"I. c #692A8B",
"U. c #5C0CA2",
"Y. c #5E10A0",
"T. c #6730A3",
"R. c #654788",
"E. c #764983",
"W. c #6C5C82",
"Q. c #675780",
"!. c #775C85",
"~. c #734D95",
"^. c #776587",
"/. c #787289",
"(. c #7C6A91",
"). c #736F89",
"_. c #5F4583",
"`. c #844F87",
"'. c #885785",
"]. c #985688",
"[. c #8F5C96",
"{. c #876A86",
"}. c #93698B",
"|. c #8C7D82",
" X c #887888",
".X c #957888",
"XX c #8A6596",
"oX c #867797",
"OX c #98769A",
"+X c #94689C",
"@X c #AA7B98",
"#X c #A56E9A",
"$X c #9877A6",
"%X c #9A6DA4",
"&X c #AB79A7",
"*X c #9C599F",
"=X c #B667C5",
"-X c #C776D8",
";X c #8D8184",
":X c #938383",
">X c #96898A",
",X c #888399",
"<X c #998B96",
"1X c #9E9295",
"2X c #9D918F",
"3X c #A78A9A",
"4X c #A39494",
"5X c #A7999B",
"6X c #AB8497",
"7X c #8886A2",
"8X c #958CAB",
"9X c #9692AA",
"0X c #9C89B3",
"qX c #9999B6",
"wX c #B888A6",
"eX c #A996A6",
"rX c #B697A8",
"tX c #A987B6",
"yX c #AD93B5",
"uX c #ADA2A3",
"iX c #AEA6A9",
"pX c #B2A4A3",
"aX c #B6A9AC",
"sX c #BBACB4",
"dX c #BCB3B5",
"fX c #B2ABB8",
"gX c #ACA19E",
"hX c #C188AE",
"jX c #C58BB1",
"kX c #C5B8BA",
"lX c #C5A7B8",
"zX c #CCC1BF",
"xX c #B996C7",
"cX c #B594C9",
"vX c #BBB7CA",
"bX c #C9BCC3",
"nX c #CBAFD1",
"mX c #D7B7E6",
"MX c #CEC4C5",
"NX c #CFC5C8",
"BX c #D4C8C9",
"VX c #DDD5D4",
"CX c #D9CCD0",
"ZX c #E4DAD9",
"AX c #EFEBE9",
"SX c #E9CEF1",
"DX c None",
/* pixels */
"DXDXDXDXDXDXDXDXDXDXDXDXDXDXDXDXDXDXDXDXDXDX,Xw.5 %.>X>X|.5XaXaXaXeX>Xc.;X;X&.{ 1.,XDXDXDXDXDXDXDXDXDXDXDXDXDXDXDXDXDXDXDXDXDXDX",
"DXDXDXDXDXDXDXDXDXDXDXDXDXDXDXDXDXDXDXDXDXDXDX,Xj.:.w.j.;XpXNXMXNXCXpXx.r.:.j.|.,XDXDXDXDXDXDXDXDXDXDXDXDXDXDXDXDXDXDXDXDXDXDXDX",
"DXDXDXDXDXDXDXDXDXDXDXDXDXDXDXDXDXDXDXDXDXDXDXqX X:.} b 9.x.zXVXVXkXc.9.u { h.9XDXDXDXDXDXDXDXDXDXDXDXDXDXDXDXDXDXDXDXDXDXDXDXDX",
"DXDXDXDXDXDXDXDXDXDXDXDXDXDXDXDXDXDXDXDXDXDX8X,X<XM.x.g.!. XdXAXZXiXoXQ.w.j.>X1X,XqXDXDXDXDXDXDXDXDXDXDXDXDXDXDXDXDXDXDXDXDXDXDX",
"DXDXDXDXDXDXDXDXDXDXDXDXDXDXDXDXDXDXDXDXDX,X Xj.;XpXpXdXyXyXCXAXAXkXyX8XaXpXpXM.j.;X,XDXDXDXDXDXDXDXDXDXDXDXDXDXDXDXDXDXDXDXDXDX",
"DXDXDXDXDXDXDXDXDXDXDXDXDXDXDXDXDXDXDXDXDXh.g.j.M.2X4XaXpX5XZXAXAXVX4X5XiX4X4X>Xd.4.8.DXDXDXDXDXDXDXDXDXDXDXDXDXDXDXDXDXDXDXDXDX",
"DXDXDXDXDXDXDXDXDXDXDXDXDXDX,X,X7XoX9XqXqXg.{ j.>Xv.b.:XM.2XkXBXBXzX;XM.:Xx.m.2Xj.{ g.qXqXqXDX,X,X,X9XDXDXDXDXDXDXDXDXDXDXDXDXDX",
"DXDXDXDXDXDXDXDXDXDXDXoX<XeX:Xd.h.^.qXvX,Xg.S m  .:.M.m.M.>Xn.:XM.f.m.M.M.M.1. .N o.W.,XvXyXW.z.f.:XiX<X,XDXDXDXDXDXDXDXDXDXDXDX",
"DXDXDXDXDXDXDXDXDXDXj. Xc.VXMX>X XqXfXvX2.2.8.w.| { ,.f.kXzX:.d.f.1.zXdXf.|  .} 4.g.2.X.vXfX9Xh.;XzXVX;Xc.j.,XDXDXDXDXDXDXDXDXDX",
"DXDXDXDXDXDXDXDXDXuXaXiX>XVXNXbX)./.a 2.2.,X7Xg.m u @.d.2X4Xm.,.,.M.4X2Xf.O.u m g.,X,X4.2.o./.^.vXNXzX5XiXiXgXDXDXDXDXDXDXDXDXDX",
"DXDXDXDXDXDXDXDXDXsXdXaX2X:XzXdX).2.a ).7X7X8.a m ..q.w.:.f.,.= = ,.x.,.#.#.....a 8.7X,XW.i 3. XkXkX:X1XaXdXdXyXDXDXDXDXDXDXDXDX",
"DXDXDXDXDXDXDXDX X5XMXdX2X:.uXsXfX).4.4.).o.8.g.O.|.MX>X5 -.>.;.:.>.-.B 1XkX>Xq.).8.a ).4.a.7XvXaX4X:.1XdXNX5XoXDXDXDXDXDXDXDXDX",
"DXDXDXDXDXDXDXDX>.m.BXaX2X} } 1X7X2.a X.4.$.5XCXMXCXVXgX*.t.z.{.z.z.s.x.kXCXkXMXNX<XO.a...i 2.7X>Xv  .2XaXBX>X:.DXDXDXDXDXDXDXDX",
"DXDXDXDXDXDXDX5X:Xm.m.4Xm.@.8./.,X4.u u c.kXZXZXpXf.f.e.+.l.'.}.[.}.s.>.e.f.x.kXZXBXlX3Xm i 8.7X/.4.f.>XgXm.x.m.eXDXDXDXDXDXDXDX",
"DXDXDXDXDXDXDX;XM.m.f.<.d.:.i o.o.a : 5XVXAX5Xd.e.;.w.9.k I Q H.Q Q I C 9.t.;.l.h.4XZXCX5X4 X.2.o.c :.d.<.<.m.>X>XDXDXDXDXDXDXDX",
"DXDXDXDXDXDXDXd.m.m.<.5 1 ..3.8.a : gXAXiXc.;.;.G ~ [ `.~.[.[.+X+X[.[.`.`.] C G w.f.:XbXCX5X%.8.Q.X.N 1 5 ,.b.x.h.DXDXDXDXDXDXDX",
"DXDXDXDXDXDXDX/.:.<.<.{ 2 { 2.2.< >XVX:X:.*.F ` u.E.+X%X%XtXcXcXnXxXtX$X%X+XE.E.[ B ;.f.v.bXgXh.8.2.i ;  .<.<.:.h.DXDXDXDXDXDXDX",
"DXDXDXDXDXDXDX/. .1 5 v { ..< : m.dXM.&. .C ~ u.XXXXoX$XtXxXmXSXSXmXxXcX$XoXXXXX`.~ D G -.v.kXaX%.i X.O.v 5 = %.7XDXDXDXDXDXDXDX",
"DXDXDXDXDXDXDX/.i 2 v ..u < 2 j.5Xd.&.x ~ ` E.[.{.XXXXoX0XcXnXmXmXmXcXcX$XXX{.XX'.E.` ` B *.b.kX5X< u i ..{ : m /.DXDXDXDXDXDXDX",
"DXDXDXDXDXDXDX/.c : $.g.a : j.2Xf.5 4 V ' E.!.^.^.^.^.(.oX$X$XcXcX0X$XoX(.(.^.^.(.'.`.[ C B | M.kX:X< X.g.O.: ; g.DXDXDXDXDXDXDX",
"DXDXDXDXDXDXDXX.: : ..2.m i 2Xb.v 3 k ~ ] !.!.^.W.g.^.^.^.^.^.(.(.(.(.^.^.W.W.W.!.!.!.] ' C v *.kXCX.X4.O.m : 2 X.DXDXDXDXDXDXDX",
"DXDXDXDXDXDXDXi : : : 2 1 f.>X>.v C I ] E.p.p.p.g.W.W.W.W.W.W.W.W.Q.W.W.W.W.W.p.p.p.!.E.[ I C B :XzXbX} o 2 : : i DXDXDXDXDXDXDX",
"DXDXDXDXDXDXg...m c - 2 } >Xf.5 F L ' ] y.i.a.p.p.Q.Q.Q.Q.Q.p.Q.Q.Q.Q.Q.p.Q.p.i.a.a.y.u.] ' h 3 { 4XkXh.> - i i ..g.DXDXDXDXDXDX",
"DXDXDXDXDXDXi i ....c ..d.;X5 > I L ' 9.y.9.a.y.6._.Q.8.7.Q.6.i.7.8.Q._.6.y.i.i.y.6.a.y.y.' L ~ N :.pXkXq.m ..m i o.DXDXDXDXDXDX",
"DXDXDXDXDXDX; u X.m > { 2Xx.5 F R J L.y.5.6.6.6.6.5.6.6.7.7.y.R._.7._.8.7.7.7.8.7.6.3.5._.J.J W V 5 gXdX%.u { ..: - a.DXDXDXDXDX",
"DXDXDXDXDXDX; i S i u { b. .c I.L ' P.5.3.5.3.3.5.5.5.7._.R.R.R.R.R._._.7.5.5.5.5.5.5.5.L.P.F.L ! m m.uXf...m X.u : 4.DXDXDXDXDX",
"DXDXDXDXDXm < c m u N j.d.4 3 G.H T.J./ ^ / ^ 3./ 5.) J.J.R.~.P.P.~.P.R.J.5.) ) 5.5.) 2.) P.T.L I.x 5 m.1XO.u i u < X.DXDXDXDXDX",
"DXDXDXDXDX; ; c { c | c.f.4 x L R T.( V ^ ^ ^ S ^ ^ ) J.P.P.T.P.T.P.P.P.J.J.J.J.( ) ) ) ! H.T.J W z < d.>X&.5 ..c : u 4.DXDXDXDX",
"DXDXDXDXDX2 < %.j.2X|.x.f.1 l H T K.V r V V V V ^ ^ ) J.K.P.T.T.T.P.P.K.J.H.H.J.J.^ ( ^ ! H.K.J h g 3 <.|.>X>Xj.%.c , X.DXDXDXDX",
"DXDXDXDX%.:.c.4XuXiX2Xf.&.3 j j K E q 0 y y y p p p ( ( H.H.H.K.H.H.H.H.H.H.H.H.( H.( ( f f N.K h l 3 x.|.4XeXgX1Xb.%.$.DXDXDXDX",
"DXDXDXDXj.>X5XsX<Xw.q.>.v z h j l r 7 0 0 0 y y y p ! ! ( ( ( ( ( ! ! ! ! ( ( ( ( ( ( f f f K j j l 3 ,.x.f.r.4XdX5X:Xx.;XDXDXDX",
"DXDXDXDX>XpXc.%X-X=X'.&.5 4 h j e w 6 7 9 9 0 0 0 q q r r r r r r r r r r p f f E f f f d f d j j l 1 &.f.OX=X-X%Xc.5X>X|.:XDXDX",
"DXDXl.l.0.<Xu.Q I.I.D  .5 3 j j e w r w 6 9 & 7 & 0 0 0 9 9 0 0 0 0 0 9 9 0 0 r e r w w e d d d H j > { :.9.] I.Q 9.{.t.l.l.}.DX",
"DXDXDX*X].s.+.`.*XL.[  .5 3 j H j e f d e 7 7 $ X @ @ & $ 9 $ & $ X & $ $ $ 7 7 7 7 # 7 w d d d H 8 >  .;.9.L.*X'.D l.].*XDXDXDX",
"DXDXDXDX].`.l.0.9.Z F B 5 5 l L K d E T d w 7 % X @ @ @ X X X X X @ @ @ @ @ X . X X X 7 w d s f L 8 1  .*.B F 9.s.l.`.[.DXDXDXDX",
"DXDXDXDXDXG u.u.G F v | 5 5 l L K K F.B.E e 6 # @ . . .   . .   X X . . .     . X X # w w f s N.R g 1  .| v D 9.u.u.C 0.DXDXDXDX",
"DXDXDXDXDX; x F x x 5 } B 5 x R W T F.A.N.P e 6 7 % X           .             . # 7 6 w d s Y Z.R z 1  . .5 x x x x ; ..DXDXDXDX",
"DXDXDXDXDXt , + + + ; v  . .B I G.Y F.D.A.Y s e w 7 # X . .           .   . X # 6 e d s U T Z.G.L , 4  .| 3 + + o , c 4.DXDXDXDX",
"DXDXDXDXDX$.c t c u + 1 | | +.l G.Y Z.D.Y.A.T s e e 6 7 . . . .     . . X # 7 w e s s T N.B.C.G.g 3 v +.v ; 3 c t c #.DXDXDXDXDX",
"DXDXDXDXDXDXb b ..M , , *.*.| 3 L R W C.D.S.B.T U s d w 6 7 # # X X X # 7 w w d s T B.B.B.A.F.L x 5 *.-.3 ; M X.b b a.DXDXDXDXDX",
"DXDXDXDXDXDXb z b b : : } -.*.*.h L R Y B.S.S.C.V.U s s s e w 6 7 6 6 w w d s s T V.B.A.A.C.W k 5 | ;.-.3 : b b t b DXDXDXDXDXDX",
"DXDXDXDXDXDXX.A b ; - o = ;.:.*.x h L J U V.A.S.A.B.B.V.T U s d e e d d s U U Y B.A.B.B.Z.R h F | e.l.B : ; : b A 3.DXDXDXDXDXDX",
"DXDXDXDXDXDXDXZ b b : o + *.e.:.-.C L H K s T A.U.S.S.S.C.V.V.T s s s s T V.Z.C.A.C.Z.Y R L g  .-.l.;., - : b b A a.DXDXDXDXDXDX",
"DXDXDXDXDXDXDXZ b t t ; O o t.z.e.e.C h H K U s V.S.U.U.U.S.A.Z.V.V.V.B.B.A.A.A.B.Y T H h C *.;.n.l.3 O - t t Z A DXDXDXDXDXDXDX",
"DXDXDXDXDXDXDXDXZ z t + o + t.}.n.z.r.C j j K d s V.A.U.U.U.S.S.B.B.B.A.S.A.A.C.Y J L h C ;.<.z.z.e.+ O ; t z S DXDXDXDXDXDXDXDX",
"DXDXDXDXDXDXDXDXA b t & O , N n.@X.Xn.z.~ L j j H s s B.A.A.A.A.A.B.A.A.A.C.V.J H H h C t.<.l.n.e.3 = O O , V D DXDXDXDXDXDXDXDX",
"DXDXDXDXDXDXDXDXDXA z Z , , ; 3 }.hX@X3X3X9.h H j H H s s U T T V.V.Y V.Y T H H H l F t.n.n.#Xl., ; , > n t A DXDXDXDXDXDXDXDXDX",
"DXDXDXDXDXDXDXDXDXDXD Z x ; ; + B @XhXwXrX5Xs.C h H H H H K H H U K J J J L L L ` z.z.v.6X@Xz.3 o + , x A D DXDXDXDXDXDXDXDXDXDX",
"DXDXDXDXDXDXDXDXDXDXDXn n z ; ; q.s.wXhXjXrXrXrX X/ k L L L H H L L L L L k [ n.v.M.6XhXhX@Xt.@.; , 3 n n 4.DXDXDXDXDXDXDXDXDXDX",
"DXDXDXDXDXDXDXDXDXDXDX/ , t - ; h.B r.@XhXhXhXlXbXdXlXsX{.8 8 8 l # g {.OX.X4X2X6XwXhXjXwXr.B h.; + z , / DXDXDXDXDXDXDXDXDXDXDX",
"DXDXDXDXDXDXDXDXDXDXDXDXV , ; , {.M v r.k.@XhXwXjXlXnXCXkX<Xr.eXwXh.>XpXpXrXrXwXhXjX6Xs.r.N v {.; ; ; Z DXDXDXDXDXDXDXDXDXDXDXDX",
"DXDXDXDXDXDXDXDXDXDXDXDXDXZ , 3 .X$.q.+.v w.s.}.6X@XhXrX3X XiXeXlXaX3X4XwX6XwXhX@Xz.e.N %.q.D .Xx , D DXDXDXDXDXDXDXDXDXDXDXDXDX",
"DXDXDXDXDXDXDXDXDXDXDXDXDXDXn Z $X=.f.h.w.@.> @.z.s.z.#X{..X{.9.0.oX3X.X@X}.z.{.-.5 @.r.f.w.9.OXF V a.DXDXDXDXDXDXDXDXDXDXDXDXDX",
"DXDXDXDXDXDXDXDXDXDXDXDXDXDXDXD wX9.#.h. X| , { q.@.+.r.|.3X` ] ^ D eXn.t.=.q.w.{ = O. Xw.+.q.tXD a.DXDXDXDXDXDXDXDXDXDXDXDXDXDX",
"DXDXDXDXDXDXDXDXDXDXDXDXDXDXDXDXyX9.{ w.h.@.> @.q.B c O..X^./ u./ D {.z.M c =.r.O.< @.h.D O.s.xXDXDXDXDXDXDXDXDXDXDXDXDXDXDXDXDX",
"DXDXDXDXDXDXDXDXDXDXDXDXDXDXDXDXDXXXs.{.oX%.c q.w.F b O..X9.V ~ ~ ~ 9. XO.N 3.g.>.N %.{.w.h.#XDXDXDXDXDXDXDXDXDXDXDXDXDXDXDXDXDX",
"DXDXDXDXDXDXDXDXDXDXDXDXDXDXDXDXDXDXDXtXOX;.N w.w.F D M u.u.~ ~ L.V u.0.n +.9.w.q.v q.OX+XtXDXDXDXDXDXDXDXDXDXDXDXDXDXDXDXDXDXDX",
"DXDXDXDXDXDXDXDXDXDXDXDXDXDXDXDXDXDXDXDXtXz.+.q.+.F =.x 9.l.` ] L.[ k.D t D D #.q.=.{.tXDXDXDXDXDXDXDXDXDXDXDXDXDXDXDXDXDXDXDXDX",
"DXDXDXDXDXDXDXDXDXDXDXDXDXDXDXDXDXDXDXDXDXDXDXw.+.+.` Z n '.#X[ u.&X].n D D D @.0.oXDXDXDXDXDXDXDXDXDXDXDXDXDXDXDXDXDXDXDXDXDXDX",
"DXDXDXDXDXDXDXDXDXDXDXDXDXDXDXDXDXDXDXDXDXDXDXDXDXDXs.k.D 0.l.C u.].9.F '.s.}.DXDXDXDXDXDXDXDXDXDXDXDXDXDXDXDXDXDXDXDXDXDXDXDXDX",
"DXDXDXDXDXDXDXDXDXDXDXDXDXDXDXDXDXDXDXDXDXDXDXDXDXDXDX&X9.D ].].].k.D 0.&XDXDXDXDXDXDXDXDXDXDXDXDXDXDXDXDXDXDXDXDXDXDXDXDXDXDXDX",
"DXDXDXDXDXDXDXDXDXDXDXDXDXDXDXDXDXDXDXDXDXDXDXDXDXDXDXDXOX` D ].].=.` OXDXDXDXDXDXDXDXDXDXDXDXDXDXDXDXDXDXDXDXDXDXDXDXDXDXDXDXDX",
"DXDXDXDXDXDXDXDXDXDXDXDXDXDXDXDXDXDXDXDXDXDXDXDXDXDXDXDX0X%X` D ` ` $X0XDXDXDXDXDXDXDXDXDXDXDXDXDXDXDXDXDXDXDXDXDXDXDXDXDXDXDXDX"
};
