/* XPM */
static char *result[] = {
/* columns rows colors chars-per-pixel */
"54 64 161 2 ",
"   c #9F2E19",
".  c #A12F19",
"X  c #A5311A",
"o  c #AD341B",
"O  c #AC3A1A",
"+  c #B1371B",
"@  c #B5391C",
"#  c #BB3B1C",
"$  c #C13F1D",
"%  c #B6461C",
"&  c #BE401D",
"*  c #BB4B1C",
"=  c #C4401E",
"-  c #CC441F",
";  c #C44C1D",
":  c #CB4A1E",
">  c #D2471F",
",  c #D44A1F",
"<  c #D9491F",
"1  c #C6511D",
"2  c #CC521E",
"3  c #CE5A1F",
"4  c #D3561F",
"5  c #D25B1F",
"6  c #DC591E",
"7  c #EC511F",
"8  c #E15A1E",
"9  c #F0521F",
"0  c #D3631F",
"q  c #DE641D",
"w  c #ED601F",
"e  c #E06B1F",
"r  c #C94320",
"t  c #D44720",
"y  c #D64820",
"u  c #D94A20",
"i  c #D65320",
"p  c #DC5322",
"a  c #D55922",
"s  c #DC5B20",
"d  c #DA532C",
"f  c #DB5833",
"g  c #DC5C38",
"h  c #E14D21",
"j  c #E55122",
"k  c #EC5322",
"l  c #E45D21",
"z  c #E95B22",
"x  c #E25C2C",
"c  c #F05523",
"v  c #F15D23",
"b  c #D66020",
"n  c #DD6320",
"m  c #DC6B21",
"M  c #D2662D",
"N  c #DE612E",
"B  c #DD6A36",
"V  c #DD603C",
"C  c #E56221",
"Z  c #EC6322",
"A  c #E36F21",
"S  c #EE6A23",
"D  c #EE6A2B",
"F  c #F26623",
"G  c #F36B23",
"H  c #F36B2A",
"J  c #E47322",
"K  c #ED7722",
"L  c #E67A23",
"P  c #E87B21",
"I  c #F37423",
"U  c #F57C23",
"Y  c #F57C2F",
"T  c #F3722D",
"R  c #EA6137",
"E  c #EB6C33",
"W  c #F06031",
"Q  c #E37E36",
"!  c #E9733D",
"~  c #E07F38",
"^  c #F17033",
"/  c #DE6644",
"(  c #DB6D44",
")  c #D47B58",
"_  c #E46C48",
"`  c #F26C41",
"'  c #E07749",
"]  c #F47E43",
"[  c #E67553",
"{  c #E37758",
"}  c #F37C56",
"|  c #F2861F",
" . c #F68A1F",
".. c #EE8525",
"X. c #F48323",
"o. c #F68B23",
"O. c #F5862E",
"+. c #F78C29",
"@. c #F58030",
"#. c #F58538",
"$. c #F68C3B",
"%. c #F28B33",
"&. c #F79635",
"*. c #F7943D",
"=. c #F7993B",
"-. c #DC8B5F",
";. c #F68742",
":. c #F19142",
">. c #F6924C",
",. c #F7994F",
"<. c #F68A56",
"1. c #F4815C",
"2. c #F69751",
"3. c #F19D51",
"4. c #DB936E",
"5. c #E18B6A",
"6. c #F48764",
"7. c #F58865",
"8. c #F58F6E",
"9. c #F79C63",
"0. c #F79668",
"q. c #F69575",
"w. c #F69778",
"e. c #EFA262",
"r. c #F9AE64",
"t. c #F8A56E",
"y. c #F9B16D",
"u. c #F8A17C",
"i. c #F9B876",
"p. c #F9B67C",
"a. c #F9B97F",
"s. c #EC9B83",
"d. c #EAAD8A",
"f. c #F7A489",
"g. c #EBB38B",
"h. c #F9B58F",
"j. c #F7A990",
"k. c #F9B590",
"l. c #F8B59F",
"z. c #DFB4A7",
"x. c #F9B7A3",
"c. c #F1BDA5",
"v. c #FAC38D",
"b. c #FCD4AD",
"n. c #FAC6B4",
"m. c #FAC9B9",
"M. c #F8D3B1",
"N. c #FBD0BD",
"B. c #FCDCBD",
"V. c #FCDDC4",
"C. c #FDE0C4",
"Z. c #FDE3CA",
"A. c #FAE3D1",
"S. c #FDE9D4",
"D. c #FEEDDB",
"F. c #FDEBE2",
"G. c #FFF2E6",
"H. c #FDF1EB",
"J. c #FFFAF6",
"K. c white",
"L. c None",
/* pixels */
"L.L.L.L.L.L.L.L.L.L.L.L.L.L.L.L.L.L.L.= - - - > - - : , p l C C l u < L.L.L.L.L.L.L.L.L.L.L.L.L.L.L.L.L.L.L.",
"L.L.L.L.L.L.L.L.L.L.L.L.L.L.L.L.- - y u u u u , p l Z G F F F F F v c k j u L.L.L.L.L.L.L.L.L.L.L.L.L.L.L.L.",
"L.L.L.L.L.L.L.L.L.L.L.L.L.L.u h k k k k k j p z F F F F F F F F F F c c c c k u L.L.L.L.L.L.L.L.L.L.L.L.L.L.",
"L.L.L.L.L.L.L.L.L.L.L.L.L.j c c c c k k j l F F F I #.t.,.X.X.U U H v c c c c k j L.L.L.L.L.L.L.L.L.L.L.L.L.",
"L.L.L.L.L.L.L.L.L.L.L.< k c c c k c k j w F F I $.v.S.b.=.X.X.X.X.X.U I F v c c c k r L.L.L.L.L.L.L.L.L.L.L.",
"L.L.L.L.L.L.L.L.L.L.u c c c c c c k l Z F G Y a.D.H.h.Y G G G F F G F v G H v c c k h t L.L.L.L.L.L.L.L.L.L.",
"L.L.L.L.L.L.L.L.L.e I I I I I I S s z F G 2.C.J.N.<.F C s 5 4 2 4 s l k c z v v c c j u t L.L.L.L.L.L.L.L.L.",
"L.L.L.L.L.L.L.L.~ &.&.&.&.&.&.&.J C F G *.V.N.0.D 6 2 * * * * * * * % o - 7 c c c k k h h - L.L.L.L.L.L.L.L.",
"L.L.L.L.L.L.L.z.A.S.S.S.S.S.S.d.s Z H X.O.] H 6 2 * * 2 5 l s 2 l s : o   X - k c c k u h u - L.L.L.L.L.L.L.",
"L.L.L.L.L.L.L.3.r.r.r.r.r.r.e.B C F X.U F F 5 * * 5 8 G I U n ; X.X.U C t o   @ j k k h h h u L.L.L.L.L.L.L.",
"L.L.L.L.L.L.P o. .o. . . .| e 8 Z U X.F Z 2 * 2 8 G $.y.=.o.5 ; P U I F c k $ . o y h u h h h u L.L.L.L.L.L.",
"L.L.L.L.L.m X.X.o.X.o.o.X.A p 8 I X.G Z 2 * 4 w @.p.D.b.&...a u i F F k c c c y X X = y u h h u - L.L.L.L.L.",
"L.L.L.L.L.k F v F v v v z , p S X.G Z 2 * 6 F >.B.J.b.&.+.A s j : Z F c c c k c u o X = t u h h > L.L.L.L.L.",
"L.L.L.L.u c c c c c c k u u p I I F s * 4 F t.G.D.i.o.U ^ a Z k = z v c c c c c c y X o - - u h u $ L.L.L.L.",
"L.L.L.L.k c c c c c c k > < p U G C * 2 T h.Z.v.=. .U F E M G k r p v c c c c c c c - . @ r > u u - L.L.L.L.",
"L.L.L.- h j h h h h h y y < l G Z 1 1 w ;.y.=.o.X.I F F ! Q F k u : k c c c c c c c k @ X $ - t u > $ L.L.L.",
"L.L.L.> y y u y u y y > y y z v s * l G o.o.o.o.G F F F ' :.9 k h $ k c c c c c c c j y X + r - u t = L.L.L.",
"L.L.L.y u u u u y y > > u u k j * 2 F X.o.o.X.I F F F w ) ,.v k h - u c c c c c c c h h $ . $ - t t - L.L.L.",
"L.L.- u u y y u y y - y y j k = O l I o.o.o.I F F F F 8 4.9.9 c h u r c c c c c c c h h y X o r - - - $ L.L.",
"L.L.> u y < u y y y - y > j j o # Z o.o.o.I F F F F F 4 g.u.9 c u h r k c c c c c k h h u # . # > r - - L.L.",
"L.L.y y u u y u u > - t - j - X y I o.o.U F F F F F z 5 M.x.9 c h h > h c c c c c j h h h - . o - - r - L.L.",
"L.- u u u y y u y - - - > h O o z o.o.X.F F F H H H E -.F.F.8.` x d h - c c c c c h h h h y + . # - - $ # L.",
"L.- < y y u u > y - - = > , X # G o.o.Z k z x N ( 5.c.H.K.K.H.m.s.{ R r - y u h h u u h h h $ . + = - - $ L.",
"L.> u y u u u u y - - # > $ X - a b a : 2 5 5 m A L %.r.G.F.} W h u j j y > - $ $ $ $ $ $ $ # . o $ - $ $ L.",
"L.y u y u y u u > > $ $ - + X < 1 m | ..X.X.U U I G F v n.n.c c u u u c k k k h u u y < $ @ $ o X # = = $ L.",
"= y u u y < u y > $ $ # = o + S ..3 ..G F v c c c c c c j.x.c k u u u u u u u u < u > $ @ $ u + X + = = $ # ",
"$ u y u y u y y t $ $ $ = X # I o.s 5 K k k c c c c c 9 q.f.c k u y u y u y u y u > $ # $ h h $ X o # = = # ",
"- y u y u y y < - > $ # # . = X.o.F , q G h h k c c c 9 6.q.9 j u u y u y u y u > $ # # u h h $   o @ $ r # ",
"- < > < > < > < $ > $ @ # . ; U U v c , m Z < u h j k c } 6.9 u y u u y u y u t # # # , h h h r X X @ = = # ",
"# $ $ $ $ $ $ # $ > $ @ + . - L S c c k , J z , y y u < _ [ < > u y u u y u r # # # > h h h h - X X o = = # ",
"@ # # # # # # # # t $ @ @ . - J l k c c k 2 A j u u y < g _ > < < y y y y - # @ @ - h h h h j = X X o = = $ ",
"@ # # # # # # # $ $ # + + . = J j u j k k j 4 S h u u < f g < < y u y < - @ + @ - h h u h h u = X o o # = # ",
"@ # # # # # # @ # > # + o   = m j h h h h k u 2 Z u y y d d < y u u u > + o + $ h h h h h u > - . X o # = $ ",
"@ @ # # # # # # $ - # + O X = s u h h h h h j > a z u y u u u u u y u $ o + $ h h h h h u , y $ X o o # = # ",
"@ # # # # # # # # - $ + + . # i j h h h h h h h : C h y u y < y y y u > + + t h h h h u , > > $ X X o # = & ",
"+ # # # # # # # # - $ + + . # , h u h h h h h u 2 S k u y u u y u u < > + o t h h h u < > > > $ X o o # $ & ",
"@ @ # # @ # # # # = $ + + X @ > u h h h h h h y b F c u u y u u y u y > # o $ h h u < > > > r #   o o # r # ",
"+ $ $ @ # # # # # $ $ + + X O r t u h h h h h : m v c j y u y > > y u > $ + # h u > , > , > - +   o o # r @ ",
"+ @ @ $ # # # # # $ = + o X o - - y u h u h h ; K c c h y u > $ $ $ > < $ + + > > > > > > > - o X o o & & @ ",
"L.@ $ @ # # # # # # = + o o . = - t h h h h u a U c k u y y $ $ $ $ $ $ $ + + $ < > > > y - $ o X o o $ $ L.",
"L.# # # # # # # # # $ @ o o . # - r y h h h , m H c j y y r @ o $ $ $ $ $ # + # > < > > t $ $ . X o + $ $ L.",
"L.# # # # # # # @ # $ # o o X o - > - u h u : P F k h y t # X o X @ $ $ $ # + @ $ < > > r = @ . o o @ r & L.",
"L.@ # # # # # # # # $ $ o o o X = - r > u u 2 X.v k u t $ @ $ > + o + $ $ $ + + $ > > > = = o . + o # $ # L.",
"L.L.# # # @ # # # # $ $ + o o   @ = - = , > 0 X.c h t = + $ u y $ @ o o # $ + # $ > > $ = # . o o o $ $ L.L.",
"L.L.o + o o + o + + # $ @ o o   o $ = = = # L U j u = @ r r t t < > $ + + + # @ # $ $ - $ # . o o @ r # L.L.",
"L.L.o + o o o o o o + $ & o o o . # = = $ ; X.G u $ $ t t t t t > < < $ + + o @ # $ $ $ $ . . o o @ r # L.L.",
"L.L.L.+ o o o o o o o # r o o o . o = = # 3 o.s # $ t t t t t t > > > < > $ + @ # # $ $ @ . o o + & & L.L.L.",
"L.L.L.o o o o o o o o @ r @ o o X   @ = & m n # $ $ r r t t t t > > > $ $ $ # + # + $ $ . . + o + $ & L.L.L.",
"L.L.L.o o o o o o o o + $ $ o o o   X $ # ; @ $ r r $ $ $ r r r r r r r $ r r & @ o & o . O o o # = # L.L.L.",
"L.L.L.L.o o o o o o o o # $ @ o o o   o + # r $ $ $ $ r $ r $ $ $ $ $ $ $ $ $ $ $ @ o . X o o o $ $ L.L.L.L.",
"L.L.L.L.o o o o o o o o + $ $ o + o X   o r $ & $ $ $ r $ $ $ r $ r r $ r $ & $ r @ . X o o o # r # L.L.L.L.",
"L.L.L.L.L.X o o o o o o o # $ @ o o o X   @ $ r r r $ $ $ r $ $ $ $ $ $ r $ r $ #   . o o o o $ & L.L.L.L.L.",
"L.L.L.L.L.o o o o o o o o + $ $ o o o o X   o & $ r & r $ $ r $ = = $ r & r & #     o o o o # $ @ L.L.L.L.L.",
"L.L.L.L.L.L.o o o o o o o o @ $ # o o o o X X o # & r & $ r $ $ = = = $ r & o     o o o o + r # L.L.L.L.L.L.",
"L.L.L.L.L.L.L.o o o o o o o o # & @ o o o o X     o # r $ r $ r $ r $ $ @ X   X o o o o + # $ L.L.L.L.L.L.L.",
"L.L.L.L.L.L.L.o o o o o o o o o $ $ @ o o o o o X     o o # # # @ + o .     o o o o o o @ r @ L.L.L.L.L.L.L.",
"L.L.L.L.L.L.L.L.o o o o o o o o @ $ $ o o o o o o X X                 . X o o o o o o @ r @ L.L.L.L.L.L.L.L.",
"L.L.L.L.L.L.L.L.L.o o o o o o o o @ $ $ @ o o o o o o o o X X X X X o o o o o o o + @ $ # L.L.L.L.L.L.L.L.L.",
"L.L.L.L.L.L.L.L.L.L.+ o o o o o o o o r & @ o o o o o o o o + o + o o o o o o o + # $ # L.L.L.L.L.L.L.L.L.L.",
"L.L.L.L.L.L.L.L.L.L.L.o X X X X X X X o $ r # o o o o o o + o o o o + o o o o # $ $ # L.L.L.L.L.L.L.L.L.L.L.",
"L.L.L.L.L.L.L.L.L.L.L.L.L.. . .         X @ $ r & o o o o o o o o o o o @ # $ & & L.L.L.L.L.L.L.L.L.L.L.L.L.",
"L.L.L.L.L.L.L.L.L.L.L.L.L.L.. .             X $ r r & # @ @ @ o @ @ # & & $ & # L.L.L.L.L.L.L.L.L.L.L.L.L.L.",
"L.L.L.L.L.L.L.L.L.L.L.L.L.L.L.L.                o @ r $ r & $ $ $ $ $ $ & # L.L.L.L.L.L.L.L.L.L.L.L.L.L.L.L.",
"L.L.L.L.L.L.L.L.L.L.L.L.L.L.L.L.L.L.L.              X o @ # & $ & # # L.L.L.L.L.L.L.L.L.L.L.L.L.L.L.L.L.L.L."
};
