/* XPM */
static char *result[] = {
/* columns rows colors chars-per-pixel */
"30 64 89 1 ",
"  c #9F2E19",
". c #A22F19",
"X c #A5311A",
"o c #AC341A",
"O c #B1361B",
"+ c #B5391C",
"@ c #BB3B1C",
"# c #C13E1D",
"$ c #B5451C",
"% c #BA431C",
"& c #B7481C",
"* c #BC4A1C",
"= c #C5401E",
"- c #CC441F",
"; c #C44E1D",
": c #CB4C1E",
"> c #D2461F",
", c #D34B1F",
"< c #C5511D",
"1 c #CD531E",
"2 c #CD5A1E",
"3 c #D3541F",
"4 c #DA541E",
"5 c #D3591F",
"6 c #DC5A1F",
"7 c #E75E1F",
"8 c #DE631E",
"9 c #D44720",
"0 c #D64920",
"q c #D94A20",
"w c #D75520",
"e c #DB5420",
"r c #D65920",
"t c #DD5B21",
"y c #E24E21",
"u c #E45222",
"i c #EB5322",
"p c #E45C21",
"a c #EE5B23",
"s c #F05523",
"d c #F15C23",
"f c #DC6420",
"g c #DC6920",
"h c #DF7020",
"j c #E46121",
"k c #EC6322",
"l c #E36B22",
"z c #EB6B22",
"x c #E16A2F",
"c c #F26623",
"v c #F36923",
"b c #EB7522",
"n c #EA7B22",
"m c #F37222",
"M c #F37A23",
"N c #F4752D",
"B c #F4782C",
"V c #F47E34",
"C c #DF7545",
"Z c #F0841F",
"A c #F68A1F",
"S c #F58423",
"D c #F68923",
"F c #F68F2C",
"G c #E78130",
"H c #F08C30",
"J c #F79635",
"K c #F39846",
"L c #F7984F",
"P c #F38551",
"I c #EE9B54",
"U c #F79355",
"Y c #F39D73",
"T c #F0A665",
"R c #F9AE64",
"E c #F6A06A",
"W c #F9AF69",
"Q c #FABA8A",
"! c #EAB196",
"~ c #FAC187",
"^ c #FCC699",
"/ c #FBCC9F",
"( c #E9C3B2",
") c #FBD1B7",
"_ c #FDD7BB",
"` c #FDDFBE",
"' c #FDE2D0",
"] c #FDE9D4",
"[ c None",
/* pixels */
"[[[[[[[[tpe--9-9>>>>>#[[[[[[[[",
"[[[[[[[kcvdiq0q0,>q0qq>[[[[[[[",
"[[[[[[pccccsiqiiiiiiiii>[[[[[[",
"[[[[[6cVLSmssiyississssi[[[[[[",
"[[[[[kB/WSSmsiqsssssssssi[[[[[",
"[[[[tvQ)Ncvccsyudissssssi0[[[[",
"[[[[7U'P71ridsyemmmmvmmmmz[[[[",
"[[[3zQY4&&&%ysieFJJJJJJJJJ[[[[",
"[[[wNHt*3;5++iiq!]]]]]]]]]([[[",
"[[[pmk<wm<bjo-iqCRRRRRRRRRI[[[",
"[[[zmw1VK&lc9O4y4ZDADAAAAAA[[[",
"[[wzz1l^T%4di@#q4nDDSDDDDDDl[[",
"[[4bf3E`G=rss0O9quddcddddddu[[",
"[[wv1x_R89:ssi@#q9isssssssdu[[",
"[[ez1Y~S5q>sss##99issssssssi[[",
"[=ujrLFm1u#iss0+9>yyyyyyyyyy>[",
"[-uwfDSc1i-ussy+---00q0qyqqq#[",
"[-u:bDmk1a-qssy@=-9q0qq0y#9q>[",
"[-q=MDvk5a>qdsi@#--0qqq0qqqq>[",
"[9q;SMcp5d99ssy-+-=0qq0q9qqq>[",
"[9-:Svvpfa9>siy>o>#qqq9qqqq>y[",
"@-#rDvvwlsq-ssy9o==9qqqqq>qqq[",
"@-@fMue1lsq-9yqqO=#9q99qqqqqq#",
"@=+;2rgnmiyy-###o##>qqqqqqqqy#",
"##O*nSMvsiqiiq>@X@=>9qqqqqqqy#",
"##@2ldssssqqqq>@@O#>qqq9q9q9y#",
"#@%lrisssiqqq9#==o#-9qqqq9q9q#",
"#@%b1uiisiqqq-@0=o#-qqqqqqqqy#",
"#+%m0ryisiq00#@q=o#=qq9999#yq#",
"#+%zy1qqqq0q>+-y-o#@##########",
"#+%pi:qqqqq0#Oqy=o#@@@@@#@@@#+",
"#O%tiqwqqqq9+@qy=X@@@@@@@@@@#O",
"#OO7yy-4qqy#O#yy#o+#+##@@@@@@@",
"=O+yy4-,qqq#Oqyy#.#O#++@@@@@@+",
"#O+4qy-,qqq##yy##.+#+#@@@@@@@+",
"#OO>yy-yqqq#Oqyq#o#O#+@@@@@@#+",
"@+o,yy=4qyy#Oy#y#.#+@@@@@@@@@+",
"@+O>yy-7q#y#Oqy#Oo+#@@@@@@#@@+",
"@+o-yq>syq##O#y#Oo#O@@@@@@@@@+",
"@+o=qq>sq###O#qqOo#+@@@@@@@@@+",
"@+X=q03iq###O#q#oo@+#+@#@@@@@O",
"@+o@0>ru#.o#OOy#oO#O+#++@@@@@O",
"[+o@-:tu##.##O##XO###+#+@@@#@[",
"[@oo-=j,##OO#O##XO#O+#+#@@@@@[",
"[@oO#%p-#y#OOO##Xo#ooOooOooOO[",
"[@OX@;p@#yy#oo#Oo#ooooooooooo[",
"[@Oo@;1=q#q#Oo#oo#Ooooooooooo[",
"[@OXO%%=q#q##oOooOOoooooooooo[",
"[@@Xoo%======ooXO@oooOooooooo[",
"[[@o.O====#==@XXO@ooooooOOoo[[",
"[[@oX+===#====XoOOoooooooooo[[",
"[[@OXo====#==+XO@Ooooooooooo[[",
"[[@+oX@=====#oXO@ooooOoooooo[[",
"[[[@oXo=====+XoO@oooooooooO[[[",
"[[[@Oo +#==@XXo+OooOooooooo[[[",
"[[[@+oX.O++XXoO+Ooooooooooo[[[",
"[[[@+oOX   Xoo++oooooooooo[[[[",
"[[[[#OOoXXXXoo++oooooooooo[[[[",
"[[[[+@ooOOOOoo@ooooooooooo[[[[",
"[[[[[#+oOXXOo@+XXXXXoXXX.[[[[[",
"[[[[[@=ooooo$@X         [[[[[[",
"[[[[[[##@O+@=X          [[[[[[",
"[[[[[[[#====o         .[[[[[[[",
"[[[[[[[[@@@X          [[[[[[[["
};
