/* XPM */
static char *result[] = {
/* columns rows colors chars-per-pixel */
"64 64 189 2 ",
"   c #767442",
".  c #6F7B4F",
"X  c #6B747B",
"o  c #657C7A",
"O  c #6B797D",
"+  c #8D633A",
"@  c #836D3E",
"#  c #91643B",
"$  c #93693D",
"%  c #996B3E",
"&  c #9A633C",
"*  c #B85F42",
"=  c #9E6F41",
"-  c #926A42",
";  c #8B7644",
":  c #927041",
">  c #AE6441",
",  c #AD7A47",
"<  c #AE7B48",
"1  c #AF7746",
"2  c #B17A47",
"3  c #BF7249",
"4  c #B17C49",
"5  c #B97A4A",
"6  c #AA7E5C",
"7  c #A37C54",
"8  c #B76242",
"9  c #817D63",
"0  c #DD5C49",
"q  c #D55F48",
"w  c #E05748",
"e  c #E05848",
"r  c #CD6C49",
"t  c #DA6349",
"y  c #D56C4B",
"u  c #D7674A",
"i  c #CB7C4F",
"p  c #CB774C",
"a  c #D2714C",
"s  c #369B56",
"d  c #23A55A",
"f  c #29A359",
"g  c #2EAE60",
"h  c #3CA46C",
"j  c #35AB69",
"k  c #31AF67",
"l  c #27B362",
"z  c #29B664",
"x  c #27B966",
"c  c #2AB966",
"v  c #2ABD69",
"b  c #3ABE6B",
"n  c #3DB573",
"m  c #3ABB73",
"M  c #589E59",
"N  c #5F9654",
"B  c #55874B",
"V  c #6A885E",
"C  c #72815E",
"Z  c #769C59",
"A  c #47A85E",
"S  c #57A75E",
"D  c #69A65D",
"F  c #73A05B",
"G  c #5C8376",
"H  c #5A8D79",
"J  c #588A76",
"K  c #4D9371",
"L  c #4F9C76",
"P  c #549477",
"I  c #529977",
"U  c #519C6A",
"Y  c #7B8A69",
"T  c #62827A",
"R  c #7A9973",
"E  c #4BAC66",
"W  c #5DAE62",
"Q  c #43BE6A",
"!  c #48BA68",
"~  c #59B063",
"^  c #4BA276",
"/  c #44AC75",
"(  c #4FA279",
")  c #4AAA78",
"_  c #50A179",
"`  c #44BA7A",
"'  c #47B47A",
"]  c #53B47E",
"[  c #63AF62",
"{  c #76AC62",
"}  c #6CB27E",
"|  c #6AB064",
" . c #2CC46C",
".. c #2CCB6F",
"X. c #35C56E",
"o. c #3AC46D",
"O. c #33C96F",
"+. c #38C86F",
"@. c #2ECC71",
"#. c #35C573",
"$. c #3BC175",
"%. c #31CB72",
"&. c #3ACC76",
"*. c #3DD07B",
"=. c #44C26C",
"-. c #4BCB7C",
";. c #52CC7D",
":. c #978A4F",
">. c #9C874E",
",. c #8F8F52",
"<. c #938C51",
"1. c #8C9153",
"2. c #849655",
"3. c #A3834D",
"4. c #B7814B",
"5. c #BD854E",
"6. c #A88E52",
"7. c #B68D52",
"8. c #AC9356",
"9. c #A59556",
"0. c #8CA15C",
"q. c #A98A6B",
"w. c #AB8563",
"e. c #B08664",
"r. c #B28D68",
"t. c #BF976F",
"y. c #AF8E71",
"u. c #A5A87A",
"i. c #C1854E",
"p. c #CA804F",
"a. c #C1884F",
"s. c #C58550",
"d. c #C48A51",
"f. c #C88350",
"g. c #C19971",
"h. c #C4A27F",
"j. c #6F7981",
"k. c #717B83",
"l. c #698280",
"z. c #6D978A",
"x. c #73928D",
"c. c #5CA683",
"v. c #55AC81",
"b. c #61A185",
"n. c #4DD486",
"m. c #57D48B",
"M. c #7CCD8B",
"N. c #63D995",
"B. c #6ADB9A",
"V. c #72DD9F",
"C. c #77C799",
"Z. c #75DDA2",
"A. c #79DEA4",
"S. c #9EAD8C",
"D. c #AFAC9B",
"F. c #B1B689",
"G. c #D7B696",
"H. c #D8B797",
"J. c #B3CE9E",
"K. c #9FD6B6",
"L. c #8EE3B2",
"P. c #91E4B4",
"I. c #87E2AD",
"U. c #D2CFA9",
"Y. c #D3C3B4",
"T. c #D6C7B9",
"R. c #D6C8BA",
"E. c #C7CFA5",
"W. c #E3C4A5",
"Q. c #EACDAF",
"!. c #E7CDAE",
"~. c #ECCFB1",
"^. c #F2CFB3",
"/. c #EDD0B2",
"(. c #B3DEC5",
"). c #A7EAC3",
"_. c #A9EAC5",
"`. c #B5E0C8",
"'. c #CFCFC4",
"]. c #DADBD3",
"[. c #E4E6DE",
"{. c #DAF6E6",
"}. c #F2EEEB",
"|. c #EAF6EE",
" X c #F3F1EE",
".X c #FBFBFB",
"XX c #F4FBF7",
"oX c #E9FAF0",
"OX c None",
/* pixels */
"OXOXOXOXOXOXOXOXOXOXOXOXOXOXOXOXOXOXOXOXOXOXOXOXOXOXOXOXOXOXOXOXOXOXOXOXOXOXOXOXOXOXOXOXOXOXOXOXOXOXOXOXOXOXOXOXOXOXOXOXOXOXOXOX",
"OXOXOXOXOXOXOXOXOXOXOXOXOXOXOXOXOXOXOXOXOXOXOXOXOXOXOXOXOXOXOXOXOXOXOXOXOXOXOXOXOXOXOXOXOXOXOXOXOXOXOXOXOXOXOXOXOXOXOXOXOXOXOXOX",
"OXOXOXOXOXOXOXOXOXOXOXOXOXOXOXOXOXOXOXOXOXOXOXOXOXOXOXOXOXOXOXOXOXOXOXOXOXOXOXOXOXOXOXOXOXOXOXOXOXOXOXOXOXOXOXOXOXOXOXOXOXOXOXOX",
"OXOXOXOXOXOXOXOXOXOXOXOXOXOXOXOXOXOXOXOXOXOXOXOXOXOXOXOXOXOXOXOXOXOXOXOXOXOXOXOXOXOXOXOXOXOXOXOXOXOXOXOXOXOXOXOXOXOXOXOXOXOXOXOX",
"OXOXOXOXOXOXOXOXOXOXOXOXOXOXOXOXOXOXOXOXOXOXOXOXOXOXOXOXOXOXOXOXOXOXOXOXOXOXOXOXOXOXOXOXOXOXOXOXOXOXOXOXOXOXOXOXOXOXOXOXOXOXOXOX",
"OXOXOXOXOXOXOXOXOXOXOXOXOXOXOXOXOXOXOXOXOXOXOXOXOXOXOXOXOXOXOXOXOXOXOXOXOXOXOXOXOXOXOXOXOXOXOXOXOXOXOXOXOXOXOXOXOXOXOXOXOXOXOXOX",
"OXOXOXOXOXOXOXOXOXOXOXOXOXOXOXOXOXOXOXOXOXOXOXOXOXOXOXOXOXOXOXOXOXOXOXOXOXOXOXOXOXOXOXOXOXOXOXOXOXOXOXOXOXOXOXOXOXOXOXOXOXOXOXOX",
"OXOXOXOXOXOXOXOXOXOXOXOXOXOXOXOXOXOXOXOXOXOXOXOXOXOXOXOXOXOXOXOXOXOXOXOXOXOXOXOXOXOXOXOXOXOXOXOXOXOXOXOXOXOXOXOXOXOXOXOXOXOXOXOX",
"OXOXOXOXOXOXOXOXOXOXOXOXOXOXOXOXOXOXOXOXOXOXOXOXOXOXOXOXOXOXOXOXOXOXOXOXOXOXOXOXOXOXOXOXOXOXOXOXOXOXOXOXOXOXOXOXOXOXOXOXOXOXOXOX",
"OXOXOXOXOXOXOXOXOXOXOXOXOXOXOXOXOXOXOXOXOXOXOXOXOXOXOXOXOXOXOXOXOXOXOXOXOXOXOXOXOXOXOXOXOXOXOXOXOXOXOXOXOXOXOXOXOXOXOXOXOXOXOXOX",
"OXOXOXOXOXOXOXOXOXOXOXOXOXOXOXOXOXOXOXOXOXOXOXOXOXOXOXOXOXOXOXOXOXOXOXOXOXOXOXOXOXOXOXOXOXOXOXOXOXOXOXOXOXOXOXOXOXOXOXOXOXOXOXOX",
"OXOXOXOXOXOXOXOXOXOXOXOXOXOXOXOXOXOXOXOXOXOXOXOXOXOXOXOXOXOXOXOXOXOXOXOXOXOXOXOXOXOXOXOXOXOXOXOXOXOXOXOXOXOXOXOXOXOXOXOXOXOXOXOX",
"OXOXOXOXOXOXOXOXOXOXOXOXOXOXOXOXOXOXOXOXOXOXOXOXOXOXk.k.k.k.k.k.OXOXOXOXOXOXOXOXOXOXOXOXOXOXOXOXOXOXOXOXOXOXOXOXOXOXOXOXOXOXOXOX",
"OXOXOXOXOXOXOXOXOXOXOXOXOXOXOXOXOXOXOXOXOXOXOXk.k.k.k.k.k.k.k.k.OXOXOXOXOXOXOXOXOXOXOXOXOXOXOXOXOXOXOXOXOXOXOXOXOXOXOXOXOXOXOXOX",
"OXOXOXOXOXOXOXOXOXOXOXOXOXOXOXOXOXOXOXOXOXk.k.k.k.k.k.k.k.k.k.k.k.k.k.k.k.k.j.k.j.j.X X X OXOXOXOXOXOXOXOXOXOXOXOXOXOXOXOXOXOXOX",
"OXOXOXOXOXOXOXOXOXOXOXOXOXOXOXOXOXOXOXOXk.k.k.k.k.k.k.k.k.k.k.k.k.k.k.k.j.j.X O X X X X X X X X OXOXOXOXOXOXOXOXOXOXOXOXOXOXOXOX",
"OXOXOXOXOXOXOXOXOXOXOXOXOXOXOXk.k.OXk.k.k.k.k.k.j.j.j.j.k.k.k.j.X X X X X X X X X X X X X X X OXOXOXOXOXOXOXOXOXOXOXOXOXOXOXOXOX",
"OXOXOXOXOXOXOXOXOXOXOXOXOXOXOXk.k.k.k.k.k.k.k.k.X X X X j.j.j.X X X X X X X X X X X X X X X X OXOXOXOXOXOXOXOXOXOXOXOXOXOXOXOXOX",
"OXOXOXOXOXOXOXOXOXOXOXOXOXOXk.k.k.k.k.k.k.k.k.O X X X X X X X X X X X X X X X X X X X X X X X X O k.k.k.k.OXOXOXOXOXOXOXOXOXOXOX",
"OXOXOXOXOXOXOXOXOXOXOXOXOXk.k.k.k.k.k.k.k.X O X X X X X X X X X X X X X X X X X X X X X X X X X X j.k.k.k.OXOXOXOXOXOXOXOXOXOXOX",
"OXOXOXOXOXOXOXOXOXOXOXOXOXk.k.k.k.k.k.j.X X X X X X X X X X X X X X X X X X X X X X X X X X X X X j.k.k.k.OXOXOXOXOXOXOXOXOXOXOX",
"OXOXOXOXOXOXOXOXOXOXOXOXk.k.k.k.k.k.X X X X X X X o X X X X X X X X X X X X X X X X X X X X X X X j.k.k.k.OXOXOXOXOXOXOXOXOXOXOX",
"OXOXOXOXOXOXOXOXOXOXOXOXk.k.k.j.j.X X X X O X o h h K K J o o X X X X X X X X X X X X X X X X X X O k.k.k.OXOXOXOXOXOXOXOXOXOXOX",
"OXOXOXOXOXOXOXOXOXOXOXOXk.k.j.O X X X X X X T h z x x z z g h h K X X X X X X X X X X X X X X X X X k.k.k.OXOXOXOXOXOXOXOXOXOXOX",
"OXOXOXOXOXOXOXOXOXOXOXOXj.O X X X X X X j.l./ v v c c c z z x x f o X X X X X X X o X X X X X X X O k.k.k.OXOXOXOXOXOXOXOXOXOXOX",
"OXOXOXOXOXOXOXOXOXOXOXOXOXX X X X X o L _ ) @.@.@.%.@. . . .v v x K X X X X X X X X X X X X X X X k.k.k.k.OXOXOXOXOXOXOXOXOXOXOX",
"OXOXOXOXOXOXOXOXOXOXOXOXOXX X X O G / @.@.@.@.%.@.@.@.@.@.@.@.@...n o X o o o o j.O T H L I X X X X k.k.OXOXOXOXOXOXOXOXOXOXOXOX",
"OXOXOXOXOXOXOXOXOXOXOXOXOXX X X X P @.@.@.@.$.m #.$.#.#.#.%.@.@...@.m n n m m / ( ' m #.@.n G O X j.k.k.OXOXOXOXOXOXOXOXOXOXOXOX",
"OXOXOXOXOXOXOXOXOXOXOXOXOXX X X X T m @.@.@.] x.x.z.z.z.z.v.#.@.@.@.@.@.@.] c.z.c.c.c.c.] %.H X X j.k.k.OXOXOXOXOXOXOXOXOXOXOXOX",
"OXOXOXOXOXOXOXOXOXOXOXOXX X X X X X ^  .@.@.%.$.` ` ` ` ` ` @.@.@.@.@.@.%.' c.v.c.c.c.c.' @.^ o X k.k.OXOXOXOXOXOXOXOXOXOXOXOXOX",
"OXOXOXOXOXOXOXOXOXOXOXOXX X X X X X H #.@.@.@...@.......@.@.@.@.@.@.@.@.@.@.....@...@.@.@.@.m o j.k.OXOXOXOXOXOXOXOXOXOXOXOXOXOX",
"OXOXOXOXOXOXOXOXOXOXOXOXX X X X X o / %.@.@.%.A.).).).).L.&.@.@.@.@.@.@.@.@.N.Z.Z.Z.Z.B.%.@.%.T j.k.OXOXOXOXOXOXOXOXOXOXOXOXOXOX",
"OXOXOXOXOXOXOXOXOXOXOXOXX X X X o L %... .O.@.N.{..X.XoXI.@.%.%.@.@.%.@.@.@.P.XX.X.XoXP.%.@.@._ j.OXOXOXOXOXOXOXOXOXOXOXOXOXOXOX",
"OXOXOXOXOXOXOXOXOXOXOXOXOXX X X L %... .l v @.@.n.Z.Z.n.@.@.@.%.o.X.$.m #.%.*.A.)._.V.%.@.@.@.$.OXOXOXOXOXOXOXOXOXOXOXOXOXOXOXOX",
"OXOXOXOXOXOXOXOXOXOXOXOXOXOXo P #...@.@.z l  .%.@.@.....@.n.b.0.Y Y Y . V V E @.@.@.@.@.@.@.@.@.OXOXOXOXOXOXOXOXOXOXOXOXOXOXOXOX",
"OXOXOXOXOXOXOXOXOXOXOXOXOXOXm %.@.@.%.@. .z z  .@.@.@.@.*.).|.[.].'.D.. . V E @.@.@.@.@.@.@.@.@.OXOXOXOXOXOXOXOXOXOXOXOXOXOXOXOX",
"OXOXOXOXOXOXOXOXOXOXOXOXOXOXOX@.@.@.@.@.@. .x x @.@.@.@.@.n.N.N.B.B.m.$.m %.@.@.@.@.@.@.@.@.@.F OXOXOXOXOXOXOXOXOXOXOXOXOXOXOXOX",
"OXOXOXOXOXOXOXOXOXOXOXOXOXOXOXo.@.@.@.@.@.@... .@.@.@.@.@.@.@.@.@.@.@.@.@.@.@.@.@.@.@.@.@.@.! 8.4.4.OXOXOXOXOXOXOXOXOXOXOXOXOXOX",
"OXOXOXOXOXOXOXOXOXOXOXOXOXOX< <.W o.o.o.#.o.o.X.@. .@.....O.O.O.@.@.@.@.@.@.@.@.@.@.@.@.@.=.0.d.d.4.< , OXOXOXOXOXOXOXOXOXOXOXOX",
"OXOXOXOXOXOXOXOXOXOXOXOXOX< < 2 < 3.>.<.<.<.<.,.Z E g l l l l z z z z z z l E M M S | | { 9.d.d.5.4 < < < OXOXOXOXOXOXOXOXOXOXOX",
"OXOXOXOXOXOXOXOXOXOXOXOX< 4 , < < , 4 , 4 4 , 4 , :   B s f d d d d d d d s   # # # % 5.d.d.d.d.d.4 , 4 , < OXOXOXOXOXOXOXOXOXOX",
"OXOXOXOXOXOXOXOXOXOXOX< 2 < < < < < , 4 , 4 4 , 1 % + + @   S ] C.K.(.(.`.S.@ + # + % 5.d.d.d.d.a.4 2 4 2 4 OXOXOXOXOXOXOXOXOXOX",
"OXOXOXOXOXOXOXOXOXOXOX3.1.:.3., 4 < 4 , 4 , , 4 5 5.= # + + q.[.XX.X.X.X}.q.+ + + = 2 5.5.5.d.d.a.3.2.Z F 1.OXOXOXOXOXOXOXOXOXOX",
"OXOXOXOXOXOXOXOXOXOXOXO.+.o.=.2., 2 2 2 , 4 , 3 t y r 8 & + + Y..X.X.X.XR.- + # = 4 4 4 4 4.s.d.7.[ @.@.@.@.OXOXOXOXOXOXOXOXOXOX",
"OXOXOXOXOXOXOXOXOXOXOX@.@.@...Q 1.:.<.:.< < 2 q e e u i 1 $ + q.}..X.X}.q.+ $ < 5.d.d.5.d.5.d.d.8.=.@.@.@.@.OXOXOXOXOXOXOXOXOXOX",
"OXOXOXOXOXOXOXOXOXOX%.@.@.@.@.%.o.o...+.W <.3 0 e t i d.a.4 $ - Y..X.XT.- $ 4 d.d.d.d.d.d.d.d.d.8.=.@.@.%.@.OXOXOXOXOXOXOXOXOXOX",
"OXOXOXOXOXOXOXOXOXOX@.@.@.@.@.@.@.@.%.@.+.0.d.i y u d.d.d.d.4.= q. X Xq.= 4.d.d.d.d.d.d.d.d.d.d.8.=.@.@.@.@.@.OXOXOXOXOXOXOXOXOX",
"OXOXOXOXOXOXOXOXOXOX@.@.@.@.@.@.@... .X.{ 7.d.d.p.i f.d.4.5.d.4., Y.T.7 5 d.d.d.d.d.s.s.d.d.d.d.8.=.@.@.@.@.@.OXOXOXOXOXOXOXOXOX",
"OXOXOXOXOXOXOXOXOX@.@.@.@.@.@.@.@... .c D 8.d.d.d.d.d.d.4.4.4.d.5.t.g.a.d.d.d.d.d.f.y a d.d.d.d.8.=.@.%.@.@.@.OXOXOXOXOXOXOXOXOX",
"OXOXOXOXOXOXOXOXOX@.@.@.%... . . .@.@. .x S 7.d.d.d.d.d.5.4.4.5.d.d.d.d.d.s.p.i i u e a d.d.d.d.8.=.@.@.@.@.%.OXOXOXOXOXOXOXOXOX",
"OXOXOXOXOXOXOXOXOX@.@.@. .c z  .@.@.@.@. .~ 8.d.d.d.d.d.d.5.4.4 a.d.d.d.d.f.a t e e e e a d.s.d.8.Q @.@.@.@.@.OXOXOXOXOXOXOXOXOX",
"OXOXOXOXOXOXOXOXOX@.@.v v v  .@.@.@.@.@.@.=.8.s.d.d.d.d.d.d.5.4.5.d.d.d.d.d.d.i 0 e e 0 t y p.s.8.! v v v  ...OXOXOXOXOXOXOXOXOX",
"OXOXOXOXOXOXOXOXOXOX@.....@.@.@.@.@.@.@.@.@.| 7.a.a.a.5.a.5.a.5.5.5.5.d.5.5.5.a.a 0 y i i 5.5.a.6.b .. . . .@.OXOXOXOXOXOXOXOXOX",
"OXOXOXOXOXOXOXOXOXOXOX@.%.@.@.@.@.@.@.@.@.@.S : % % % $ % % % $ % % % % % % % % > 8 % $ % % $ % ; b @.%.@.@.@.OXOXOXOXOXOXOXOXOX",
"OXOXOXOXOXOXOXOXOXOXOXOX@.@.@.%.@.@.....b N @ + + + + + + + + + + + + + + + + + + + + + + + + +   b O.@.@.@.%.OXOXOXOXOXOXOXOXOX",
"OXOXOXOXOXOXOXOXOXOXOXOXOX@.@.@.@.&.-.M.F.h.h.h.h.h.h.h.h.h.h.7 OXOXr.h.h.h.h.h.h.h.h.h.h.h.h.h.u.o...@.@.@.OXOXOXOXOXOXOXOXOXOX",
"OXOXOXOXOXOXOXOXOXOXOXOXOXOXOXOXM.J.U.~.~././././././././././.OXOXOXOX/././././././././././././.E.&.@.@.@.OXOXOXOXOXOXOXOXOXOXOX",
"OXOXOXOXOXOXOXOXOXOXOXOXOXOXOXOX^.~.~.~.~.~.~.~.~.~.~.~.~.~.~.OXOXOXOX/./././.Q.~.~.~.~.~.~./.~.U.;.@.@.OXOXOXOXOXOXOXOXOXOXOXOX",
"OXOXOXOXOXOXOXOXOXOXOXOXOXOXOXOXQ.Q.Q.Q.Q.Q.Q.Q.Q.Q.Q.Q.Q.Q.OXOXOXOXOX~.Q.Q.Q.Q.Q.Q.Q.~.Q.Q.Q.Q.Q.OXOXOXOXOXOXOXOXOXOXOXOXOXOXOX",
"OXOXOXOXOXOXOXOXOXOXOXOXOXOXOXOXW.W.W.W.W.W.W.W.W.W.W.W.W.W.OXOXOXOXOXW.W.W.W.W.W.W.W.W.W.W.W.W.W.OXOXOXOXOXOXOXOXOXOXOXOXOXOXOX",
"OXOXOXOXOXOXOXOXOXOXOXOXOXOXOXG.G.G.G.G.G.H.G.G.G.G.G.G.H.H.OXOXOXOXOXH.G.H.H.G.G.G.G.G.H.G.G.G.G.G.OXOXOXOXOXOXOXOXOXOXOXOXOXOX",
"OXOXOXOXOXOXOXOXOXOXOXOXOXOXOXe.e.e.e.e.e.e.e.e.e.e.e.e.e.w.OXOXOXOXOXe.w.e.e.e.e.e.e.e.e.e.e.e.e.w.OXOXOXOXOXOXOXOXOXOXOXOXOXOX",
"OXOXOXOXOXOXOXOXOXOXOXOXOXOXOX6 6 6 6 6 6 6 6 6 6 6 6 6 6 6 6 OXOXOXOXOX6 6 6 6 6 6 6 6 6 6 6 6 6 6 6 6 OXOXOXOXOXOXOXOXOXOXOXOX",
"OXOXOXOXOXOXOXOXOXOXOXOXOXOX6 6 6 6 6 6 6 6 6 6 6 6 6 6 6 6 6 OXOXOXOXOX6 6 6 6 6 6 6 6 6 6 6 6 6 6 6 6 OXOXOXOXOXOXOXOXOXOXOXOX"
};
