/* XPM */
static char *result[] = {
/* columns rows colors chars-per-pixel */
"64 64 10 1 ",
"  c gray20",
". c #343434",
"X c #4D4B45",
"o c #A59A82",
"O c #A69A82",
"+ c #AEA783",
"@ c #AFA785",
"# c #B3A78B",
"$ c #B4A78B",
"% c #B4A78C",
/* pixels */
"%%%%%%%%oX.                                          .Xo%%%%%%%%",
"%%%%%%%%oX.                                          .Xo%%%%%%%%",
"%%%%%%%%oX.                                          .Xo%%%%%%%%",
"%%%%%%%%oX.                                          .Xo%%%%%%%%",
"%%%%%%%%oX.                                          .Xo%%%%%%%%",
"%%%%%%%%oX.                                          .Xo%%%%%%%%",
"%%%%%%%%oX.                                          .Xo%%%%%%%%",
"%%%%%%%%oX.                                          .Xo%%%%%%%%",
"%%%%%%%%oX.                                          .Xo%%%%%%%%",
"%%%%%%%%oX.                                          .Xo%%%%%%%%",
"%%%%%%%%oX.                                          .Xo%%%%%%%%",
"%%%%%%%%oX.                                          .Xo%%%%%%%%",
"%%%%%%%%oX.                                          .Xo%%%%%%%%",
"%%%%%%%%oX.                                          .Xo%%%%%%%%",
"%%%%%%%%oX.                                          .Xo%%%%%%%%",
"%%%%%%%%oX.                                          .Xo%%%%%%%%",
"%%%%%%%%oX.                                          .Xo%%%%%%%%",
"%%%%%%%%oX.                                          .Xo%%%%%%%%",
"%%%%%%%%oX.                                          .Xo%%%%%%%%",
"%%%%%%%%oX.                                          .Xo%%%%%%%%",
"%%%%%%%%oX.                                          .Xo%%%%%%%%",
"%%%%%%%%oX.                                          .Xo%%%%%%%%",
"%%%%%%%%oX.                                          .Xo%%%%%%%%",
"%%%%%%%%oX.                                          .Xo%%%%%%%%",
"%%%%%%%%oX.                                          .Xo%%%%%%%%",
"%%%%%%%%oX.                                          .Xo%%%%%%%%",
"%%%%%%%%oX.                                          .Xo%%%%%%%%",
"%%%%%%%%oX.                                          .Xo%%%%%%%%",
"%%%%%%%%oX.                                          .Xo%%%%%%%%",
"%%%%%%%%oX.                                          .Xo%%%%%%%%",
"%%%%%%%%oX.                                          .Xo%%%%%%%%",
"%%%%%%%%oX.                                          .Xo%%%%%%%%",
"%%%%%%%%oX.                                          .Xo%%%%%%%%",
"%%%%%%%%oX.                                          .Xo%%%%%%%%",
"%%%%%%%%oX.                                          .Xo%%%%%%%%",
"%%%%%%%%oX.                                          .Xo%%%%%%%%",
"%%%%%%%%oX.                                          .Xo%%%%%%%%",
"%%%%%%%%oX.                                          .Xo%%%%%%%%",
"%%%%%%%%oX.                                          .Xo%%%%%%%%",
"%%%%%%%%oX.                                          .Xo%%%%%%%%",
"%%%%%%%%oX.                                          .Xo%%%%%%%%",
"%%%%%%%%oX.                                          .Xo%%%%%%%%",
"%%%%%%%%oX.                                          .Xo%%%%%%%%",
"%%%%%%%%oX.                                          .Xo%%%%%%%%",
"%%%%%%%%oX.                                          .Xo%%%%%%%%",
"%%%%%%%%oX.                                          .Xo%%%%%%%%",
"%%%%%%%%oX.                                          .Xo%%%%%%%%",
"%%%%%%%%oX.                                          .Xo%%%%%%%%",
"%%%%%%%%oX.                                          .Xo%%%%%%%%",
"%%%%%%%%oX.                                          .Xo%%%%%%%%",
"%%%%%%%%oX.                                          .Xo%%%%%%%%",
"%%%%%%%%oX.                                          .Xo%%%%%%%%",
"%%%%%%%%oX.                                          .Xo%%%%%%%%",
"%%%%%%%%oX.                                          .Xo%%%%%%%%",
"%%%%%%%%oX.                                          .Xo%%%%%%%%",
"%%%%%%%%oX.                                          .Xo%%%%%%%%",
"%%%%%%%%oX.                                          .Xo%%%%%%%%",
"%%%%%%%%oX.                                          .Xo%%%%%%%%",
"%%%%%%%%oX.                                          .Xo%%%%%%%%",
"%%%%%%%%oX.                                          .Xo%%%%%%%%",
"%%%%%%%%oX.                                          .Xo%%%%%%%%",
"%%%%%%%%oX.                                          .Xo%%%%%%$$",
"%%%%%%%%oX.                                          .Xo%%%%%%#@",
"%%%%%%%%OX.                                          .XO%%%%%%#+"
};
