/* XPM */
static char *result[] = {
/* columns rows colors chars-per-pixel */
"64 64 183 2 ",
"   c #544B4B",
".  c #584F4E",
"X  c #5B514F",
"o  c #5D5454",
"O  c #605654",
"+  c #655A55",
"@  c #645A59",
"#  c #6A5E58",
"$  c #6D615A",
"%  c #7C6D54",
"&  c #70645E",
"*  c #5F727F",
"=  c #7C6E63",
"-  c #776B63",
";  c #7F7267",
":  c #61737F",
">  c #767A7B",
",  c #936C4F",
"<  c #966E50",
"1  c #82745E",
"2  c #9A7253",
"3  c #9F7A5D",
"4  c #AA7E5C",
"5  c #8F7E6E",
"6  c #857666",
"7  c #907F6F",
"8  c #A27E61",
"9  c #B8824C",
"0  c #B7814C",
"q  c #AD855D",
"w  c #AB8056",
"e  c #B48352",
"r  c #BF8C57",
"t  c #8F826C",
"y  c #97816A",
"u  c #938472",
"i  c #978A75",
"p  c #9D8A75",
"a  c #9C8D7A",
"s  c #998774",
"d  c #9E907C",
"f  c #A28A6F",
"g  c #B78C61",
"h  c #A08D78",
"j  c #A08A71",
"k  c #A8937C",
"l  c #B49572",
"z  c #BA946A",
"x  c #C3915C",
"c  c #C19365",
"v  c #C4996D",
"b  c #CB9F72",
"n  c #C7A17B",
"m  c #DAAF7D",
"M  c #657682",
"N  c #667985",
"B  c #6C7C86",
"V  c #6F7E88",
"C  c #707F89",
"Z  c #6E818E",
"A  c #72838E",
"S  c #788284",
"D  c #758996",
"F  c #758B98",
"G  c #788E9C",
"H  c #798B96",
"J  c #7B919F",
"K  c #7E95A3",
"L  c #908F87",
"P  c #8D918C",
"I  c #828E95",
"U  c #879295",
"Y  c #84939B",
"T  c #88959B",
"R  c #8E9A9D",
"E  c #899092",
"W  c #999A91",
"Q  c #939B9A",
"!  c #A79985",
"~  c #B39D83",
"^  c #ABA38E",
"/  c #B7A186",
"(  c #B9A387",
")  c #BAA589",
"_  c #B7A78B",
"`  c #AAA699",
"'  c #B9AE9E",
"]  c #B4AA97",
"[  c #8095A2",
"{  c #8499A5",
"}  c #8C9DA3",
"|  c #8A9DA9",
" . c #909CA1",
".. c #8EA1AC",
"X. c #93A1A4",
"o. c #94A5AE",
"O. c #9BAAB1",
"+. c #AAAAA8",
"@. c #B4AEA3",
"#. c #BCB4A2",
"$. c #A9AEB0",
"%. c #ABB1B2",
"&. c #ABB6BA",
"*. c #B5B9B9",
"=. c #CBAF8C",
"-. c #D6AE86",
";. c #C3B08F",
":. c #DDB68D",
">. c #C3AD91",
",. c #C3B194",
"<. c #CAB392",
"1. c #CDBB96",
"2. c #C6B59C",
"3. c #D7BC92",
"4. c #D8BE93",
"5. c #D6BC99",
"6. c #D7BA9A",
"7. c #E3BF99",
"8. c #C7BBA4",
"9. c #DEBFA0",
"0. c #C5BDB1",
"q. c #DBC296",
"w. c #DCC49A",
"e. c #E1C69D",
"r. c #E4C596",
"t. c #CAC0AD",
"y. c #DDC9AB",
"u. c #D6C4A3",
"i. c #CAC4B9",
"p. c #DECDB2",
"a. c #D3CABC",
"s. c #D9CBB7",
"d. c #DBD1BC",
"f. c #E4C5A6",
"g. c #E5C9A2",
"h. c #EBCEA4",
"j. c #E4C6A8",
"k. c #E3CEAB",
"l. c #EACBAA",
"z. c #EED1A6",
"x. c #EBD3AD",
"c. c #F3D3A5",
"v. c #F3D5AA",
"b. c #F7D9AD",
"n. c #FBDCAE",
"m. c #E8D7BE",
"M. c #E5D5BD",
"N. c #FDDEB0",
"B. c #F4DFBF",
"V. c #FFE0B1",
"C. c #F7E1BE",
"Z. c #FCE2BB",
"A. c #BCC2C3",
"S. c #C9C9C6",
"D. c #C6C9C9",
"F. c #D6CFC4",
"G. c #D7D0C6",
"H. c #DAD4CB",
"J. c #D5D2CB",
"K. c #DEDBD5",
"L. c #D7D6D2",
"P. c #EBDBC1",
"I. c #E4DACC",
"U. c #E5D9C9",
"Y. c #E1DDD5",
"T. c #EFE1CC",
"R. c #F4E1C5",
"E. c #FFE6C2",
"W. c #F0E1CB",
"Q. c #FDEACD",
"!. c #E6E0D7",
"~. c #EBE2D3",
"^. c #E7E2DA",
"/. c #E8E3DB",
"(. c #FEEDD4",
"). c #F1E4D2",
"_. c #FFF1DA",
"`. c #EDEBE8",
"'. c #FFF4E2",
"]. c #FDF7ED",
"[. c #FEFDFA",
"{. c #F8F7F5",
"}. c None",
/* pixels */
"}.}.}.}.}.}.}.}.}.}.}.}.}.}.}.}.}.}.}.}.}.}.}.}.}.}.}.}.}.}.}.}.}.}.}.}.}.}.}.}.}.}.}.}.}.}.}.}.}.}.}.}.}.}.}.}.}.}.}.}.}.}.}.}.",
"}.}.}.}.}.}.}.}.}.}.}.}.}.}.}.}.}.}.}.}.}.}.}.}.}.}.}.}.}.}.}.}.}.}.}.}.}.}.}.}.}.}.}.}.}.}.}.}.}.}.}.}.}.}.}.}.}.}.}.}.}.}.}.}.",
"}.}.}.}.}.}.}.}.}.}.}.}.}.}.}.}.}.}.}.}.}.}.}.}.}.}.}.}.}.}.}.}.}.}.}.}.}.}.}.}.}.}.}.}.}.}.}.}.}.}.}.}.}.}.}.}.}.}.}.}.}.}.}.}.",
"}.}.}.}.}.}.}.}.}.}.}.}.}.}.}.}.}.}.}.}.}.}.}.}.}.}.}.}.}.}.}.}.}.}.}.}.}.}.}.}.}.}.}.}.}.}.}.}.}.}.}.}.}.}.}.}.}.}.}.}.}.}.}.}.",
"}.}.}.}.}.}.}.}.}.}.}.}.}.}.}.}.}.}.}.}.}.}.}.}.}.}.}.}.}.}.}.}.}.}.}.}.}.}.}.}.}.}.}.}.}.}.}.}.}.}.}.}.}.}.}.}.}.}.}.}.}.}.}.}.",
"}.}.}.}.}.}.}.}.}.}.}.}.}.}.}.}.}.}.}.}.}.}.}.}.}.}.}.}.}.}.}.}.}.}.}.}.}.}.}.}.}.}.}.}.}.}.}.}.}.}.}.}.}.}.}.}.}.}.}.}.}.}.}.}.",
"}.}.}.}.}.}.}.}.}.}.}.}.}.}.}.}.}.}.}.}.}.}.}.}.}.}.}.}.}.}.}.}.}.}.}.}.}.}.}.}.}.}.}.}.}.}.}.}.}.}.}.}.}.}.}.}.}.}.}.}.}.}.}.}.",
"}.}.}.}.}.}.}.}.}.}.}.}.}.}.}.}.}.}.}.}.}.}.}.}.}.}.}.}.}.}.}.}.}.}.}.}.}.}.}.}.}.}.}.}.}.}.}.}.}.}.}.}.}.}.}.}.}.}.}.}.}.}.}.}.",
"}.}.}.}.}.}.}.}.}.}.}.}.}.}.}.}.}.}.}.}.}.}.}.}.}.}.}.}.}.}.}.}.}.}.}.}.}.}.}.}.}.}.}.}.}.}.}.}.}.}.}.}.}.}.}.}.}.}.}.}.}.}.}.}.",
"}.}.}.}.}.}.}.}.}.}.}.}.}.}.}.}.}.}.}.}.}.}.}.}.}.}.}.}.}.}.}.}.}.}.}.}.}.}.}.}.}.}.}.}.}.}.}.}.}.}.}.}.}.}.}.}.}.}.}.}.}.}.}.}.",
"}.}.}.}.}.}.}.}.}.}.}.}.}.}.}.}.}.}.}.}.}.}.}.}.}.}.}.}.}.}.}.}.}.}.}.}.}.}.}.}.}.}.}.}.}.}.}.}.}.}.}.}.}.}.}.}.}.}.}.}.}.}.}.}.",
"}.}.}.}.}.}.}.}.}.}.}.}.}.}.}.}.}.}.}.}.}.}.}.}.}.}.}.}.}.}.}.}.}.}.o o o o o o o o o o }.}.}.}.}.}.}.}.}.}.}.}.}.}.}.}.}.}.}.}.",
"}.}.}.}.}.}.}.}.}.}.}.}.}.}.}.}.}.}.}.}.}.}.}.}.}.}.}.}.}.}.o o @ o o o o o o .         }.}.}.}.}.}.}.}.}.}.}.}.}.}.}.}.}.}.}.}.",
"}.}.}.}.}.}.}.}.}.}.}.}.}.}.}.}.}.}.}.}.}.}.}.}.}.o o o o o o o o o o o                 }.}.}.}.}.}.}.}.}.}.}.}.}.}.}.}.}.}.}.}.",
"}.}.}.}.}.}.}.}.}.}.}.}.}.}.}.}.}.}.}.}.}.}.o o o o o o o o o o o                     o }.}.}.}.}.}.}.}.}.}.}.}.}.}.}.}.}.}.}.}.",
"}.}.}.}.}.}.}.}.}.}.}.}.}.}.}.}.}.}.}.o o o o O o o o o o o X                           o }.}.}.}.}.}.}.}.}.}.}.}.}.}.}.}.}.}.}.",
"}.}.}.}.}.}.}.}.}.}.}.}.}.}.}.}.}.}.o @ o o o o o o o o .                               o o }.}.}.}.}.}.}.}.}.}.}.}.}.}.}.}.}.}.",
"}.}.}.}.}.}.}.}.}.}.}.}.}.}.o o o o o o o o o o o o o                                   o o o }.}.}.}.}.}.}.}.}.}.}.}.}.}.}.}.}.",
"}.}.}.}.}.}.}.}.}.}.}.}.}.}.o o o O o o o o o o X                                         o o o }.}.}.}.}.}.}.}.}.}.}.}.}.}.}.}.",
"}.}.}.}.}.}.}.}.}.}.}.}.}.o o O o o o o o o o o                                           o o o o }.}.}.}.}.}.}.}.}.}.}.}.}.}.}.",
"}.}.}.}.}.}.}.}.}.}.}.}.}.O o o o o o o o o .                                             o o o o }.}.}.}.}.}.}.}.}.}.}.}.}.}.}.",
"}.}.}.}.}.}.}.}.}.}.}.}.o o o o o o o o o                                                 . o o o }.}.}.}.}.}.}.}.}.}.}.}.}.}.}.",
"}.}.}.}.}.}.}.}.}.}.}.}.o o o o o o o o # = 5 a h h s 5 6 #                                 o o o }.}.}.}.}.}.}.}.}.}.}.}.}.}.}.",
"}.}.}.}.}.}.}.}.}.}.}.}.o o o O o o o a f.v.N.N.V.Z.V.V.n.g.~ &     X                       o o o }.}.}.}.}.}.}.}.}.}.}.}.}.}.}.",
"}.}.}.}.}.}.}.}.}.}.}.}.o o o o o o = g.V.V.V.n.v.z.z.v.b.n.V.w.s / 3.;.( k a h h h h k ( ~ ; o o }.}.}.}.}.}.}.}.}.}.}.}.}.}.}.",
"}.}.}.}.}.}.}.}.}.}.}.}.o o o o o @ ) V.V.V.v.) ; + + # = ~ b.V.n.V.V.V.V.V.n.n.n.n.n.V.V.Z.) + }.}.}.}.}.}.}.}.}.}.}.}.}.}.}.}.",
"}.}.}.}.}.}.}.}.}.}.}.}.o o o o o u b.V.V.V.b.h.4.( u = + s n.V.V.V.n.V.n.<.p u 5 7 k ,.v.V.g.& }.}.}.}.}.}.}.}.}.}.}.}.}.}.}.}.",
"}.}.}.}.}.}.}.}.}.}.}.}.o o o o & 5.V.V.V.V.V.V.V.Z.Z.N.e.g.V.V.V.V.V.V.N.~   + $ 6 s ( z.V.V.d }.}.}.}.}.}.}.}.}.}.}.}.}.}.}.}.",
"}.}.}.}.}.}.}.}.}.}.}.}.}.o o o ! N.V.V.V.V.V.V._.T.2.2.E.V.V.V.V.V.V.V.V.g.>.,.1.P.(.Z.V.V.V.5.}.}.}.}.}.}.}.}.}.}.}.}.}.}.}.}.",
"}.}.}.}.}.}.}.}.}.}.}.}.}.o o 6 z.N.V.V.V.N.V._.{.@.% 1 t.Z.V.V.V.V.V.V.V.V.y.i 6 @.[.'.V.V.V.n.}.}.}.}.}.}.}.}.}.}.}.}.}.}.}.}.",
"}.}.}.}.}.}.}.}.}.}.}.}.}.}.@ <.N.V.V.N.V.V.V.].`.a % 1 ' E.V.V.N.V.V.V.V.Z.2.1 % a `.[.Z.V.V.V.}.}.}.}.}.}.}.}.}.}.}.}.}.}.}.}.",
"}.}.}.}.}.}.}.}.}.}.}.}.}.}.+.m.V.V.V.V.V.V.N.Q.{.0.t d m.V.V.V.V.N.V.V.V.Z.y.u 1 ] {.'.V.V.V.V.}.}.}.}.}.}.}.}.}.}.}.}.}.}.}.}.",
"}.}.}.}.}.}.}.}.}.}.}.}.}.}.^.~.C.V.V.V.V.V.V.V.Z.Q.R.C.V.V.V.V.V.V.V.V.V.V.Z.k.y.~._.Z.V.V.V.V.}.}.}.}.}.}.}.}.}.}.}.}.}.}.}.}.",
"}.}.}.}.}.}.}.}.}.}.}.}.}.}.^.^.!.C.V.V.V.V.C.R.T.T.T.~.~.H.T.~.~.T.~.~.W.R.R.Z.Z.Z.V.V.V.V.Z.R.}.}.}.}.}.}.}.}.}.}.}.}.}.}.}.}.",
"}.}.}.}.}.}.}.}.}.}.}.}.}.}.^.^.^.!.T.R.T.T.~.^.^.^.^./.Y.] d ] a.H.H.H.G.i.G.~.~.T.R.Z.V.Z.R.~.}.}.}.}.}.}.}.}.}.}.}.}.}.}.}.}.",
"}.}.}.}.}.}.}.}.}.}.}.}.}.}./././.!.^.^.^.^.^.^.^./.^.^.^.G.@.! i i i i t i ' Y.^.^.^.~.~.~.!.}.}.}.}.}.}.}.}.}.}.}.}.}.}.}.}.}.",
"}.}.}.}.}.}.}.}.}.}.}.}.}.}.}./.^./.^.^.^.^.^.^.^.^.^.^.^././.Y.H.G.G.G.H.H.!.^././././.^.^.~.&.}.}.}.}.}.}.}.}.}.}.}.}.}.}.}.}.",
"}.}.}.}.}.}.}.}.}.}.}.}.}.}.}.L.^./.^.^.^.~.^./.^.^.^./.^./.^./././././././.^.^./././.!.^./.d.k s Y }.}.}.}.}.}.}.}.}.}.}.}.}.}.",
"}.}.}.}.}.}.}.}.}.}.}.}.}.}.K o.A.L.K.Y.K.K.K.Y.!.!.!.!.!.!.!.!.^.^.^.!.^.^.!.^./././././.H.n 9 q U [ K }.}.}.}.}.}.}.}.}.}.}.}.",
"}.}.}.}.}.}.}.}.}.}.}.}.}.K K K { { ..o.o.o.o.O.t.y.y.y.u.y.y.y.p.p.p.p.p.p.p.M.d.*.&.%.@.v 9 9 q E K K K }.}.}.}.}.}.}.}.}.}.}.",
"}.}.}.}.}.}.}.}.}.}.}.}.F J K K K K K K K K K K R _ 1.1.3.3.q.q.3.3.3.3.q.q.q.1.L : : : > 0 9 9 q U J F Z M }.}.}.}.}.}.}.}.}.}.",
"}.}.}.}.}.}.}.}.}.}.}.Z M M Z F J K [ J K K K K P p Q ` _ _ ;.;.4.q.q.q.q.q._ S : : Z A u 9 9 0 w S N M V I }.}.}.}.}.}.}.}.}.}.",
"}.}.}.}.}.}.}.}.}.}.Y.S.%.U V M N Z D J K K K J p q U K Y J A S ^ w.w.r.q.W Z N A G J J p 9 9 9 w > Y $.S.K.^.}.}.}.}.}.}.}.}.}.",
"}.}.}.}.}.}.}.}.}.}.^.^./.K.S.$.T Z : N Z F J L e q U K K K J J D W 1.1.W Z D J J K K J L e 9 9 r a.K././.^.^.}.}.}.}.}.}.}.}.}.",
"}.}.}.}.}.}.}.}.}.}./.~.~.~.~./.K.S.$.Y A M > q 9 p J { K K K K K J R R { { K K K K { K Y a e 9 c U.I.).W.T.~.}.}.}.}.}.}.}.}.}.",
"}.}.}.}.}.}.}.}.}.}.V.V.Z.Z.C.Z.C.R.R.R.s.` y w p Y K K K K K K K K K o.J.A...K K K K K K J P a l z.V.N.V.V.}.}.}.}.}.}.}.}.}.}.",
"}.}.}.}.}.}.}.}.}.}.N.V.N.V.N.V.V.V.V.V.N.=.f L Y K K K K K K K K K K ..A.&.{ K K K K K K K K K X.x.V.V.V.V.V.}.}.}.}.}.}.}.}.}.",
"}.}.}.}.}.}.}.}.}.V.V.V.N.V.V.V.N.n.n.N.#.R Y J { K K K K K K K K K K K K K K K K K K K K K K K X.x.V.V.V.V.V.}.}.}.}.}.}.}.}.}.",
"}.}.}.}.}.}.}.}.}.V.V.V.N.V.V.V.n.n.v.z.#.X.K K K K K K K K K K K K K K J K K K K K K K K K K K X.x.V.V.V.V.V.}.}.}.}.}.}.}.}.}.",
"}.}.}.}.}.}.}.}.}.V.V.V.V.n.v.c.n.V.V.b.z.2.X.J K K K K J J F F D D D F F F F F J K K K K K K K X.x.V.V.V.V.V.V.}.}.}.}.}.}.}.}.",
"}.}.}.}.}.}.}.}.}.V.V.N.v.z.h.c.n.V.V.V.b.u.{ K O.&...K J J J J G K K G J J K J J K K K K K K K X.x.V.N.V.V.V.}.}.}.}.}.}.}.}.}.",
"}.}.}.}.}.}.}.}.}.V.n.v.z.c.n.V.V.V.N.V.V.k.%.D.Y./.D...K K K K K K K K K K K K K K K K K K K K  .u.z.z.z.b.n.}.}.}.}.}.}.}.}.}.",
"}.}.}.}.}.}.}.}.}.}.n.n.n.V.V.V.V.V.N.V.V.n.R.P.!.H.I.i.X.J T T Y Y Y Y Y Y Y Y Y J Y Y Y Y Y Y Q x.b.b.n.n.V.}.}.}.}.}.}.}.}.}.",
"}.}.}.}.}.}.}.}.}.}.}.V.V.V.V.V.V.V.V.V.V.n.7.c c c v c q q q q q q q q q q q q g 4 q q q q q q z c.V.V.N.N.V.}.}.}.}.}.}.}.}.}.",
"}.}.}.}.}.}.}.}.}.}.}.}.V.V.V.V.N.V.V.N.c.m r 4 9 9 9 9 9 9 9 9 0 0 0 0 9 9 9 9 9 9 0 9 9 9 9 9 x c.V.V.V.V.N.}.}.}.}.}.}.}.}.}.",
"}.}.}.}.}.}.}.}.}.}.}.}.}.V.V.n.N.N.N.b.r.-.-.-.-.-.-.-.-.-.-.c }.}.b -.-.-.-.-.-.-.-.-.-.-.-.-.:.b.V.V.N.V.}.}.}.}.}.}.}.}.}.}.",
"}.}.}.}.}.}.}.}.}.}.}.}.}.}.}.}.v.l.f.j.j.j.j.j.j.j.j.j.j.j.j.}.}.}.}.j.j.j.j.j.j.j.j.j.j.j.j.j.l.V.V.V.V.}.}.}.}.}.}.}.}.}.}.}.",
"}.}.}.}.}.}.}.}.}.}.}.}.}.}.}.}.7.7.9.9.9.7.9.9.7.f.6.f.9.6.f.}.}.}.}.9.9.9.9.9.9.9.9.9.9.9.9.9.f.b.V.V.}.}.}.}.}.}.}.}.}.}.}.}.",
"}.}.}.}.}.}.}.}.}.}.}.}.}.}.}.}.4 7 8 8 8 8 8 8 8 8 8 8 8 8 }.}.}.}.}.8 4 7 8 8 8 8 8 8 8 8 8 8 4 }.}.}.}.}.}.}.}.}.}.}.}.}.}.}.",
"}.}.}.}.}.}.}.}.}.}.}.}.}.}.}.}., , , , < < < 2 2 2 2 2 2 2 }.}.}.}.}.< , < < < < < < 2 2 2 2 2 2 }.}.}.}.}.}.}.}.}.}.}.}.}.}.}.",
"}.}.}.}.}.}.}.}.}.}.}.}.}.}.}.4 4 4 4 4 4 4 4 4 4 4 4 4 4 }.}.}.}.}.}.4 4 4 4 4 4 4 4 4 4 4 4 4 4 }.}.}.}.}.}.}.}.}.}.}.}.}.}.}.",
"}.}.}.}.}.}.}.}.}.}.}.}.}.}.}.q 4 4 4 4 4 4 4 4 4 4 4 4 4 4 }.}.}.}.}.4 4 4 4 4 4 4 4 4 4 4 4 4 4 4 }.}.}.}.}.}.}.}.}.}.}.}.}.}.",
"}.}.}.}.}.}.}.}.}.}.}.}.}.}.}.4 4 4 4 4 4 4 8 4 4 4 4 4 4 4 4 }.}.}.}.}.4 4 4 4 4 4 4 4 4 4 4 4 4 4 4 4 }.}.}.}.}.}.}.}.}.}.}.}.",
"}.}.}.}.}.}.}.}.}.}.}.}.}.}.}.4 4 4 4 4 4 4 4 4 4 4 4 4 4 4 4 }.}.}.}.}.4 4 4 4 4 4 4 4 4 4 q 4 4 4 4 4 }.}.}.}.}.}.}.}.}.}.}.}."
};
