/* XPM */
static char *_f4766c3cf004a2fee057093e42cf2a9dGEfZ9nF389jSXRh[] = {
/* columns rows colors chars-per-pixel */
"64 64 127 2 ",
"   c #6C829A",
".  c #6C819A",
"X  c #6B8199",
"o  c #6B8098",
"O  c #6A7F97",
"+  c #64788F",
"@  c #657990",
"#  c #667B92",
"$  c #687D94",
"%  c #697E96",
"&  c #5B6C81",
"*  c #5C6D82",
"=  c #5E7085",
"-  c #61748A",
";  c #697E95",
":  c #4F5E70",
">  c #516073",
",  c #546478",
"<  c #5A6B80",
"1  c #687C94",
"2  c #6B8099",
"3  c #455161",
"4  c #475364",
"5  c #4B596B",
"6  c #536376",
"7  c #5C6E83",
"8  c #6A7F96",
"9  c #3F4A59",
"0  c #414D5D",
"q  c #465263",
"w  c #4E5C6E",
"e  c #57677B",
"r  c #607288",
"t  c #6A7E96",
"y  c #3E4858",
"u  c #404A5A",
"i  c #434F5F",
"p  c #495667",
"a  c #505F72",
"s  c #57687C",
"d  c #5D6F84",
"f  c #62758B",
"g  c #667A91",
"h  c #404B5B",
"j  c #424D5D",
"k  c #455162",
"l  c #4E5C6F",
"z  c #546377",
"x  c #414B5B",
"c  c #414C5C",
"v  c #404B5A",
"b  c #414C5D",
"n  c #495668",
"m  c #62758C",
"M  c #667A92",
"N  c #6D829B",
"B  c #62768C",
"V  c #697D95",
"C  c #6E849D",
"Z  c #4D5B6D",
"A  c #556579",
"S  c #63768D",
"D  c #434E5E",
"F  c #465364",
"G  c #4B596A",
"H  c #516173",
"J  c #526275",
"K  c #414C5B",
"L  c #3F4B5A",
"P  c #3F4B59",
"I  c #3E4958",
"U  c #3A4453",
"Y  c #363F4C",
"T  c #323B46",
"R  c #2F3843",
"E  c #2E3742",
"W  c #3E4857",
"Q  c #353E4B",
"!  c #2F3742",
"~  c #29313B",
"^  c #262D37",
"/  c #252C35",
"(  c #3C4655",
")  c #384250",
"_  c #353E4A",
"`  c #303843",
"'  c #2A323C",
"]  c #262D36",
"[  c #242A33",
"{  c #222931",
"}  c #424D5E",
"|  c #37404E",
" . c #323B47",
".. c #2B333D",
"X. c #282F39",
"o. c #242B33",
"O. c #232A32",
"+. c #2D353F",
"@. c #272F38",
"#. c #272E37",
"$. c #3C4654",
"%. c #303944",
"&. c #2B333E",
"*. c #252C34",
"=. c #29303A",
"-. c #434E5F",
";. c #37414E",
":. c #394350",
">. c #333C48",
",. c #2D3540",
"<. c #3F4959",
"1. c #3D4857",
"2. c #3A4452",
"3. c #2F3743",
"4. c #38414F",
"5. c #37404D",
"6. c #343D4A",
"7. c #303945",
"8. c #2C343E",
"9. c #282F38",
"0. c #2E3641",
"q. c #2A313B",
"w. c #29313A",
"e. c #283039",
"r. c #242B34",
"t. c #252B34",
"y. c white",
/* pixels */
"    . X o O O O O O O O O O O O O O O O O O O O O O O O O O O O O O O O O O O O O O O O O O O O O O O O O O O O O O O o X .     ",
"O O O O O O O O O O O O O O O O O O O O O O O O O O O O O O O O O O O O O O O O O O O O O O O O O O O O O O O O O O O O O O O O ",
"+ + @ # $ % O O O O O O O O O O O O O O O O O O O O O O O O O O O O O O O O O O O O O O O O O O O O O O O O O O O O % $ # @ + + ",
"& * = - @ ; o X o O O O O O O O O O O O O O O O O O O O O O O O O O O O O O O O O O O O O O O O O O O O O O O o X o ; @ - = * & ",
": > , < - 1 2 . X O O O O O O O O O O O O O O O O O O O O O O O O O O O O O O O O O O O O O O O O O O O O O O X . 2 1 - < , > : ",
"3 4 5 6 7 @ 8 2 o O O O O O O O O O O O O O O O O O O O O O O O O O O O O O O O O O O O O O O O O O O O O O O o 2 8 @ 7 6 5 4 3 ",
"9 0 q w e r @ 1 % t O O O O O O O O O O O O O O O O O O O O O O O O O O O O O O O O O O O O O O O O O O O O t % 1 @ r e w q 0 9 ",
"y u i p a s d f g % o X o O O O O O O O O O O O O O O O O O O O O O O O O O O O O O O O O O O O O O O o X o % g f d s a p i u y ",
"9 h j k p l z & f 1 2 . X O O O O O O O O O O O O O O O O O O O O O O O O O O O O O O O O O O O O O O X . 2 1 f & z l p k j h 9 ",
"x c 0 j i q 5 z d @ 8 2 o O O O O O O O O O O O O O O O O O O O O O O O O O O O O O O O O O O O O O O o 2 8 @ d z 5 q i j 0 c x ",
"c c c h v b q l s r @ 1 % t O O O O O O O O O O O O O O O O O O O O O O O O O O O O O O O O O O O O t % 1 @ r s l q b v h c c c ",
"c c c u 9 v i n a s d f g % o X o O O O O O O O O O O O O O O O O O O O O O O O O O O O O O O o X o % g f d s a n i v 9 u c c c ",
"c c c h u h j k n l z & f 1 2 . X O O O O O O O O O O O O O O O O O O O O O O O O O O O O O O X . 2 1 f & z l n k j h u h c c c ",
"c c c c c c 0 j i q 5 z d @ 8 2 o O O O O O O O O O O O O O O O O O O O O O O O O O O O O O O o 2 8 @ d z 5 q i j 0 c c c c c c ",
"c c c c c c c h v b q l s r @ 1 % t O O O O O O O O O O O O O O O O O O O O O O O O O O O O t % 1 @ r s l q b v h c c c c c c c ",
"c c c c c c c u 9 v i n a s d f g % o X o O O O O O O O O O O O O O O O O O O O O O O o X o % g f d s a n i v 9 u c c c c c c c ",
"c c c c c c c h u h j k n l z & f 1 2 . X O O O O O O O O O O O O O O O O O O O O O O X . 2 1 f & z l n k j h u h c c c c c c c ",
"c c c c c c c c c c 0 j i q 5 z d @ 8 2 o O O O O O O O O O O O O O O O O O O O O O O o 2 8 @ d z 5 q i j 0 c c c c c c c c c c ",
"c c c c c c c c c c c h v b q l s r @ 1 % t O O O O O O O O O O O O O O O O O O O O t % 1 @ r s l q b v h c c c c c c c c c c c ",
"c c c c c c c c c c c u 9 v i n a s d f g % o X o O O O O O O O O O O O O O O o X o % g f d s a n i v 9 u c c c c c c c c c c c ",
"c c c c c c c c c c c h u h j k n l z & f 1 2 . X O O O O O O O O O O O O O O X . 2 1 f & z l n k j h u h c c c c c c c c c c c ",
"c c c c c c c c c c c c c c 0 j i q 5 z d @ 8 2 o O O O O O O O O O O O O O O o 2 8 @ d z 5 q i j 0 c c c c c c c c c c c c c c ",
"c c c c c c c c c c c c c c c h v b q l s r @ 1 % t O O O O O O O O O O O O t % 1 @ r s l q b v h c c c c c c c c c c c c c c c ",
"c c c c c c c c c c c c c c c u 9 v i n a s d f g % o X o O O O O O O o X o % g f d s a n i v 9 u c c c c c c c c c c c c c c c ",
"c c c c c c c c c c c c c c c h u h j k n l z & f 1 2 . X O O O O O O X . 2 1 f & z l n k j h u h c c c c c c c c c c c c c c c ",
"c c c c c c c c c c c c c c c c c c 0 j i q 5 z d @ 8 2 o O O O O O O o 2 8 @ d z 5 q i j 0 c c c c c c c c c c c c c c c c c c ",
"c c c c c c c c c c c c c c c c c c c h v b q l s r @ 1 % O O o o O O % 1 @ r s l q b v h c c c c c c c c c c c c c c c c c c c ",
"c c c c c c c c c c c c c c c c c c c u 9 v i n a s d m M 8 . N N . 8 M m d s a n i v 9 u c c c c c c c c c c c c c c c c c c c ",
"c c c c c c c c c c c c c c c c c c c h u h j k n l z & B V   C C   V B & z l n k j h u h c c c c c c c c c c c c c c c c c c c ",
"c c c c c c c c c c c c c c c c c c c c c c 0 j i q 5 z d @ 8 . . 8 @ d z 5 q i j 0 c c c c c c c c c c c c c c c c c c c c c c ",
"c c c c c c c c c c c c c c c c c c c c c c c h h 0 q Z A d - S S - d A Z q 0 h h c c c c c c c c c c c c c c c c c c c c c c c ",
"c c c c c c c c c c c c c c c c c c c c c c c h v h D F G : H J J H : G F D h v h c c c c c c c c c c c c c c c c c c c c c c c ",
"c c c c c c c c c c c c c c c c c c c c c c c c c c K h v L L P P L L v h K c c c c c c c c c c c c c c c c c c c c c c c c c c ",
"c c c c c c c c c c c c c c c c c c c c c c c c b K I U Y T R E E R T Y U I K b c c c c c c c c c c c c c c c c c c c c c c c c ",
"c c c c c c c c c c c c c c c c c c c c c c c h u W U Q ! ~ ^ / / ^ ~ ! Q U W u h c c c c c c c c c c c c c c c c c c c c c c c ",
"c c c c c c c c c c c c c c c c c c c j j j h I ( ) _ ` ' ] [ { { [ ] ' ` _ ) ( I h j j j c c c c c c c c c c c c c c c c c c c ",
"c c c c c c c c c c c c c c c c c c c j } j u ( |  .E ..X.] o.O.O.o.] X...E  .| ( u j } j c c c c c c c c c c c c c c c c c c c ",
"c c c c c c c c c c c c c c c c c c c j j c W )  .+.~ @.#.] ] / / ] ] #.@.~ +. .) W c j j c c c c c c c c c c c c c c c c c c c ",
"c c c c c c c c c c c c c c c c c c c h u W U Q ! ~ ] / / ] ] ] ] ] ] / / ] ~ ! Q U W u h c c c c c c c c c c c c c c c c c c c ",
"c c c c c c c c c c c c c c c j j j h I $.) Q %.&.@./ *./ ] ] ] ] ] ] / *./ @.&.%.Q ) $.I h j j j c c c c c c c c c c c c c c c ",
"c c c c c c c c c c c c c c c j } j u $.|  .! &.=.#./ / / ] ] ] ] ] ] / / / #.=.&.!  .| $.u j } j c c c c c c c c c c c c c c c ",
"c c c c c c c c c c c c c c c j j c W )  .+.~ @.#.] ] ] ] ] ] ] ] ] ] ] ] ] ] #.@.~ +. .) W c j j c c c c c c c c c c c c c c c ",
"c c c c c c c c c c c c c c c h u W U Q ! ~ ] / / ] ] ] ] ] ] ] ] ] ] ] ] ] ] / / ] ~ ! Q U W u h c c c c c c c c c c c c c c c ",
"c c c c c c c c c c c j j j h I $.) Q %.&.@./ *./ ] ] ] ] ] ] ] ] ] ] ] ] ] ] / *./ @.&.%.Q ) $.I h j j j c c c c c c c c c c c ",
"c c c c c c c c c c c j } j u $.|  .! &.=.#./ / / ] ] ] ] ] ] ] ] ] ] ] ] ] ] / / / #.=.&.!  .| $.u j } j c c c c c c c c c c c ",
"c c c c c c c c c c c j j c W )  .+.~ @.#.] ] ] ] ] ] ] ] ] ] ] ] ] ] ] ] ] ] ] ] ] ] #.@.~ +. .) W c j j c c c c c c c c c c c ",
"c c c c c c c c c c c h u W U Q ! ~ ] / / ] ] ] ] ] ] ] ] ] ] ] ] ] ] ] ] ] ] ] ] ] ] / / ] ~ ! Q U W u h c c c c c c c c c c c ",
"c c c c c c c j j j h I $.) Q %.&.@./ *./ ] ] ] ] ] ] ] ] ] ] ] ] ] ] ] ] ] ] ] ] ] ] / *./ @.&.%.Q ) $.I h j j j c c c c c c c ",
"c c c c c c c j } j u $.|  .! &.=.#./ / / ] ] ] ] ] ] ] ] ] ] ] ] ] ] ] ] ] ] ] ] ] ] / / / #.=.&.!  .| $.u j } j c c c c c c c ",
"c c c c c c c j j c W )  .+.~ @.#.] ] ] ] ] ] ] ] ] ] ] ] ] ] ] ] ] ] ] ] ] ] ] ] ] ] ] ] ] ] #.@.~ +. .) W c j j c c c c c c c ",
"c c c c c c c h u W U Q ! ~ ] / / ] ] ] ] ] ] ] ] ] ] ] ] ] ] ] ] ] ] ] ] ] ] ] ] ] ] ] ] ] ] / / ] ~ ! Q U W u h c c c c c c c ",
"c c c j j j h I $.) Q %.&.@./ *./ ] ] ] ] ] ] ] ] ] ] ] ] ] ] ] ] ] ] ] ] ] ] ] ] ] ] ] ] ] ] / *./ @.&.%.Q ) $.I h j j j c c c ",
"c c c j } j u $.|  .! &.=.#./ / / ] ] ] ] ] ] ] ] ] ] ] ] ] ] ] ] ] ] ] ] ] ] ] ] ] ] ] ] ] ] / / / #.=.&.!  .| $.u j } j c c c ",
"c c c j j c W )  .+.~ @.#.] ] ] ] ] ] ] ] ] ] ] ] ] ] ] ] ] ] ] ] ] ] ] ] ] ] ] ] ] ] ] ] ] ] ] ] ] ] #.@.~ +. .) W c j j c c c ",
"c c c h u W U Q ! ~ ] / / ] ] ] ] ] ] ] ] ] ] ] ] ] ] ] ] ] ] ] ] ] ] ] ] ] ] ] ] ] ] ] ] ] ] ] ] ] ] / / ] ~ ! Q U W u h c c c ",
"} j h I ( ) Q %.&.@./ *./ ] ] ] ] ] ] ] ] ] ] ] ] ] ] ] ] ] ] ] ] ] ] ] ] ] ] ] ] ] ] ] ] ] ] ] ] ] ] / *./ @.&.%.Q ) ( I h j } ",
"-.j u ( ;. .! &.=.#./ / / ] ] ] ] ] ] ] ] ] ] ] ] ] ] ] ] ] ] ] ] ] ] ] ] ] ] ] ] ] ] ] ] ] ] ] ] ] ] / / / #.=.&.!  .;.( u j -.",
"} c W :.>.,.~ @.#.] ] ] ] ] ] ] ] ] ] ] ] ] ] ] ] ] ] ] ] ] ] ] ] ] ] ] ] ] ] ] ] ] ] ] ] ] ] ] ] ] ] ] ] ] ] #.@.~ ,.>.:.W c } ",
"<.1.2.Q 3.~ ] / / ] ] ] ] ] ] ] ] ] ] ] ] ] ] ] ] ] ] ] ] ] ] ] ] ] ] ] ] ] ] ] ] ] ] ] ] ] ] ] ] ] ] ] ] ] ] / / ] ~ 3.Q 2.1.<.",
"4.5.6.7.8.9./ *./ ] ] ] ] ] ] ] ] ] ] ] ] ] ] ] ] ] ] ] ] ] ] ] ] ] ] ] ] ] ] ] ] ] ] ] ] ] ] ] ] ] ] ] ] ] ] / *./ 9.8.7.6.5.4.",
"%.R 0.8.~ #./ / / ] ] ] ] ] ] ] ] ] ] ] ] ] ] ] ] ] ] ] ] ] ] ] ] ] ] ] ] ] ] ] ] ] ] ] ] ] ] ] ] ] ] ] ] ] ] / / / #.~ 8.0.R %.",
"q.q.w.e.@.^ ] ] ] ] ] ] ] ] ] ] ] ] ] ] ] ] ] ] ] ] ] ] ] ] ] ] ] ] ] ] ] ] ] ] ] ] ] ] ] ] ] ] ] ] ] ] ] ] ] ] ] ] ^ @.e.w.q.q.",
"] ] ] ] ] ] ] ] ] ] ] ] ] ] ] ] ] ] ] ] ] ] ] ] ] ] ] ] ] ] ] ] ] ] ] ] ] ] ] ] ] ] ] ] ] ] ] ] ] ] ] ] ] ] ] ] ] ] ] ] ] ] ] ] ",
"r.t.*./ / ] ] ] ] ] ] ] ] ] ] ] ] ] ] ] ] ] ] ] ] ] ] ] ] ] ] ] ] ] ] ] ] ] ] ] ] ] ] ] ] ] ] ] ] ] ] ] ] ] ] ] ] ] ] / / *.t.r."
};
